<?xml version="1.0" encoding="UTF-8" standalone="no"?>
<svg width="150.283mm" height="150.283mm"
 viewBox="0 0 426 426"
 xmlns="http://www.w3.org/2000/svg" xmlns:xlink="http://www.w3.org/1999/xlink"  version="1.2" baseProfile="tiny">
<title>Qt Svg Document</title>
<desc>Generated with Qt</desc>
<defs>
</defs>
<g fill="none" stroke="black" vector-effect="non-scaling-stroke" stroke-width="1" fill-rule="evenodd" stroke-linecap="square" stroke-linejoin="bevel" >

<g fill="none" stroke="#000000" stroke-opacity="1" vector-effect="non-scaling-stroke" stroke-width="1" stroke-linecap="square" stroke-linejoin="bevel" transform="matrix(1,0,0,1,0,0)"
font-family="Arial" font-size="10pt" font-weight="400" font-style="normal" 
>
</g>

<g fill="#ffffff" fill-opacity="1" stroke="none" transform="matrix(1,0,0,1,0,0)"
font-family="Arial" font-size="10pt" font-weight="400" font-style="normal" 
>
<path fill-rule="evenodd" d="M34.1433,2.84528 L423.946,2.84528 L423.946,392.648 L34.1433,392.648 L34.1433,2.84528"/>
</g>

<g fill="none" stroke="#000000" stroke-opacity="1" stroke-width="0.5" stroke-linecap="square" stroke-linejoin="bevel" transform="matrix(1,0,0,1,0,0)"
font-family="Arial" font-size="10pt" font-weight="400" font-style="normal" 
>
<path fill-rule="evenodd" d="M34.1433,2.84528 L423.946,2.84528 L423.946,392.648 L34.1433,392.648 L34.1433,2.84528"/>
</g>

<g fill="#aaff7f" fill-opacity="1" stroke="#000000" stroke-opacity="1" stroke-dasharray="0.5,1" stroke-dashoffset="0" stroke-width="0.5" stroke-linecap="square" stroke-linejoin="bevel" transform="matrix(1,0,0,1,0,0)"
font-family="Arial" font-size="10pt" font-weight="400" font-style="normal" 
>
</g>

<g fill="#aaff7f" fill-opacity="1" stroke="#000000" stroke-opacity="1" stroke-dasharray="0.5,1" stroke-dashoffset="0" stroke-width="0.5" stroke-linecap="square" stroke-linejoin="bevel" transform="matrix(1,0,0,1,229.045,45.7236)"
font-family="Arial" font-size="10pt" font-weight="400" font-style="normal" 
>
<path fill-rule="evenodd" d="M-97.4507,-19.4901 L97.4507,-19.4901 L97.4507,19.4901 L-97.4507,19.4901 L-97.4507,-19.4901"/>
</g>

<g fill="#aaff7f" fill-opacity="1" stroke="#000000" stroke-opacity="1" stroke-dasharray="0.5,1" stroke-dashoffset="0" stroke-width="0.5" stroke-linecap="square" stroke-linejoin="bevel" transform="matrix(1,0,0,1,0,0)"
font-family="Arial" font-size="10pt" font-weight="400" font-style="normal" 
>
</g>

<g fill="none" stroke="#000000" stroke-opacity="1" stroke-width="0.5" stroke-linecap="square" stroke-linejoin="bevel" transform="matrix(1,0,0,1,0,0)"
font-family="Arial" font-size="10pt" font-weight="400" font-style="normal" 
>
</g>

<g fill="#0000ff" fill-opacity="1" stroke="#0000ff" stroke-opacity="1" stroke-width="0.5" stroke-linecap="square" stroke-linejoin="bevel" transform="matrix(1,0,0,1,0,0)"
font-family="Arial" font-size="10pt" font-weight="400" font-style="normal" 
>
</g>

<g fill="#0000ff" fill-opacity="1" stroke="#0000ff" stroke-opacity="1" stroke-width="0.5" stroke-linecap="square" stroke-linejoin="bevel" transform="matrix(-0.00822667,0.999966,-0.999966,-0.00822667,192.202,80.8058)"
font-family="Arial" font-size="10pt" font-weight="400" font-style="normal" 
>
<polyline fill="none" points="0,0 77.9606,0 " />
</g>

<g fill="#0000ff" fill-opacity="1" stroke="#0000ff" stroke-opacity="1" stroke-width="0.5" stroke-linecap="square" stroke-linejoin="bevel" transform="matrix(-0.00822667,0.999966,-0.999966,-0.00822667,191.561,158.764)"
font-family="Arial" font-size="10pt" font-weight="400" font-style="normal" 
>
<path fill-rule="evenodd" d="M5,0 C5,2.76142 2.76142,5 0,5 C-2.76142,5 -5,2.76142 -5,0 C-5,-2.76142 -2.76142,-5 0,-5 C2.76142,-5 5,-2.76142 5,0 "/>
</g>

<g fill="#0000ff" fill-opacity="1" stroke="#0000ff" stroke-opacity="1" stroke-width="0.5" stroke-linecap="square" stroke-linejoin="bevel" transform="matrix(-0.00822667,0.999966,-0.999966,-0.00822667,192.202,80.8058)"
font-family="Arial" font-size="10pt" font-weight="400" font-style="normal" 
>
</g>

<g fill="#0000ff" fill-opacity="1" stroke="#0000ff" stroke-opacity="1" stroke-width="0.5" stroke-linecap="square" stroke-linejoin="bevel" transform="matrix(0.00822667,-0.999966,-0.999966,-0.00822667,192.202,80.8058)"
font-family="Arial" font-size="10pt" font-weight="400" font-style="normal" 
>
</g>

<g fill="#0000ff" fill-opacity="1" stroke="#0000ff" stroke-opacity="1" stroke-width="0.5" stroke-linecap="square" stroke-linejoin="bevel" transform="matrix(0.00822667,-0.999966,-0.999966,-0.00822667,192.202,80.8058)"
font-family="Arial" font-size="10pt" font-weight="400" font-style="normal" 
>
<path fill-rule="evenodd" d="M0,0 L9,5 L7,0 L9,-5 L0,0"/>
</g>

<g fill="#0000ff" fill-opacity="1" stroke="#0000ff" stroke-opacity="1" stroke-width="0.5" stroke-linecap="square" stroke-linejoin="bevel" transform="matrix(0.00822667,-0.999966,-0.999966,-0.00822667,192.202,80.8058)"
font-family="Arial" font-size="10pt" font-weight="400" font-style="normal" 
>
</g>

<g fill="#0000ff" fill-opacity="1" stroke="#0000ff" stroke-opacity="1" stroke-width="0.5" stroke-linecap="square" stroke-linejoin="bevel" transform="matrix(1,0,0,1,0,0)"
font-family="Arial" font-size="10pt" font-weight="400" font-style="normal" 
>
</g>

<g fill="none" stroke="#000000" stroke-opacity="1" stroke-width="0.5" stroke-linecap="square" stroke-linejoin="bevel" transform="matrix(1,0,0,1,0,0)"
font-family="Arial" font-size="10pt" font-weight="400" font-style="normal" 
>
</g>

<g fill="none" stroke="#000000" stroke-opacity="1" stroke-width="0.5" stroke-linecap="square" stroke-linejoin="bevel" transform="matrix(1,0,0,1,0,0)"
font-family="Arial" font-size="10pt" font-weight="400" font-style="normal" 
>
</g>

<g fill="#008000" fill-opacity="1" stroke="none" transform="matrix(1,0,0,1,0,0)"
font-family="Arial" font-size="10pt" font-weight="400" font-style="normal" 
>
<path fill-rule="evenodd" d="M34.1433,392.648 L34.1433,262.714 L41.9394,262.61 L49.7354,262.298 L57.5315,261.778 L65.3275,261.051 L73.1236,260.115 L80.9196,258.972 L88.7157,257.62 L96.5117,256.061 L104.308,254.294 L112.104,252.319 L119.9,250.136 L127.696,247.745 L135.492,245.147 L143.288,242.34 L151.084,239.326 L158.88,236.103 L166.676,232.673 L174.472,229.035 L182.268,225.189 L190.064,221.135 L197.86,216.873 L205.657,212.403 L213.453,207.726 L221.249,202.84 L229.045,197.747 L236.841,192.445 L244.637,186.936 L252.433,181.219 L260.229,175.294 L268.025,169.161 L275.821,162.82 L283.617,156.272 L291.413,149.515 L299.209,142.551 L307.005,135.378 L314.801,127.998 L322.597,120.41 L330.393,112.614 L338.189,104.61 L345.986,96.3979 L353.782,87.9782 L361.578,79.3506 L369.374,70.515 L377.17,61.4716 L384.966,52.2203 L392.762,42.7611 L400.558,33.094 L408.354,23.219 L416.15,13.1361 L423.946,2.84528 L423.946,392.648 L34.1433,392.648"/>
</g>

<g fill="#008000" fill-opacity="1" stroke="none" transform="matrix(1,0,0,1,0,0)"
font-family="Arial" font-size="10pt" font-weight="400" font-style="normal" 
>
</g>

<g fill="#008000" fill-opacity="1" stroke="none" transform="matrix(1,0,0,1,0,0)"
font-family="Arial" font-size="10pt" font-weight="400" font-style="normal" 
>
</g>

<g fill="none" stroke="#000000" stroke-opacity="1" stroke-width="0.5" stroke-linecap="square" stroke-linejoin="bevel" transform="matrix(1,0,0,1,0,0)"
font-family="Arial" font-size="10pt" font-weight="400" font-style="normal" 
>
</g>

<g fill="none" stroke="#000000" stroke-opacity="1" vector-effect="non-scaling-stroke" stroke-width="1" stroke-linecap="square" stroke-linejoin="bevel" transform="matrix(1,0,0,1,0,0)"
font-family="Times New Roman" font-size="30pt" font-weight="400" font-style="normal" 
>
<text fill="#000000" fill-opacity="1" stroke="none" x="152.031" y="51.8256" font-family="Times New Roman" font-size="30pt" font-weight="400" font-style="normal" 
 >Some shapes</text>
</g>

<g fill="none" stroke="#000000" stroke-opacity="1" stroke-width="0.5" stroke-linecap="square" stroke-linejoin="bevel" transform="matrix(1,0,0,1,0,0)"
font-family="Arial" font-size="10pt" font-weight="400" font-style="normal" 
>
</g>

<g fill="none" stroke="#000000" stroke-opacity="1" vector-effect="non-scaling-stroke" stroke-width="1" stroke-linecap="square" stroke-linejoin="bevel" transform="matrix(1,0,0,1,0,0)"
font-family="Times New Roman" font-size="20pt" font-weight="400" font-style="normal" 
>
<text fill="#000000" fill-opacity="1" stroke="none" x="137.188" y="268.582" font-family="Times New Roman" font-size="20pt" font-weight="400" font-style="normal" 
 >α</text>
</g>

<g fill="none" stroke="#000000" stroke-opacity="1" stroke-width="0.5" stroke-linecap="square" stroke-linejoin="bevel" transform="matrix(1,0,0,1,0,0)"
font-family="Arial" font-size="10pt" font-weight="400" font-style="normal" 
>
</g>

<g fill="none" stroke="#000000" stroke-opacity="1" stroke-width="0.5" stroke-linecap="square" stroke-linejoin="bevel" transform="matrix(1,0,0,1,0,0)"
font-family="Arial" font-size="10pt" font-weight="400" font-style="normal" 
>
<polyline fill="none" points="73.1236,353.668 112.104,340.674 229.045,262.714 229.045,197.747 " />
</g>

<g fill="#ff0000" fill-opacity="1" stroke="#000000" stroke-opacity="1" stroke-width="0.5" stroke-linecap="square" stroke-linejoin="bevel" transform="matrix(1,0,0,1,0,0)"
font-family="Arial" font-size="10pt" font-weight="400" font-style="normal" 
>
</g>

<g fill="#ff0000" fill-opacity="1" stroke="#000000" stroke-opacity="1" stroke-width="0.5" stroke-linecap="square" stroke-linejoin="bevel" transform="matrix(1,0,0,1,73.1236,353.668)"
font-family="Arial" font-size="10pt" font-weight="400" font-style="normal" 
>
<path fill-rule="evenodd" d="M0,7.07 L7.07,0 L0,-7.07 L-7.07,0 L0,7.07 M0,3.535 L3.535,0 L0,-3.535 L-3.535,0 L0,3.535"/>
</g>

<g fill="#ff0000" fill-opacity="1" stroke="#000000" stroke-opacity="1" stroke-width="0.5" stroke-linecap="square" stroke-linejoin="bevel" transform="matrix(1,0,0,1,112.104,340.674)"
font-family="Arial" font-size="10pt" font-weight="400" font-style="normal" 
>
<path fill-rule="evenodd" d="M0,7.07 L7.07,0 L0,-7.07 L-7.07,0 L0,7.07 M0,3.535 L3.535,0 L0,-3.535 L-3.535,0 L0,3.535"/>
</g>

<g fill="#ff0000" fill-opacity="1" stroke="#000000" stroke-opacity="1" stroke-width="0.5" stroke-linecap="square" stroke-linejoin="bevel" transform="matrix(1,0,0,1,229.045,262.714)"
font-family="Arial" font-size="10pt" font-weight="400" font-style="normal" 
>
<path fill-rule="evenodd" d="M0,7.07 L7.07,0 L0,-7.07 L-7.07,0 L0,7.07 M0,3.535 L3.535,0 L0,-3.535 L-3.535,0 L0,3.535"/>
</g>

<g fill="#ff0000" fill-opacity="1" stroke="#000000" stroke-opacity="1" stroke-width="0.5" stroke-linecap="square" stroke-linejoin="bevel" transform="matrix(1,0,0,1,229.045,197.747)"
font-family="Arial" font-size="10pt" font-weight="400" font-style="normal" 
>
<path fill-rule="evenodd" d="M0,7.07 L7.07,0 L0,-7.07 L-7.07,0 L0,7.07 M0,3.535 L3.535,0 L0,-3.535 L-3.535,0 L0,3.535"/>
</g>

<g fill="#ff0000" fill-opacity="1" stroke="#000000" stroke-opacity="1" stroke-width="0.5" stroke-linecap="square" stroke-linejoin="bevel" transform="matrix(1,0,0,1,0,0)"
font-family="Arial" font-size="10pt" font-weight="400" font-style="normal" 
>
</g>

<g fill="#ff0000" fill-opacity="1" stroke="#000000" stroke-opacity="1" stroke-width="0.5" stroke-linecap="square" stroke-linejoin="bevel" transform="matrix(1,0,0,1,0,0)"
font-family="Arial" font-size="10pt" font-weight="400" font-style="normal" 
>
</g>

<g fill="#ff0000" fill-opacity="1" stroke="#000000" stroke-opacity="1" stroke-width="0.5" stroke-linecap="square" stroke-linejoin="bevel" transform="matrix(1,0,0,1,0,0)"
font-family="Arial" font-size="10pt" font-weight="400" font-style="normal" 
>
</g>

<g fill="none" stroke="#000000" stroke-opacity="1" stroke-width="0.5" stroke-linecap="square" stroke-linejoin="bevel" transform="matrix(1,0,0,1,0,0)"
font-family="Arial" font-size="10pt" font-weight="400" font-style="normal" 
>
</g>

<g fill="#0000ff" fill-opacity="0.500008" stroke="#000000" stroke-opacity="1" stroke-width="0.5" stroke-linecap="square" stroke-linejoin="bevel" transform="matrix(1,0,0,1,0,0)"
font-family="Arial" font-size="10pt" font-weight="400" font-style="normal" 
>
</g>

<g fill="#0000ff" fill-opacity="0.500008" stroke="#000000" stroke-opacity="1" stroke-width="0.5" stroke-linecap="square" stroke-linejoin="bevel" transform="matrix(1,0,0,1,327.903,114.457)"
font-family="Arial" font-size="10pt" font-weight="400" font-style="normal" 
>
<path fill-rule="evenodd" d="M19.4901,0 C19.4901,10.7641 10.7641,19.4901 0,19.4901 C-10.7641,19.4901 -19.4901,10.7641 -19.4901,0 C-19.4901,-10.7641 -10.7641,-19.4901 0,-19.4901 C10.7641,-19.4901 19.4901,-10.7641 19.4901,0 "/>
</g>

<g fill="#0000ff" fill-opacity="0.500008" stroke="#000000" stroke-opacity="1" stroke-width="0.5" stroke-linecap="square" stroke-linejoin="bevel" transform="matrix(1,0,0,1,0,0)"
font-family="Arial" font-size="10pt" font-weight="400" font-style="normal" 
>
</g>

<g fill="none" stroke="#000000" stroke-opacity="1" stroke-width="0.5" stroke-linecap="square" stroke-linejoin="bevel" transform="matrix(1,0,0,1,0,0)"
font-family="Arial" font-size="10pt" font-weight="400" font-style="normal" 
>
</g>

<g fill="#000000" fill-opacity="1" stroke="#000000" stroke-opacity="1" stroke-width="0.5" stroke-linecap="square" stroke-linejoin="bevel" transform="matrix(1,0,0,1,0,0)"
font-family="Arial" font-size="10pt" font-weight="400" font-style="normal" 
>
</g>

<g fill="#000000" fill-opacity="1" stroke="#000000" stroke-opacity="1" stroke-width="0.5" stroke-linecap="square" stroke-linejoin="bevel" transform="matrix(0.707107,-0.707107,0.707107,0.707107,99.0504,324.627)"
font-family="Arial" font-size="10pt" font-weight="400" font-style="normal" 
>
<polyline fill="none" points="0,0 128.883,0 " />
</g>

<g fill="#000000" fill-opacity="1" stroke="#000000" stroke-opacity="1" stroke-width="0.5" stroke-linecap="square" stroke-linejoin="bevel" transform="matrix(0.707107,-0.707107,0.707107,0.707107,190.184,233.494)"
font-family="Arial" font-size="10pt" font-weight="400" font-style="normal" 
>
<path fill-rule="evenodd" d="M0,0 L-9,5 L-7,0 L-9,-5 L0,0"/>
</g>

<g fill="#000000" fill-opacity="1" stroke="#000000" stroke-opacity="1" stroke-width="0.5" stroke-linecap="square" stroke-linejoin="bevel" transform="matrix(0.707107,-0.707107,0.707107,0.707107,99.0504,324.627)"
font-family="Arial" font-size="10pt" font-weight="400" font-style="normal" 
>
</g>

<g fill="#000000" fill-opacity="1" stroke="#000000" stroke-opacity="1" stroke-width="0.5" stroke-linecap="square" stroke-linejoin="bevel" transform="matrix(-0.707107,0.707107,0.707107,0.707107,99.0504,324.627)"
font-family="Arial" font-size="10pt" font-weight="400" font-style="normal" 
>
</g>

<g fill="#000000" fill-opacity="1" stroke="#000000" stroke-opacity="1" stroke-width="0.5" stroke-linecap="square" stroke-linejoin="bevel" transform="matrix(-0.707107,0.707107,0.707107,0.707107,99.0504,324.627)"
font-family="Arial" font-size="10pt" font-weight="400" font-style="normal" 
>
<path fill-rule="evenodd" d="M0,0 L-9,5 L-7,0 L-9,-5 L0,0"/>
</g>

<g fill="#000000" fill-opacity="1" stroke="#000000" stroke-opacity="1" stroke-width="0.5" stroke-linecap="square" stroke-linejoin="bevel" transform="matrix(-0.707107,0.707107,0.707107,0.707107,99.0504,324.627)"
font-family="Arial" font-size="10pt" font-weight="400" font-style="normal" 
>
</g>

<g fill="#000000" fill-opacity="1" stroke="#000000" stroke-opacity="1" stroke-width="0.5" stroke-linecap="square" stroke-linejoin="bevel" transform="matrix(1,0,0,1,0,0)"
font-family="Arial" font-size="10pt" font-weight="400" font-style="normal" 
>
</g>

<g fill="none" stroke="#000000" stroke-opacity="1" stroke-width="0.5" stroke-linecap="square" stroke-linejoin="bevel" transform="matrix(1,0,0,1,0,0)"
font-family="Arial" font-size="10pt" font-weight="400" font-style="normal" 
>
</g>

<g fill="#ffffff" fill-opacity="0.500008" stroke="#000000" stroke-opacity="1" stroke-width="0.5" stroke-linecap="square" stroke-linejoin="bevel" transform="matrix(1,0,0,1,0,0)"
font-family="Arial" font-size="10pt" font-weight="400" font-style="normal" 
>
</g>

<g fill="#ffffff" fill-opacity="0.500008" stroke="#000000" stroke-opacity="1" stroke-width="0.5" stroke-linecap="square" stroke-linejoin="bevel" transform="matrix(0.707107,0.707107,-0.707107,0.707107,73.1236,353.668)"
font-family="Arial" font-size="10pt" font-weight="400" font-style="normal" 
>
<path fill-rule="evenodd" d="M-19.4901,-19.4901 L19.4901,-19.4901 L19.4901,19.4901 L-19.4901,19.4901 L-19.4901,-19.4901"/>
</g>

<g fill="#ffffff" fill-opacity="0.500008" stroke="#000000" stroke-opacity="1" stroke-width="0.5" stroke-linecap="square" stroke-linejoin="bevel" transform="matrix(1,0,0,1,0,0)"
font-family="Arial" font-size="10pt" font-weight="400" font-style="normal" 
>
</g>

<g fill="#ffffff" fill-opacity="0.500008" stroke="#000000" stroke-opacity="1" stroke-width="0.5" stroke-linecap="square" stroke-linejoin="bevel" transform="matrix(0.707107,0.707107,-0.707107,0.707107,229.045,197.747)"
font-family="Arial" font-size="10pt" font-weight="400" font-style="normal" 
>
<path fill-rule="evenodd" d="M-38.9803,-38.9803 L38.9803,-38.9803 L38.9803,38.9803 L-38.9803,38.9803 L-38.9803,-38.9803"/>
</g>

<g fill="#ffffff" fill-opacity="0.500008" stroke="#000000" stroke-opacity="1" stroke-width="0.5" stroke-linecap="square" stroke-linejoin="bevel" transform="matrix(1,0,0,1,0,0)"
font-family="Arial" font-size="10pt" font-weight="400" font-style="normal" 
>
</g>

<g fill="none" stroke="#000000" stroke-opacity="1" stroke-width="0.5" stroke-linecap="square" stroke-linejoin="bevel" transform="matrix(1,0,0,1,0,0)"
font-family="Arial" font-size="10pt" font-weight="400" font-style="normal" 
>
<polyline fill="none" points="34.1433,392.648 34.1433,2.84528 " />
<polyline fill="none" points="34.1433,392.648 37.1433,392.648 " />
<polyline fill="none" points="34.1433,366.661 37.1433,366.661 " />
<polyline fill="none" points="34.1433,340.674 37.1433,340.674 " />
<polyline fill="none" points="34.1433,314.687 37.1433,314.687 " />
<polyline fill="none" points="34.1433,288.701 37.1433,288.701 " />
<polyline fill="none" points="34.1433,262.714 37.1433,262.714 " />
<polyline fill="none" points="34.1433,236.727 37.1433,236.727 " />
<polyline fill="none" points="34.1433,210.74 37.1433,210.74 " />
<polyline fill="none" points="34.1433,184.753 37.1433,184.753 " />
<polyline fill="none" points="34.1433,158.766 37.1433,158.766 " />
<polyline fill="none" points="34.1433,132.78 37.1433,132.78 " />
<polyline fill="none" points="34.1433,106.793 37.1433,106.793 " />
<polyline fill="none" points="34.1433,80.8058 37.1433,80.8058 " />
<polyline fill="none" points="34.1433,54.819 37.1433,54.819 " />
<polyline fill="none" points="34.1433,28.8321 37.1433,28.8321 " />
<polyline fill="none" points="34.1433,2.84528 37.1433,2.84528 " />
<polyline fill="none" points="34.1433,392.648 40.1433,392.648 " />
<polyline fill="none" points="34.1433,262.714 40.1433,262.714 " />
<polyline fill="none" points="34.1433,132.78 40.1433,132.78 " />
<polyline fill="none" points="34.1433,2.84528 40.1433,2.84528 " />
</g>

<g fill="none" stroke="#000000" stroke-opacity="1" stroke-width="0.5" stroke-linecap="square" stroke-linejoin="bevel" transform="matrix(1,0,0,1,0,0)"
font-family="Times New Roman" font-size="14pt" font-weight="400" font-style="normal" 
>
<polyline fill="none" points="423.946,392.648 423.946,2.84528 " />
<polyline fill="none" points="423.946,392.648 420.946,392.648 " />
<polyline fill="none" points="423.946,366.661 420.946,366.661 " />
<polyline fill="none" points="423.946,340.674 420.946,340.674 " />
<polyline fill="none" points="423.946,314.687 420.946,314.687 " />
<polyline fill="none" points="423.946,288.701 420.946,288.701 " />
<polyline fill="none" points="423.946,262.714 420.946,262.714 " />
<polyline fill="none" points="423.946,236.727 420.946,236.727 " />
<polyline fill="none" points="423.946,210.74 420.946,210.74 " />
<polyline fill="none" points="423.946,184.753 420.946,184.753 " />
<polyline fill="none" points="423.946,158.766 420.946,158.766 " />
<polyline fill="none" points="423.946,132.78 420.946,132.78 " />
<polyline fill="none" points="423.946,106.793 420.946,106.793 " />
<polyline fill="none" points="423.946,80.8058 420.946,80.8058 " />
<polyline fill="none" points="423.946,54.819 420.946,54.819 " />
<polyline fill="none" points="423.946,28.8321 420.946,28.8321 " />
<polyline fill="none" points="423.946,2.84528 420.946,2.84528 " />
<polyline fill="none" points="423.946,392.648 417.946,392.648 " />
<polyline fill="none" points="423.946,262.714 417.946,262.714 " />
<polyline fill="none" points="423.946,132.78 417.946,132.78 " />
<polyline fill="none" points="423.946,2.84528 417.946,2.84528 " />
</g>

<g fill="none" stroke="#000000" stroke-opacity="1" vector-effect="non-scaling-stroke" stroke-width="1" stroke-linecap="square" stroke-linejoin="bevel" transform="matrix(1,0,0,1,0,0)"
font-family="Times New Roman" font-size="14pt" font-weight="400" font-style="normal" 
>
<text fill="#000000" fill-opacity="1" stroke="none" x="23.1406" y="393.648" font-family="Times New Roman" font-size="14pt" font-weight="400" font-style="normal" 
 >0</text>
</g>

<g fill="none" stroke="#000000" stroke-opacity="1" vector-effect="non-scaling-stroke" stroke-width="1" stroke-linecap="square" stroke-linejoin="bevel" transform="matrix(1,0,0,1,0,0)"
font-family="Times New Roman" font-size="14pt" font-weight="400" font-style="normal" 
>
<text fill="#000000" fill-opacity="1" stroke="none" x="12.1406" y="267.714" font-family="Times New Roman" font-size="14pt" font-weight="400" font-style="normal" 
 >0.5</text>
</g>

<g fill="none" stroke="#000000" stroke-opacity="1" vector-effect="non-scaling-stroke" stroke-width="1" stroke-linecap="square" stroke-linejoin="bevel" transform="matrix(1,0,0,1,0,0)"
font-family="Times New Roman" font-size="14pt" font-weight="400" font-style="normal" 
>
<text fill="#000000" fill-opacity="1" stroke="none" x="23.1406" y="137.78" font-family="Times New Roman" font-size="14pt" font-weight="400" font-style="normal" 
 >1</text>
</g>

<g fill="none" stroke="#000000" stroke-opacity="1" vector-effect="non-scaling-stroke" stroke-width="1" stroke-linecap="square" stroke-linejoin="bevel" transform="matrix(1,0,0,1,0,0)"
font-family="Times New Roman" font-size="14pt" font-weight="400" font-style="normal" 
>
<text fill="#000000" fill-opacity="1" stroke="none" x="12.1406" y="11.8453" font-family="Times New Roman" font-size="14pt" font-weight="400" font-style="normal" 
 >1.5</text>
</g>

<g fill="none" stroke="#000000" stroke-opacity="1" stroke-width="0.5" stroke-linecap="square" stroke-linejoin="bevel" transform="matrix(1,0,0,1,0,0)"
font-family="Arial" font-size="10pt" font-weight="400" font-style="normal" 
>
<polyline fill="none" points="34.1433,392.648 423.946,392.648 " />
<polyline fill="none" points="34.1433,392.648 34.1433,389.648 " />
<polyline fill="none" points="53.6334,392.648 53.6334,389.648 " />
<polyline fill="none" points="73.1236,392.648 73.1236,389.648 " />
<polyline fill="none" points="92.6137,392.648 92.6137,389.648 " />
<polyline fill="none" points="112.104,392.648 112.104,389.648 " />
<polyline fill="none" points="131.594,392.648 131.594,389.648 " />
<polyline fill="none" points="151.084,392.648 151.084,389.648 " />
<polyline fill="none" points="170.574,392.648 170.574,389.648 " />
<polyline fill="none" points="190.064,392.648 190.064,389.648 " />
<polyline fill="none" points="209.555,392.648 209.555,389.648 " />
<polyline fill="none" points="229.045,392.648 229.045,389.648 " />
<polyline fill="none" points="248.535,392.648 248.535,389.648 " />
<polyline fill="none" points="268.025,392.648 268.025,389.648 " />
<polyline fill="none" points="287.515,392.648 287.515,389.648 " />
<polyline fill="none" points="307.005,392.648 307.005,389.648 " />
<polyline fill="none" points="326.495,392.648 326.495,389.648 " />
<polyline fill="none" points="345.986,392.648 345.986,389.648 " />
<polyline fill="none" points="365.476,392.648 365.476,389.648 " />
<polyline fill="none" points="384.966,392.648 384.966,389.648 " />
<polyline fill="none" points="404.456,392.648 404.456,389.648 " />
<polyline fill="none" points="423.946,392.648 423.946,389.648 " />
<polyline fill="none" points="34.1433,392.648 34.1433,386.648 " />
<polyline fill="none" points="131.594,392.648 131.594,386.648 " />
<polyline fill="none" points="229.045,392.648 229.045,386.648 " />
<polyline fill="none" points="326.495,392.648 326.495,386.648 " />
<polyline fill="none" points="423.946,392.648 423.946,386.648 " />
</g>

<g fill="none" stroke="#000000" stroke-opacity="1" stroke-width="0.5" stroke-linecap="square" stroke-linejoin="bevel" transform="matrix(1,0,0,1,0,0)"
font-family="Times New Roman" font-size="14pt" font-weight="400" font-style="normal" 
>
<polyline fill="none" points="34.1433,2.84528 423.946,2.84528 " />
<polyline fill="none" points="34.1433,2.84528 34.1433,5.84528 " />
<polyline fill="none" points="53.6334,2.84528 53.6334,5.84528 " />
<polyline fill="none" points="73.1236,2.84528 73.1236,5.84528 " />
<polyline fill="none" points="92.6137,2.84528 92.6137,5.84528 " />
<polyline fill="none" points="112.104,2.84528 112.104,5.84528 " />
<polyline fill="none" points="131.594,2.84528 131.594,5.84528 " />
<polyline fill="none" points="151.084,2.84528 151.084,5.84528 " />
<polyline fill="none" points="170.574,2.84528 170.574,5.84528 " />
<polyline fill="none" points="190.064,2.84528 190.064,5.84528 " />
<polyline fill="none" points="209.555,2.84528 209.555,5.84528 " />
<polyline fill="none" points="229.045,2.84528 229.045,5.84528 " />
<polyline fill="none" points="248.535,2.84528 248.535,5.84528 " />
<polyline fill="none" points="268.025,2.84528 268.025,5.84528 " />
<polyline fill="none" points="287.515,2.84528 287.515,5.84528 " />
<polyline fill="none" points="307.005,2.84528 307.005,5.84528 " />
<polyline fill="none" points="326.495,2.84528 326.495,5.84528 " />
<polyline fill="none" points="345.986,2.84528 345.986,5.84528 " />
<polyline fill="none" points="365.476,2.84528 365.476,5.84528 " />
<polyline fill="none" points="384.966,2.84528 384.966,5.84528 " />
<polyline fill="none" points="404.456,2.84528 404.456,5.84528 " />
<polyline fill="none" points="423.946,2.84528 423.946,5.84528 " />
<polyline fill="none" points="34.1433,2.84528 34.1433,8.84528 " />
<polyline fill="none" points="131.594,2.84528 131.594,8.84528 " />
<polyline fill="none" points="229.045,2.84528 229.045,8.84528 " />
<polyline fill="none" points="326.495,2.84528 326.495,8.84528 " />
<polyline fill="none" points="423.946,2.84528 423.946,8.84528 " />
</g>

<g fill="none" stroke="#000000" stroke-opacity="1" vector-effect="non-scaling-stroke" stroke-width="1" stroke-linecap="square" stroke-linejoin="bevel" transform="matrix(1,0,0,1,0,0)"
font-family="Times New Roman" font-size="14pt" font-weight="400" font-style="normal" 
>
<text fill="#000000" fill-opacity="1" stroke="none" x="33.1406" y="409.648" font-family="Times New Roman" font-size="14pt" font-weight="400" font-style="normal" 
 >0</text>
</g>

<g fill="none" stroke="#000000" stroke-opacity="1" vector-effect="non-scaling-stroke" stroke-width="1" stroke-linecap="square" stroke-linejoin="bevel" transform="matrix(1,0,0,1,0,0)"
font-family="Times New Roman" font-size="14pt" font-weight="400" font-style="normal" 
>
<text fill="#000000" fill-opacity="1" stroke="none" x="119.094" y="409.648" font-family="Times New Roman" font-size="14pt" font-weight="400" font-style="normal" 
 >0.25</text>
</g>

<g fill="none" stroke="#000000" stroke-opacity="1" vector-effect="non-scaling-stroke" stroke-width="1" stroke-linecap="square" stroke-linejoin="bevel" transform="matrix(1,0,0,1,0,0)"
font-family="Times New Roman" font-size="14pt" font-weight="400" font-style="normal" 
>
<text fill="#000000" fill-opacity="1" stroke="none" x="220.031" y="409.648" font-family="Times New Roman" font-size="14pt" font-weight="400" font-style="normal" 
 >0.5</text>
</g>

<g fill="none" stroke="#000000" stroke-opacity="1" vector-effect="non-scaling-stroke" stroke-width="1" stroke-linecap="square" stroke-linejoin="bevel" transform="matrix(1,0,0,1,0,0)"
font-family="Times New Roman" font-size="14pt" font-weight="400" font-style="normal" 
>
<text fill="#000000" fill-opacity="1" stroke="none" x="313.984" y="409.648" font-family="Times New Roman" font-size="14pt" font-weight="400" font-style="normal" 
 >0.75</text>
</g>

<g fill="none" stroke="#000000" stroke-opacity="1" vector-effect="non-scaling-stroke" stroke-width="1" stroke-linecap="square" stroke-linejoin="bevel" transform="matrix(1,0,0,1,0,0)"
font-family="Times New Roman" font-size="14pt" font-weight="400" font-style="normal" 
>
<text fill="#000000" fill-opacity="1" stroke="none" x="417.938" y="409.648" font-family="Times New Roman" font-size="14pt" font-weight="400" font-style="normal" 
 >1</text>
</g>

<g fill="none" stroke="#000000" stroke-opacity="1" stroke-width="0.5" stroke-linecap="square" stroke-linejoin="bevel" transform="matrix(1,0,0,1,0,0)"
font-family="Arial" font-size="10pt" font-weight="400" font-style="normal" 
>
</g>

<g fill="none" stroke="#000000" stroke-opacity="1" vector-effect="non-scaling-stroke" stroke-width="1" stroke-linecap="square" stroke-linejoin="bevel" transform="matrix(1,0,0,1,0,0)"
font-family="Arial" font-size="10pt" font-weight="400" font-style="normal" 
>
</g>
</g>
</svg>
