<?xml version="1.0" encoding="UTF-8" standalone="no"?>
<!-- Created with Inkscape (http://www.inkscape.org/) -->

<svg
   width="16"
   height="16"
   id="svg2"
   sodipodi:version="0.32"
   inkscape:version="1.2.2 (b0a8486541, 2022-12-01)"
   version="1.0"
   sodipodi:docname="button_label.svg"
   inkscape:output_extension="org.inkscape.output.svg.inkscape"
   xmlns:inkscape="http://www.inkscape.org/namespaces/inkscape"
   xmlns:sodipodi="http://sodipodi.sourceforge.net/DTD/sodipodi-0.dtd"
   xmlns="http://www.w3.org/2000/svg"
   xmlns:svg="http://www.w3.org/2000/svg"
   xmlns:rdf="http://www.w3.org/1999/02/22-rdf-syntax-ns#"
   xmlns:cc="http://creativecommons.org/ns#"
   xmlns:dc="http://purl.org/dc/elements/1.1/">
  <defs
     id="defs8" />
  <sodipodi:namedview
     id="base"
     pagecolor="#ffffff"
     bordercolor="#666666"
     borderopacity="1.0"
     gridtolerance="10000"
     guidetolerance="10"
     objecttolerance="10"
     inkscape:pageopacity="0.0"
     inkscape:pageshadow="2"
     inkscape:zoom="29.125"
     inkscape:cx="-0.36051502"
     inkscape:cy="5.4077253"
     inkscape:document-units="px"
     inkscape:current-layer="layer1"
     showgrid="false"
     inkscape:window-width="1920"
     inkscape:window-height="1012"
     inkscape:window-x="0"
     inkscape:window-y="0"
     showguides="true"
     inkscape:guide-bbox="true"
     inkscape:showpageshadow="2"
     inkscape:pagecheckerboard="true"
     inkscape:deskcolor="#d1d1d1"
     inkscape:window-maximized="1" />
  <metadata
     id="metadata7">
    <rdf:RDF>
      <cc:Work
         rdf:about="">
        <dc:format>image/svg+xml</dc:format>
        <dc:type
           rdf:resource="http://purl.org/dc/dcmitype/StillImage" />
        <dc:creator>
          <cc:Agent>
            <dc:title>Jeremy Sanders</dc:title>
          </cc:Agent>
        </dc:creator>
        <dc:rights>
          <cc:Agent>
            <dc:title>Copyright (C) Jeremy Sanders</dc:title>
          </cc:Agent>
        </dc:rights>
        <cc:license
           rdf:resource="http://creativecommons.org/licenses/GPL/2.0/" />
      </cc:Work>
    </rdf:RDF>
  </metadata>
  <g
     inkscape:label="Layer 1"
     inkscape:groupmode="layer"
     id="layer1">
    <path
       style="font-style:italic;font-variant:normal;font-weight:normal;font-stretch:normal;font-size:13px;font-family:'Times New Roman';-inkscape-font-specification:'Times New Roman Italic';fill:none;fill-opacity:1;stroke:#ffffff;stroke-width:1.5;stroke-linecap:butt;stroke-linejoin:miter;stroke-opacity:1;stroke-dasharray:none"
       d="m 12.526812,1.6676763 -1.347503,5.3320151 c 0.437764,-0.5144188 0.818531,-0.8667996 1.142299,-1.0571434 0.328321,-0.1903303 0.670327,-0.2854989 1.026017,-0.2855058 0.501603,6.9e-6 0.912008,0.1877718 1.231219,0.5632954 0.319199,0.3755362 0.478802,0.8848164 0.478808,1.5278421 -6e-6,0.8282284 -0.209769,1.6538797 -0.62929,2.4769553 -0.419532,0.817936 -0.94622,1.455823 -1.580065,1.913659 -0.633854,0.45784 -1.258584,0.686759 -1.874191,0.686759 -0.688573,0 -1.3953839,-0.290651 -2.1204336,-0.871952 L 10.933066,3.8745595 c 0.1596,-0.6224447 0.2394,-0.9876862 0.239404,-1.0957253 C 11.172466,2.6450938 11.13598,2.544781 11.063028,2.4778957 10.958143,2.3853097 10.803101,2.3390113 10.5979,2.339001 10.50214,2.3390113 10.356215,2.357016 10.160132,2.393016 V 2.0997934 l 2.36668,-0.4321171 M 9.8796878,12.038482 c 0.4560052,0.282933 0.8572912,0.424401 1.2038602,0.424401 0.401284,0 0.81625,-0.164616 1.2449,-0.493849 0.433203,-0.334374 0.807129,-0.895097 1.121778,-1.682169 0.3192,-0.787065 0.478803,-1.5818508 0.478808,-2.3843577 -5e-6,-0.4732659 -0.104888,-0.8436515 -0.314644,-1.1111579 -0.20521,-0.267495 -0.449173,-0.4012454 -0.731893,-0.4012516 -0.42409,6.2e-6 -0.839058,0.1929154 -1.2449,0.5787281 -0.40585,0.3806798 -0.695413,0.9131091 -0.868694,1.5972896 L 9.8796878,12.038482"
       id="path12750-7" />
    <path
       style="font-style:italic;font-variant:normal;font-weight:normal;font-stretch:normal;font-size:13px;font-family:'Times New Roman';-inkscape-font-specification:'Times New Roman Italic';fill:none;fill-opacity:1;stroke:#ffffff;stroke-width:1.5;stroke-linecap:butt;stroke-linejoin:miter;stroke-dasharray:none;stroke-opacity:1"
       d="m 8.911749,5.6570422 -1.3338218,5.2317008 -0.1504823,0.70219 c -0.013685,0.06688 -0.020525,0.123463 -0.02052,0.16976 -5e-6,0.0823 0.022796,0.154328 0.068401,0.216058 0.036476,0.04629 0.082076,0.06945 0.1368022,0.06945 0.059275,10e-7 0.1367967,-0.04115 0.2325637,-0.123462 0.1778373,-0.149182 0.4149609,-0.457835 0.7113717,-0.925963 l 0.2325638,0.185193 c -0.3146513,0.535003 -0.6384162,0.943969 -0.9712959,1.226903 -0.3328904,0.277789 -0.6406951,0.416685 -0.9234149,0.416685 -0.1960875,0 -0.3442898,-0.05659 -0.4446072,-0.169761 -0.095766,-0.10803 -0.1436463,-0.267502 -0.1436424,-0.478415 -3.9e-6,-0.252067 0.050157,-0.583872 0.1504825,-0.995412 l 0.1436423,-0.578728 c -0.5973733,0.879667 -1.1468618,1.494404 -1.6484668,1.844212 -0.360248,0.252069 -0.7136534,0.378104 -1.0602172,0.378104 -0.3328866,0 -0.620171,-0.154327 -0.861854,-0.462983 -0.2416846,-0.313803 -0.3625265,-0.743347 -0.3625261,-1.288639 -4e-7,-0.817932 0.216603,-1.6795921 0.6498105,-2.5849834 0.4377658,-0.910527 0.9918141,-1.6384377 1.662147,-2.1837339 0.5244053,-0.4321103 1.019173,-0.6481686 1.4843041,-0.6481755 0.2781601,6.9e-6 0.5084435,0.082315 0.6908513,0.246924 0.186958,0.1646226 0.3283201,0.4372675 0.4240867,0.8179357 L 7.8241712,5.8422351 8.911749,5.6570422 M 6.4766693,6.0582937 C 6.1848209,6.0583002 5.8747361,6.2126276 5.5464143,6.5212762 5.081284,6.958543 4.6663178,7.6067179 4.3015141,8.4658026 3.9412667,9.3248956 3.7611439,10.101675 3.7611455,10.796146 c -1.6e-6,0.349811 0.077519,0.627599 0.2325637,0.833369 0.1550407,0.200626 0.3328833,0.300939 0.5335286,0.300939 0.4970453,0 1.0374136,-0.414111 1.6211063,-1.242337 C 6.9281121,9.5872522 7.3179981,8.4580905 7.318003,7.3006299 7.3179981,6.8633744 7.2427569,6.5470036 7.0922794,6.3515159 6.9417924,6.1560408 6.7365892,6.0583002 6.4766693,6.0582937"
       id="text6077-6" />
    <path
       style="fill:none;stroke:#ffffff;stroke-width:2.04148;stroke-linecap:butt;stroke-linejoin:miter;stroke-dasharray:none;stroke-opacity:1"
       d="M 1.0207397,0 V 14.97926 H 16"
       id="path251" />
    <path
       style="font-style:italic;font-variant:normal;font-weight:normal;font-stretch:normal;font-size:13px;font-family:'Times New Roman';-inkscape-font-specification:'Times New Roman Italic';fill:#2609ff;fill-opacity:1;stroke:none;stroke-width:1.25741px;stroke-linecap:butt;stroke-linejoin:miter;stroke-opacity:1"
       d="m 12.526812,1.6676763 -1.347503,5.3320151 c 0.437764,-0.5144188 0.818531,-0.8667996 1.142299,-1.0571434 0.328321,-0.1903303 0.670327,-0.2854989 1.026017,-0.2855058 0.501603,6.9e-6 0.912008,0.1877718 1.231219,0.5632954 0.319199,0.3755362 0.478802,0.8848164 0.478808,1.5278421 -6e-6,0.8282284 -0.209769,1.6538797 -0.62929,2.4769553 -0.419532,0.817936 -0.94622,1.455823 -1.580065,1.913659 -0.633854,0.45784 -1.258584,0.686759 -1.874191,0.686759 -0.688573,0 -1.3953839,-0.290651 -2.1204336,-0.871952 L 10.933066,3.8745595 c 0.1596,-0.6224447 0.2394,-0.9876862 0.239404,-1.0957253 C 11.172466,2.6450938 11.13598,2.544781 11.063028,2.4778957 10.958143,2.3853097 10.803101,2.3390113 10.5979,2.339001 10.50214,2.3390113 10.356215,2.357016 10.160132,2.393016 V 2.0997934 l 2.36668,-0.4321171 M 9.8796878,12.038482 c 0.4560052,0.282933 0.8572912,0.424401 1.2038602,0.424401 0.401284,0 0.81625,-0.164616 1.2449,-0.493849 0.433203,-0.334374 0.807129,-0.895097 1.121778,-1.682169 0.3192,-0.787065 0.478803,-1.5818508 0.478808,-2.3843577 -5e-6,-0.4732659 -0.104888,-0.8436515 -0.314644,-1.1111579 -0.20521,-0.267495 -0.449173,-0.4012454 -0.731893,-0.4012516 -0.42409,6.2e-6 -0.839058,0.1929154 -1.2449,0.5787281 -0.40585,0.3806798 -0.695413,0.9131091 -0.868694,1.5972896 L 9.8796878,12.038482"
       id="path12750" />
    <path
       style="font-style:italic;font-variant:normal;font-weight:normal;font-stretch:normal;font-size:13px;font-family:'Times New Roman';-inkscape-font-specification:'Times New Roman Italic';fill:#2609ff;fill-opacity:1;stroke:none;stroke-width:1.25741px;stroke-linecap:butt;stroke-linejoin:miter;stroke-opacity:1"
       d="m 8.911749,5.6570422 -1.3338218,5.2317008 -0.1504823,0.70219 c -0.013685,0.06688 -0.020525,0.123463 -0.02052,0.16976 -5e-6,0.0823 0.022796,0.154328 0.068401,0.216058 0.036476,0.04629 0.082076,0.06945 0.1368022,0.06945 0.059275,10e-7 0.1367967,-0.04115 0.2325637,-0.123462 0.1778373,-0.149182 0.4149609,-0.457835 0.7113717,-0.925963 l 0.2325638,0.185193 c -0.3146513,0.535003 -0.6384162,0.943969 -0.9712959,1.226903 -0.3328904,0.277789 -0.6406951,0.416685 -0.9234149,0.416685 -0.1960875,0 -0.3442898,-0.05659 -0.4446072,-0.169761 -0.095766,-0.10803 -0.1436463,-0.267502 -0.1436424,-0.478415 -3.9e-6,-0.252067 0.050157,-0.583872 0.1504825,-0.995412 l 0.1436423,-0.578728 c -0.5973733,0.879667 -1.1468618,1.494404 -1.6484668,1.844212 -0.360248,0.252069 -0.7136534,0.378104 -1.0602172,0.378104 -0.3328866,0 -0.620171,-0.154327 -0.861854,-0.462983 -0.2416846,-0.313803 -0.3625265,-0.743347 -0.3625261,-1.288639 -4e-7,-0.817932 0.216603,-1.6795921 0.6498105,-2.5849834 0.4377658,-0.910527 0.9918141,-1.6384377 1.662147,-2.1837339 0.5244053,-0.4321103 1.019173,-0.6481686 1.4843041,-0.6481755 0.2781601,6.9e-6 0.5084435,0.082315 0.6908513,0.246924 0.186958,0.1646226 0.3283201,0.4372675 0.4240867,0.8179357 L 7.8241712,5.8422351 8.911749,5.6570422 M 6.4766693,6.0582937 C 6.1848209,6.0583002 5.8747361,6.2126276 5.5464143,6.5212762 5.081284,6.958543 4.6663178,7.6067179 4.3015141,8.4658026 3.9412667,9.3248956 3.7611439,10.101675 3.7611455,10.796146 c -1.6e-6,0.349811 0.077519,0.627599 0.2325637,0.833369 0.1550407,0.200626 0.3328833,0.300939 0.5335286,0.300939 0.4970453,0 1.0374136,-0.414111 1.6211063,-1.242337 C 6.9281121,9.5872522 7.3179981,8.4580905 7.318003,7.3006299 7.3179981,6.8633744 7.2427569,6.5470036 7.0922794,6.3515159 6.9417924,6.1560408 6.7365892,6.0583002 6.4766693,6.0582937"
       id="text6077" />
    <path
       style="fill:none;fill-rule:evenodd;stroke:#000000;stroke-width:1.02711px;stroke-linecap:butt;stroke-linejoin:miter;stroke-opacity:1"
       d="M 1.013555,0.5 V 14.986443 H 15.499998"
       id="path3530"
       sodipodi:nodetypes="ccc" />
  </g>
</svg>
