<?xml version="1.0" encoding="UTF-8"?>
<svg width="16" height="16" version="1.0" xmlns="http://www.w3.org/2000/svg" xmlns:cc="http://creativecommons.org/ns#" xmlns:dc="http://purl.org/dc/elements/1.1/" xmlns:rdf="http://www.w3.org/1999/02/22-rdf-syntax-ns#">
 <metadata>
  <rdf:RDF>
   <cc:Work rdf:about="">
    <dc:format>image/svg+xml</dc:format>
    <dc:type rdf:resource="http://purl.org/dc/dcmitype/StillImage"/>
    <dc:creator>
     <cc:Agent>
      <dc:title>Jeremy Sanders</dc:title>
     </cc:Agent>
    </dc:creator>
    <dc:rights>
     <cc:Agent>
      <dc:title>Copyright (C) Jeremy Sanders</dc:title>
     </cc:Agent>
    </dc:rights>
    <cc:license rdf:resource="http://creativecommons.org/licenses/GPL/2.0/"/>
    <dc:title/>
   </cc:Work>
  </rdf:RDF>
 </metadata>
 <g>
  <rect x="1.748" y="1.6272" width="12.819" height="12.576" fill="#b0feff" fill-rule="evenodd"/>
  <g stroke-linecap="round" stroke-linejoin="round">
   <path d="m2.5584 5.1673 3.6756-0.70907-3.945 6.4785 3.3747 2.4364" fill="none" stroke="#000" stroke-width=".45487"/>
   <path d="m8.0199 8.0952 5.5851-6.4669 0.962-0.00107 0.0065 5.1805-3.1272 4.042z" fill="#2fde8c" stroke-width=".0088388"/>
   <path d="m6.9873 11.707 1.0619-3.36 1.1073 0.11095 0.36876 1.1878 1.3176 0.035712 0.34574 1.0363-3.2511 1.7904z" fill="#f8e8b0" stroke-width=".009"/>
  </g>
  <path d="m6.1099 13.686c-0.10496-0.078312-0.15926-0.25137-0.13865-0.44186 0.0097782-0.09032 1.4882-4.7212 1.6507-5.1704l0.051998-0.14376c1.7747-2.109 3.5627-4.2067 5.3594-6.297l0.60692-0.00436s-4.546 5.4395-5.3926 6.4181l-0.13443 0.15539c-0.37724 1.1675-0.7538 2.3354-1.1259 3.5044 0.00152 3e-3 0.044326 0.0098 0.095104 0.01523 0.30384 0.03233 0.62136 0.28312 0.80428 0.63527l0.057255 0.11023 0.052195-0.02767c0.2113-0.11207 3.1994-1.7415 3.2229-1.7574l0.49273-0.50674 2.8618-3.3681s0.0078-0.046864-0.0089 0.69898c-1.3875 1.7294-1.4209 1.7992-2.833 3.4731-0.68519 0.402-1.2955 0.71638-1.8618 1.0247-3.0087 1.6383-2.9021 1.5818-3.1885 1.6896-0.23288 0.08769-0.44725 0.08474-0.57135-0.0078z" stroke-width=".012224"/>
  <path d="m7.9329 8.1317 1.37 0.14363 0.3646 1.1932 1.2595 0.044194 0.51928 1.3369" fill="none" stroke="#000" stroke-width=".4"/>
  <path d="m9.3029 8.2754 3.3247-3.9327" fill="none" stroke="#000" stroke-linecap="round" stroke-linejoin="round" stroke-width=".4"/>
 </g>
</svg>
