<?xml version="1.0" encoding="UTF-8" standalone="no"?>
<!-- Created with Inkscape (http://www.inkscape.org/) -->

<svg
   xmlns:dc="http://purl.org/dc/elements/1.1/"
   xmlns:cc="http://creativecommons.org/ns#"
   xmlns:rdf="http://www.w3.org/1999/02/22-rdf-syntax-ns#"
   xmlns:svg="http://www.w3.org/2000/svg"
   xmlns="http://www.w3.org/2000/svg"
   xmlns:sodipodi="http://sodipodi.sourceforge.net/DTD/sodipodi-0.dtd"
   xmlns:inkscape="http://www.inkscape.org/namespaces/inkscape"
   width="16"
   height="16"
   id="svg2"
   sodipodi:version="0.32"
   inkscape:version="0.48.5 r10040"
   version="1.0"
   sodipodi:docname="button_function3d.svg"
   inkscape:output_extension="org.inkscape.output.svg.inkscape">
  <defs
     id="defs4" />
  <sodipodi:namedview
     id="base"
     pagecolor="#ffffff"
     bordercolor="#666666"
     borderopacity="1.0"
     gridtolerance="10000"
     guidetolerance="10"
     objecttolerance="10"
     inkscape:pageopacity="0.0"
     inkscape:pageshadow="2"
     inkscape:zoom="24.696637"
     inkscape:cx="0.41438118"
     inkscape:cy="8.3247289"
     inkscape:document-units="px"
     inkscape:current-layer="layer1"
     showgrid="false"
     inkscape:window-width="1391"
     inkscape:window-height="872"
     inkscape:window-x="218"
     inkscape:window-y="0"
     inkscape:window-maximized="0" />
  <metadata
     id="metadata7">
    <rdf:RDF>
      <cc:Work
         rdf:about="">
        <dc:format>image/svg+xml</dc:format>
        <dc:type
           rdf:resource="http://purl.org/dc/dcmitype/StillImage" />
        <dc:creator>
          <cc:Agent>
            <dc:title>Jeremy Sanders</dc:title>
          </cc:Agent>
        </dc:creator>
        <dc:rights>
          <cc:Agent>
            <dc:title>Copyright (C) Jeremy Sanders</dc:title>
          </cc:Agent>
        </dc:rights>
        <cc:license
           rdf:resource="http://creativecommons.org/licenses/GPL/2.0/" />
        <dc:title />
      </cc:Work>
    </rdf:RDF>
  </metadata>
  <g
     inkscape:label="Layer 1"
     inkscape:groupmode="layer"
     id="layer1">
    <path
       style="fill:none;stroke:#000000;stroke-width:1px;stroke-linecap:butt;stroke-linejoin:miter;stroke-opacity:1"
       d="m 1.417197,1.342134 0,13.159687 13.402634,-0.04049"
       id="path2993"
       inkscape:connector-curvature="0"
       sodipodi:nodetypes="ccc" />
    <path
       style="fill:none;stroke:#000000;stroke-width:1px;stroke-linecap:butt;stroke-linejoin:miter;stroke-opacity:1"
       d="M 1.8626018,13.894451 8.6246558,7.3348527"
       id="path2995"
       inkscape:connector-curvature="0"
       sodipodi:nodetypes="cc" />
    <path
       sodipodi:type="arc"
       style="fill:#ff7f2a;stroke:none"
       id="path3765"
       sodipodi:cx="8.5031824"
       sodipodi:cy="8.549593"
       sodipodi:rx="5.1424007"
       sodipodi:ry="3.8061862"
       d="m 13.645583,8.549593 a 5.1424007,3.8061862 0 1 1 -10.2848013,0 5.1424007,3.8061862 0 1 1 10.2848013,0 z"
       transform="matrix(1.1968504,0,0,1.3617022,-1.6738548,-4.9304407)" />
    <path
       sodipodi:type="arc"
       style="fill:#ffd42a;stroke:none"
       id="path3767"
       sodipodi:cx="9.3130093"
       sodipodi:cy="4.6421781"
       sodipodi:rx="2.4294806"
       sodipodi:ry="1.9233388"
       d="m 11.74249,4.6421781 a 2.4294806,1.9233388 0 1 1 -4.8589613,0 2.4294806,1.9233388 0 1 1 4.8589613,0 z"
       transform="matrix(1.8886499,0,0,1.9282813,-9.0858315,-1.8734661)" />
    <path
       sodipodi:type="arc"
       style="fill:#ff6600;stroke:none"
       id="path3769"
       sodipodi:cx="7.9160576"
       sodipodi:cy="7.6182919"
       sodipodi:rx="2.409235"
       sodipodi:ry="0.93130088"
       d="m 10.325293,7.6182919 a 2.409235,0.93130088 0 1 1 -4.8184704,0 2.409235,0.93130088 0 1 1 4.8184704,0 z"
       transform="matrix(1.5199541,0,0,2.8409706,-3.5288617,-15.198544)" />
    <path
       sodipodi:type="arc"
       style="fill:#ffd42a;stroke:none"
       id="path3771"
       sodipodi:cx="8.2197428"
       sodipodi:cy="8.3066444"
       sodipodi:rx="1.9435844"
       sodipodi:ry="0.72884417"
       d="m 10.163327,8.3066444 a 1.9435844,0.72884417 0 1 1 -3.8871687,0 1.9435844,0.72884417 0 1 1 3.8871687,0 z"
       transform="matrix(1.3960573,0,0,2.2433149,-2.9720494,-11.728255)" />
    <path
       sodipodi:type="arc"
       style="fill:#ff6600;stroke:none"
       id="path3773"
       sodipodi:cx="-4.3933105"
       sodipodi:cy="5.9379015"
       sodipodi:rx="1.35646"
       sodipodi:ry="0.50614178"
       d="m -3.0368506,5.9379015 a 1.35646,0.50614178 0 1 1 -2.7129199,0 1.35646,0.50614178 0 1 1 2.7129199,0 z"
       transform="matrix(1.0896057,0,0,1.1742739,13.290158,-0.58420778)" />
  </g>
</svg>
