<?xml version="1.0" encoding="UTF-8" standalone="no"?>
<!-- Created with Inkscape (http://www.inkscape.org/) -->

<svg
   width="16"
   height="16"
   id="svg2"
   sodipodi:version="0.32"
   inkscape:version="1.2.2 (b0a8486541, 2022-12-01)"
   version="1.0"
   sodipodi:docname="kde-document-new-graph3d.svg"
   inkscape:output_extension="org.inkscape.output.svg.inkscape"
   xmlns:inkscape="http://www.inkscape.org/namespaces/inkscape"
   xmlns:sodipodi="http://sodipodi.sourceforge.net/DTD/sodipodi-0.dtd"
   xmlns="http://www.w3.org/2000/svg"
   xmlns:svg="http://www.w3.org/2000/svg"
   xmlns:rdf="http://www.w3.org/1999/02/22-rdf-syntax-ns#"
   xmlns:cc="http://creativecommons.org/ns#"
   xmlns:dc="http://purl.org/dc/elements/1.1/">
  <defs
     id="defs4" />
  <sodipodi:namedview
     id="base"
     pagecolor="#ffffff"
     bordercolor="#666666"
     borderopacity="1.0"
     gridtolerance="10000"
     guidetolerance="10"
     objecttolerance="10"
     inkscape:pageopacity="0.0"
     inkscape:pageshadow="2"
     inkscape:zoom="24.696638"
     inkscape:cx="3.441764"
     inkscape:cy="10.224064"
     inkscape:document-units="px"
     inkscape:current-layer="layer1"
     showgrid="false"
     inkscape:window-width="1143"
     inkscape:window-height="820"
     inkscape:window-x="777"
     inkscape:window-y="161"
     inkscape:window-maximized="0"
     inkscape:showpageshadow="2"
     inkscape:pagecheckerboard="true"
     inkscape:deskcolor="#d1d1d1" />
  <metadata
     id="metadata7">
    <rdf:RDF>
      <cc:Work
         rdf:about="">
        <dc:format>image/svg+xml</dc:format>
        <dc:type
           rdf:resource="http://purl.org/dc/dcmitype/StillImage" />
        <dc:creator>
          <cc:Agent>
            <dc:title>Jeremy Sanders</dc:title>
          </cc:Agent>
        </dc:creator>
        <dc:rights>
          <cc:Agent>
            <dc:title>Copyright (C) Jeremy Sanders</dc:title>
          </cc:Agent>
        </dc:rights>
        <cc:license
           rdf:resource="http://creativecommons.org/licenses/GPL/2.0/" />
      </cc:Work>
    </rdf:RDF>
  </metadata>
  <g
     inkscape:label="Layer 1"
     inkscape:groupmode="layer"
     id="layer1">
    <path
       style="fill:none;stroke:#ffffff;stroke-width:2;stroke-linecap:round;stroke-linejoin:miter;stroke-opacity:1;stroke-dasharray:none"
       d="m 1.417197,1.342134 v 13.159687 l 13.402634,-0.04049"
       id="path2993-6"
       inkscape:connector-curvature="0"
       sodipodi:nodetypes="ccc" />
    <path
       style="fill:none;stroke:#ffffff;stroke-width:2;stroke-linecap:round;stroke-linejoin:miter;stroke-opacity:1;stroke-dasharray:none"
       d="M 1.8626018,13.894451 8.6246558,7.3348527"
       id="path2995-0"
       inkscape:connector-curvature="0"
       sodipodi:nodetypes="cc" />
    <path
       style="fill:none;stroke:#000000;stroke-width:1px;stroke-linecap:butt;stroke-linejoin:miter;stroke-opacity:1"
       d="m 1.417197,1.342134 0,13.159687 13.402634,-0.04049"
       id="path2993"
       inkscape:connector-curvature="0"
       sodipodi:nodetypes="ccc" />
    <path
       id="path1099"
       d="m 5.5118251,1.6932266 c -0.1977604,0 -0.3569683,0.1610532 -0.3569683,0.3611059 v 8.3749185 c 0,0.200053 0.1592079,0.361106 0.3569683,0.361106 h 8.3431929 c 0.19776,0 0.356968,-0.161053 0.356968,-0.361106 V 2.0543325 c 0,-0.2000527 -0.159208,-0.3611059 -0.356968,-0.3611059 z"
       style="font-size:12px;fill:none;fill-opacity:1;fill-rule:evenodd;stroke:#ffffff;stroke-width:1.45683;stroke-linejoin:round;stroke-miterlimit:4;stroke-dasharray:none;stroke-opacity:1"
       inkscape:connector-curvature="0" />
    <path
       style="fill:none;stroke:#000000;stroke-width:1px;stroke-linecap:butt;stroke-linejoin:miter;stroke-opacity:1"
       d="M 1.8626018,13.894451 8.6246558,7.3348527"
       id="path2995"
       inkscape:connector-curvature="0"
       sodipodi:nodetypes="cc" />
    <path
       id="rect812"
       d="m 5.5118257,1.6932266 c -0.1977604,0 -0.3569683,0.1610532 -0.3569683,0.3611059 v 8.3749185 c 0,0.200053 0.1592079,0.361106 0.3569683,0.361106 h 8.3431933 c 0.19776,0 0.356968,-0.161053 0.356968,-0.361106 V 2.0543325 c 0,-0.2000527 -0.159208,-0.3611059 -0.356968,-0.3611059 z"
       style="font-size:12px;fill:#b3d596;fill-opacity:1;fill-rule:evenodd;stroke:#000000;stroke-width:0.560318;stroke-linejoin:round;stroke-opacity:1"
       inkscape:connector-curvature="0" />
    <g
       id="g2087"
       transform="matrix(0.16793181,0,0,0.16867769,4.6454674,1.1814612)">
      <path
         id="path2085"
         d="M 25.256462,25.222705 V 14.469368 c 0,-1.504292 0.408428,-2.72653 1.225273,-3.666715 0.816845,-0.9636858 1.983765,-1.4455317 3.50076,-1.4455317 1.517005,0 2.683925,0.4818459 3.500771,1.4455317 0.84018,0.940185 1.26028,2.162423 1.26028,3.666715 v 10.753337 h 10.537308 c 1.54033,0 2.75393,0.42308 3.64079,1.26924 0.910205,0.822659 1.365303,1.986139 1.365303,3.490431 0,1.527793 -0.455098,2.714774 -1.365303,3.560935 -0.88686,0.84617 -2.10046,1.26925 -3.64079,1.26925 H 34.743546 v 10.71808 c 0,1.527793 -0.4201,2.761787 -1.26028,3.701971 -0.840181,0.940185 -2.007111,1.410268 -3.500771,1.410268 -1.49366,0 -2.66058,-0.470083 -3.50076,-1.410268 -0.816845,-0.940184 -1.225273,-2.174178 -1.225273,-3.701971 V 34.812561 H 14.719154 c -1.49366,0 -2.70726,-0.458337 -3.64079,-1.37502 -0.910205,-0.940175 -1.365305,-2.0919 -1.365305,-3.455165 0,-1.504292 0.443427,-2.667772 1.330297,-3.490431 0.910195,-0.84616 2.135458,-1.26924 3.675798,-1.26924 z"
         style="font-weight:900;font-size:12px;font-family:'VAG Rounded Black SSi';fill:#62b01e;fill-opacity:1;stroke:#ffffff;stroke-width:5.32671;stroke-linecap:round;stroke-linejoin:round;stroke-miterlimit:4;stroke-opacity:1"
         inkscape:connector-curvature="0" />
      <path
         id="path838"
         d="M 25.256462,25.222705 V 14.469368 c 0,-1.504292 0.408428,-2.72653 1.225273,-3.666715 0.816845,-0.9636858 1.983765,-1.4455317 3.50076,-1.4455317 1.517005,0 2.683925,0.4818459 3.500771,1.4455317 0.84018,0.940185 1.26028,2.162423 1.26028,3.666715 v 10.753337 h 10.537308 c 1.54033,0 2.75393,0.42308 3.64079,1.26924 0.910205,0.822659 1.365303,1.986139 1.365303,3.490431 0,1.527793 -0.455098,2.714774 -1.365303,3.560935 -0.88686,0.84617 -2.10046,1.26925 -3.64079,1.26925 H 34.743546 v 10.71808 c 0,1.527793 -0.4201,2.761787 -1.26028,3.701971 -0.840181,0.940185 -2.007111,1.410268 -3.500771,1.410268 -1.49366,0 -2.66058,-0.470083 -3.50076,-1.410268 -0.816845,-0.940184 -1.225273,-2.174178 -1.225273,-3.701971 V 34.812561 H 14.719154 c -1.49366,0 -2.70726,-0.458337 -3.64079,-1.37502 -0.910205,-0.940175 -1.365305,-2.0919 -1.365305,-3.455165 0,-1.504292 0.443427,-2.667772 1.330297,-3.490431 0.910195,-0.84616 2.135458,-1.26924 3.675798,-1.26924 z"
         style="font-weight:900;font-size:12px;font-family:'VAG Rounded Black SSi';fill:#62b01e;fill-opacity:1;stroke-width:1"
         inkscape:connector-curvature="0" />
    </g>
  </g>
</svg>
