<?xml version="1.0" encoding="UTF-8" standalone="no"?>
<svg
   xmlns:dc="http://purl.org/dc/elements/1.1/"
   xmlns:cc="http://creativecommons.org/ns#"
   xmlns:rdf="http://www.w3.org/1999/02/22-rdf-syntax-ns#"
   xmlns:svg="http://www.w3.org/2000/svg"
   xmlns="http://www.w3.org/2000/svg"
   xmlns:sodipodi="http://sodipodi.sourceforge.net/DTD/sodipodi-0.dtd"
   xmlns:inkscape="http://www.inkscape.org/namespaces/inkscape"
   height="60"
   width="60"
   _SVGFile__filename="oldscale/actions/fileexport.svg"
   version="1.0"
   y="0"
   x="0"
   id="svg1"
   sodipodi:version="0.32"
   inkscape:version="0.48.5 r10040"
   sodipodi:docname="kde-document-export.svg">
  <sodipodi:namedview
     id="base"
     pagecolor="#ffffff"
     bordercolor="#666666"
     borderopacity="1.0"
     inkscape:pageopacity="0.0000000"
     inkscape:pageshadow="2"
     inkscape:zoom="5.1148999"
     inkscape:cx="32.292096"
     inkscape:cy="18.117003"
     inkscape:window-width="1020"
     inkscape:window-height="691"
     inkscape:window-x="0"
     inkscape:window-y="0"
     inkscape:current-layer="svg1" />
  <defs
     id="defs3" />
  <metadata
     id="metadata10">
    <RDF
       id="RDF11">
      <Work
         about=""
         id="Work12">
        <title
           id="title13">Part of the Flat Icon Collection (Thu Aug 26 14:38:01 2004)</title>
        <description
           id="description15" />
        <subject
           id="subject16">
          <Bag
             id="Bag17">
            <li
               id="li18" />
          </Bag>
        </subject>
        <publisher
           id="publisher19">
          <Agent
             about=""
             id="Agent20">
            <title
               id="title21" />
          </Agent>
        </publisher>
        <creator
           id="creator22">
          <Agent
             about=""
             id="Agent23">
            <title
               id="title24">Danny Allen</title>
          </Agent>
        </creator>
        <rights
           id="rights26">
          <Agent
             about=""
             id="Agent27">
            <title
               id="title28">Danny Allen</title>
          </Agent>
        </rights>
        <date
           id="date30" />
        <format
           id="format31">image/svg+xml</format>
        <type
           id="type33"
           resource="http://purl.org/dc/dcmitype/StillImage" />
        <license
           id="license34"
           resource="http://creativecommons.org/licenses/LGPL/2.1/">
          <date
             id="date35" />
        </license>
        <language
           id="language36">en</language>
      </Work>
    </RDF>
    <rdf:RDF>
      <cc:Work
         rdf:about="">
        <dc:format>image/svg+xml</dc:format>
        <dc:type
           rdf:resource="http://purl.org/dc/dcmitype/StillImage" />
      </cc:Work>
    </rdf:RDF>
  </metadata>
  <path
     id="path1140"
     style="font-size:12.000000;fill:none;fill-rule:evenodd;stroke:#ffffff;stroke-width:9.8222914;stroke-linecap:round;stroke-linejoin:round;stroke-miterlimit:4.0000000;stroke-opacity:1.0000000;"
     d="M 7.6819120,4.6856520 C 6.5334212,4.6856520 5.6088240,5.6102492 5.6088240,6.7587400 L 5.6088240,53.241260 C 5.6088240,54.389751 6.5334212,55.314348 7.6819120,55.314348 L 52.318088,55.314348 C 53.466579,55.314348 54.391176,54.389751 54.391176,53.241260 L 54.391176,11.520364 L 47.524072,4.6856520 L 7.6819120,4.6856520 z "
     transform="matrix(0.827200,0.000000,0.000000,0.827200,10.32012,0.811528)" />
  <g
     transform="matrix(0.827148,0.000000,0.000000,0.827148,59.95182,0.811770)"
     id="g1385">
    <path
       d="M -52.318084,4.6856600 C -53.466575,4.6856600 -54.391172,5.6102572 -54.391172,6.7587480 L -54.391172,53.241268 C -54.391172,54.389759 -53.466575,55.314356 -52.318084,55.314356 L -7.6819080,55.314356 C -6.5334172,55.314356 -5.6088200,54.389759 -5.6088200,53.241268 L -5.6088200,11.520372 L -12.475924,4.6856600 L -52.318084,4.6856600 z "
       style="font-size:12.000000;fill:#ffe940;fill-opacity:1.0000000;fill-rule:evenodd;stroke-width:1.0000000;stroke-linecap:round;stroke-linejoin:round"
       id="path646" />
    <g
       transform="matrix(-1.000000,0.000000,0.000000,1.000000,-2.628900,0.000000)"
       id="g1372">
      <path
         transform="matrix(0.978453,0.000000,0.000000,0.978453,0.431270,0.251887)"
         id="path655"
         d="M 15.913560,4.6592130 L 15.913560,17.901130 C 15.913560,19.254170 17.102330,20.343440 18.578970,20.343440 L 36.487180,20.343440 C 37.963820,20.343440 39.152590,19.254170 39.152590,17.901130 L 39.152590,4.6592130"
         style="font-size:12.000000;fill:#babec3;fill-opacity:1.0000000;fill-rule:evenodd;stroke:#000000;stroke-width:3.0889907;stroke-linecap:round;stroke-linejoin:round;stroke-opacity:1.0000000" />
      <path
         transform="matrix(0.978453,0.000000,0.000000,0.978453,0.431270,0.251887)"
         id="rect656"
         d="M 20.915640,7.9807840 C 20.140510,7.9807840 19.516490,8.6048050 19.516490,9.3799340 L 19.516490,15.622720 C 19.516490,16.397850 20.140510,17.021870 20.915640,17.021870 L 24.704420,17.021870 C 25.479550,17.021870 26.103570,16.397850 26.103570,15.622720 L 26.103570,9.3799340 C 26.103570,8.6048050 25.479550,7.9807840 24.704420,7.9807840 L 20.915640,7.9807840 z "
         style="font-size:12.000000;fill:#000000;fill-opacity:1.0000000;fill-rule:evenodd;stroke-width:1.2500000;stroke-linecap:round;stroke-linejoin:round" />
    </g>
    <path
       d="M -52.318084,4.6856600 C -53.466575,4.6856600 -54.391172,5.6102572 -54.391172,6.7587480 L -54.391172,53.241268 C -54.391172,54.389759 -53.466575,55.314356 -52.318084,55.314356 L -7.6819080,55.314356 C -6.5334172,55.314356 -5.6088200,54.389759 -5.6088200,53.241268 L -5.6088200,11.520372 L -12.475924,4.6856600 L -52.318084,4.6856600 z "
       style="font-size:12.000000;fill:none;fill-rule:evenodd;stroke:#000000;stroke-width:3.7780409;stroke-linecap:round;stroke-linejoin:round;stroke-opacity:1.0000000"
       id="path659" />
    <path
       sodipodi:nodetypes="ccccccccc"
       id="rect731"
       d="M -46.006265,25.823710 C -47.033872,25.823710 -47.861163,26.650997 -47.861163,27.678614 L -47.861163,47.718131 C -47.861163,48.745749 -47.033872,49.573036 -46.006265,49.573036 L -13.993743,49.573036 C -12.966126,49.573036 -12.138837,48.745749 -12.138837,47.718131 L -12.138837,27.678614 C -12.138837,26.650997 -12.966126,25.823710 -13.993743,25.823710 L -46.006265,25.823710 z "
       style="font-size:12.000000;fill:#d9dddf;fill-opacity:1.0000000;fill-rule:evenodd;stroke:#000000;stroke-width:3.0224326;stroke-linecap:round;stroke-linejoin:round;stroke-miterlimit:4.0000000;stroke-opacity:1.0000000" />
  </g>
  <path
     style="font-size:12.000000;fill:#ffffff;fill-opacity:1.0000000;fill-rule:evenodd;stroke:none;stroke-width:3.1249986;stroke-linecap:round;stroke-linejoin:round;stroke-opacity:1.0000000"
     d="M 13.531250,45.825845 C 13.847231,47.302511 15.127703,48.450845 16.687500,48.450845 L 22.156250,48.450845 L 22.156250,45.825845 L 13.531250,45.825845 z "
     id="path1104"
     sodipodi:nodetypes="ccccc" />
  <g
     id="g1117"
     transform="translate(-21.53505,26.43034)">
    <path
       style="font-size:12.000000;fill:none;fill-opacity:1.0000000;fill-rule:evenodd;stroke:#ffffff;stroke-width:9.6800518;stroke-linecap:round;stroke-linejoin:round;stroke-miterlimit:4.0000000;stroke-opacity:1.0000000"
       d="M 23.155000,31.012803 C 25.816500,7.5141815 46.220430,9.0920845 47.532730,9.2155035 L 47.532730,2.1875005 L 57.812500,12.362373 L 47.532730,22.516263 L 47.532730,15.572173 C 45.989710,15.390943 31.574540,13.944273 23.155000,31.012803 z "
       id="path1789"
       transform="matrix(0.839355,0.000000,0.000000,0.839355,6.787289,2.851411)" />
    <path
       style="font-size:12.000000;fill:#e71c02;fill-opacity:1.0000000;fill-rule:evenodd;stroke:#e71c02;stroke-width:3.1250000;stroke-linecap:round;stroke-linejoin:round;stroke-miterlimit:4.0000000;stroke-opacity:1.0000000"
       d="M 26.222554,28.882162 C 28.456497,9.1584768 45.582638,10.482898 46.684124,10.586490 L 46.684124,4.6875005 L 55.312500,13.227831 L 46.684124,21.750549 L 46.684124,15.921992 C 45.388982,15.769876 33.289537,14.555606 26.222554,28.882162 z "
       id="path993" />
  </g>
</svg>
