<?xml version="1.0" encoding="UTF-8" standalone="no"?>
<svg
   xmlns:dc="http://purl.org/dc/elements/1.1/"
   xmlns:cc="http://creativecommons.org/ns#"
   xmlns:rdf="http://www.w3.org/1999/02/22-rdf-syntax-ns#"
   xmlns:svg="http://www.w3.org/2000/svg"
   xmlns="http://www.w3.org/2000/svg"
   xmlns:sodipodi="http://sodipodi.sourceforge.net/DTD/sodipodi-0.dtd"
   xmlns:inkscape="http://www.inkscape.org/namespaces/inkscape"
   height="60"
   width="60"
   _SVGFile__filename="oldscale/actions/ark_new.svg"
   version="1.0"
   y="0"
   x="0"
   id="svg1"
   sodipodi:version="0.32"
   inkscape:version="0.48.0 r9654"
   sodipodi:docname="kde-document-new.svg">
  <sodipodi:namedview
     id="base"
     pagecolor="#ffffff"
     bordercolor="#666666"
     borderopacity="1.0"
     inkscape:pageopacity="0.0"
     inkscape:pageshadow="2"
     inkscape:zoom="7.2207390"
     inkscape:cx="28.791339"
     inkscape:cy="24.184726"
     inkscape:window-width="1020"
     inkscape:window-height="691"
     inkscape:window-x="0"
     inkscape:window-y="0"
     inkscape:current-layer="svg1" />
  <defs
     id="defs3" />
  <path
     style="font-size:12.000000;fill:none;fill-opacity:1.0000000;fill-rule:evenodd;stroke:#ffffff;stroke-width:8.1250000;stroke-linejoin:round;stroke-opacity:1.0000000;stroke-miterlimit:4.0000000;stroke-dasharray:none;"
     d="M 6.6825810,4.6879174 C 5.5771860,4.6879174 4.6872830,5.5841544 4.6872830,6.6974174 L 4.6872830,53.302583 C 4.6872830,54.415846 5.5771860,55.312083 6.6825810,55.312083 L 53.317412,55.312083 C 54.422807,55.312083 55.312710,54.415846 55.312710,53.302583 L 55.312710,6.6974174 C 55.312710,5.5841544 54.422807,4.6879174 53.317412,4.6879174 L 6.6825810,4.6879174 z "
     id="path1099" />
  <path
     style="font-size:12.000000;fill:#b3d596;fill-opacity:1.0000000;fill-rule:evenodd;stroke:#000000;stroke-width:3.1249990;stroke-linejoin:round;stroke-opacity:1.0000000"
     d="M 6.6825844,4.6879174 C 5.5771893,4.6879174 4.6872864,5.5841544 4.6872864,6.6974174 L 4.6872864,53.302583 C 4.6872864,54.415846 5.5771893,55.312083 6.6825844,55.312083 L 53.317416,55.312083 C 54.422811,55.312083 55.312714,54.415846 55.312714,53.302583 L 55.312714,6.6974174 C 55.312714,5.5841544 54.422811,4.6879174 53.317416,4.6879174 L 6.6825844,4.6879174 z "
     id="rect812" />
  <g
     transform="matrix(0.938666,0.000000,0.000000,0.938666,1.840017,1.840020)"
     id="g2087">
    <path
       style="font-size:12.000000;font-weight:900;fill:#62b01e;fill-opacity:1.0000000;stroke:#ffffff;stroke-width:5.3267064;stroke-linecap:round;stroke-linejoin:round;stroke-miterlimit:4.0000000;stroke-opacity:1.0000000;font-family:VAG Rounded Black SSi"
       d="M 25.256462,25.222705 L 25.256462,14.469368 C 25.256462,12.965076 25.664890,11.742838 26.481735,10.802653 C 27.298580,9.8389672 28.465500,9.3571213 29.982495,9.3571213 C 31.499500,9.3571213 32.666420,9.8389672 33.483266,10.802653 C 34.323446,11.742838 34.743546,12.965076 34.743546,14.469368 L 34.743546,25.222705 L 45.280854,25.222705 C 46.821184,25.222705 48.034784,25.645785 48.921644,26.491945 C 49.831849,27.314604 50.286947,28.478084 50.286947,29.982376 C 50.286947,31.510169 49.831849,32.697150 48.921644,33.543311 C 48.034784,34.389481 46.821184,34.812561 45.280854,34.812561 L 34.743546,34.812561 L 34.743546,45.530641 C 34.743546,47.058434 34.323446,48.292428 33.483266,49.232612 C 32.643085,50.172797 31.476155,50.642880 29.982495,50.642880 C 28.488835,50.642880 27.321915,50.172797 26.481735,49.232612 C 25.664890,48.292428 25.256462,47.058434 25.256462,45.530641 L 25.256462,34.812561 L 14.719154,34.812561 C 13.225494,34.812561 12.011894,34.354224 11.078364,33.437541 C 10.168159,32.497366 9.7130590,31.345641 9.7130590,29.982376 C 9.7130590,28.478084 10.156486,27.314604 11.043356,26.491945 C 11.953551,25.645785 13.178814,25.222705 14.719154,25.222705 L 25.256462,25.222705 z "
       id="path2085" />
    <path
       style="font-size:12.000000;font-weight:900;fill:#62b01e;fill-opacity:1.0000000;stroke-width:1.0000000;font-family:VAG Rounded Black SSi"
       d="M 25.256462,25.222705 L 25.256462,14.469368 C 25.256462,12.965076 25.664890,11.742838 26.481735,10.802653 C 27.298580,9.8389672 28.465500,9.3571213 29.982495,9.3571213 C 31.499500,9.3571213 32.666420,9.8389672 33.483266,10.802653 C 34.323446,11.742838 34.743546,12.965076 34.743546,14.469368 L 34.743546,25.222705 L 45.280854,25.222705 C 46.821184,25.222705 48.034784,25.645785 48.921644,26.491945 C 49.831849,27.314604 50.286947,28.478084 50.286947,29.982376 C 50.286947,31.510169 49.831849,32.697150 48.921644,33.543311 C 48.034784,34.389481 46.821184,34.812561 45.280854,34.812561 L 34.743546,34.812561 L 34.743546,45.530641 C 34.743546,47.058434 34.323446,48.292428 33.483266,49.232612 C 32.643085,50.172797 31.476155,50.642880 29.982495,50.642880 C 28.488835,50.642880 27.321915,50.172797 26.481735,49.232612 C 25.664890,48.292428 25.256462,47.058434 25.256462,45.530641 L 25.256462,34.812561 L 14.719154,34.812561 C 13.225494,34.812561 12.011894,34.354224 11.078364,33.437541 C 10.168159,32.497366 9.7130590,31.345641 9.7130590,29.982376 C 9.7130590,28.478084 10.156486,27.314604 11.043356,26.491945 C 11.953551,25.645785 13.178814,25.222705 14.719154,25.222705 L 25.256462,25.222705 z "
       id="path838" />
  </g>
  <metadata
     id="metadata14">
    <RDF
       id="RDF15">
      <Work
         about=""
         id="Work16">
        <title
           id="title17">Part of the Flat Icon Collection (Thu Aug 26 14:38:01 2004)</title>
        <description
           id="description19" />
        <subject
           id="subject20">
          <Bag
             id="Bag21">
            <li
               id="li22" />
          </Bag>
        </subject>
        <publisher
           id="publisher23">
          <Agent
             about=""
             id="Agent24">
            <title
               id="title25" />
          </Agent>
        </publisher>
        <creator
           id="creator26">
          <Agent
             about=""
             id="Agent27">
            <title
               id="title28">Danny Allen</title>
          </Agent>
        </creator>
        <rights
           id="rights30">
          <Agent
             about=""
             id="Agent31">
            <title
               id="title32">Danny Allen</title>
          </Agent>
        </rights>
        <date
           id="date34" />
        <format
           id="format35">image/svg+xml</format>
        <type
           id="type37"
           resource="http://purl.org/dc/dcmitype/StillImage" />
        <license
           id="license38"
           resource="http://creativecommons.org/licenses/LGPL/2.1/">
          <date
             id="date39" />
        </license>
        <language
           id="language40">en</language>
      </Work>
    </RDF>
    <rdf:RDF>
      <cc:Work
         rdf:about="">
        <dc:format>image/svg+xml</dc:format>
        <dc:type
           rdf:resource="http://purl.org/dc/dcmitype/StillImage" />
      </cc:Work>
    </rdf:RDF>
  </metadata>
</svg>
