<?xml version="1.0" encoding="UTF-8" standalone="no"?>
<!-- Created with Inkscape (http://www.inkscape.org/) -->

<svg
   xmlns:dc="http://purl.org/dc/elements/1.1/"
   xmlns:cc="http://creativecommons.org/ns#"
   xmlns:rdf="http://www.w3.org/1999/02/22-rdf-syntax-ns#"
   xmlns:svg="http://www.w3.org/2000/svg"
   xmlns="http://www.w3.org/2000/svg"
   xmlns:xlink="http://www.w3.org/1999/xlink"
   xmlns:sodipodi="http://sodipodi.sourceforge.net/DTD/sodipodi-0.dtd"
   xmlns:inkscape="http://www.inkscape.org/namespaces/inkscape"
   width="418.95691"
   height="146.14328"
   id="svg2"
   sodipodi:version="0.32"
   inkscape:version="0.48.5 r10040"
   sodipodi:docname="logo.svg"
   inkscape:output_extension="org.inkscape.output.svg.inkscape"
   version="1.0"
   inkscape:export-filename="/home/jss/logo.png"
   inkscape:export-xdpi="53.700001"
   inkscape:export-ydpi="53.700001">
  <defs
     id="defs4">
    <linearGradient
       id="linearGradient2452">
      <stop
         id="stop2454"
         offset="0"
         style="stop-color:#008200;stop-opacity:1;" />
      <stop
         style="stop-color:#ffffff;stop-opacity:1;"
         offset="0.34689936"
         id="stop2456" />
      <stop
         id="stop2458"
         offset="0.4584063"
         style="stop-color:#2828ff;stop-opacity:1;" />
      <stop
         id="stop2460"
         offset="1"
         style="stop-color:#000000;stop-opacity:1;" />
    </linearGradient>
    <linearGradient
       inkscape:collect="always"
       id="linearGradient3862">
      <stop
         style="stop-color:#d1dbf3;stop-opacity:1;"
         offset="0"
         id="stop3864" />
      <stop
         style="stop-color:#d1dbf3;stop-opacity:0;"
         offset="1"
         id="stop3866" />
    </linearGradient>
    <linearGradient
       inkscape:collect="always"
       id="linearGradient3838">
      <stop
         style="stop-color:#d1dbf3;stop-opacity:1;"
         offset="0"
         id="stop3840" />
      <stop
         style="stop-color:#d1dbf3;stop-opacity:0;"
         offset="1"
         id="stop3842" />
    </linearGradient>
    <linearGradient
       id="linearGradient3638">
      <stop
         style="stop-color:#d1dbf3;stop-opacity:1;"
         offset="0"
         id="stop3640" />
      <stop
         style="stop-color:#d1dbf3;stop-opacity:0;"
         offset="1"
         id="stop3642" />
    </linearGradient>
    <linearGradient
       inkscape:collect="always"
       xlink:href="#linearGradient2452"
       id="linearGradient3300"
       gradientUnits="userSpaceOnUse"
       gradientTransform="matrix(0.9885213,0,0,0.9851396,0.958248,-2.8924958)"
       x1="292.19153"
       y1="246.58492"
       x2="280.66611"
       y2="116.93126" />
    <linearGradient
       inkscape:collect="always"
       xlink:href="#linearGradient2452"
       id="linearGradient3303"
       gradientUnits="userSpaceOnUse"
       x1="289.79581"
       y1="240.02806"
       x2="278.40268"
       y2="112.30112" />
    <linearGradient
       inkscape:collect="always"
       xlink:href="#linearGradient3638"
       id="linearGradient3646"
       x1="178.0587"
       y1="275.33453"
       x2="227.15273"
       y2="274.75723"
       gradientUnits="userSpaceOnUse" />
    <linearGradient
       inkscape:collect="always"
       xlink:href="#linearGradient3638"
       id="linearGradient3648"
       x1="178.0587"
       y1="275.33453"
       x2="227.15273"
       y2="274.75723"
       gradientUnits="userSpaceOnUse" />
    <linearGradient
       inkscape:collect="always"
       xlink:href="#linearGradient3638"
       id="linearGradient3662"
       x1="178.0587"
       y1="275.33453"
       x2="227.15273"
       y2="274.75723"
       gradientUnits="userSpaceOnUse" />
    <linearGradient
       inkscape:collect="always"
       xlink:href="#linearGradient3638"
       id="linearGradient3664"
       x1="178.0587"
       y1="275.33453"
       x2="227.15273"
       y2="274.75723"
       gradientUnits="userSpaceOnUse" />
    <linearGradient
       inkscape:collect="always"
       xlink:href="#linearGradient3638"
       id="linearGradient3666"
       x1="141.6707"
       y1="208.23318"
       x2="193.77124"
       y2="207.52876"
       gradientUnits="userSpaceOnUse" />
    <linearGradient
       inkscape:collect="always"
       xlink:href="#linearGradient3638"
       id="linearGradient3668"
       x1="110.61636"
       y1="164.46141"
       x2="173.17255"
       y2="163.65723"
       gradientUnits="userSpaceOnUse" />
    <linearGradient
       inkscape:collect="always"
       xlink:href="#linearGradient3638"
       id="linearGradient3670"
       x1="100.40273"
       y1="230.37881"
       x2="149.49677"
       y2="229.80153"
       gradientUnits="userSpaceOnUse" />
    <linearGradient
       inkscape:collect="always"
       xlink:href="#linearGradient3638"
       id="linearGradient3676"
       x1="161.58258"
       y1="186.59"
       x2="235.79593"
       y2="185.65256"
       gradientUnits="userSpaceOnUse" />
    <linearGradient
       inkscape:collect="always"
       xlink:href="#linearGradient3638"
       id="linearGradient3678"
       x1="115.43559"
       y1="164.23967"
       x2="180.74623"
       y2="163.40985"
       gradientUnits="userSpaceOnUse" />
    <linearGradient
       inkscape:collect="always"
       xlink:href="#linearGradient3838"
       id="linearGradient3844"
       x1="166.30495"
       y1="276.25653"
       x2="204.62407"
       y2="275.83002"
       gradientUnits="userSpaceOnUse"
       gradientTransform="matrix(1.2811886,0,0,1.3535534,-35.0093,-98.593434)" />
    <linearGradient
       inkscape:collect="always"
       xlink:href="#linearGradient3862"
       id="linearGradient3868"
       x1="226.35587"
       y1="264.0878"
       x2="207.49287"
       y2="267.06616"
       gradientUnits="userSpaceOnUse" />
    <linearGradient
       inkscape:collect="always"
       xlink:href="#linearGradient3638"
       id="linearGradient3872"
       gradientUnits="userSpaceOnUse"
       x1="161.61302"
       y1="215.66838"
       x2="269.23843"
       y2="214.25554" />
    <linearGradient
       inkscape:collect="always"
       xlink:href="#linearGradient3638"
       id="linearGradient3876"
       gradientUnits="userSpaceOnUse"
       x1="116.04466"
       y1="184.68958"
       x2="178.60085"
       y2="183.88539" />
    <linearGradient
       inkscape:collect="always"
       xlink:href="#linearGradient3638"
       id="linearGradient3880"
       gradientUnits="userSpaceOnUse"
       x1="146.94057"
       y1="195.38275"
       x2="160.44493"
       y2="139.44722" />
    <linearGradient
       inkscape:collect="always"
       xlink:href="#linearGradient3638"
       id="linearGradient3882"
       gradientUnits="userSpaceOnUse"
       x1="140.43245"
       y1="171.51967"
       x2="153.93681"
       y2="115.58413" />
    <linearGradient
       inkscape:collect="always"
       xlink:href="#linearGradient3638"
       id="linearGradient3884"
       gradientUnits="userSpaceOnUse"
       x1="110.78437"
       y1="144.04095"
       x2="124.28873"
       y2="88.105423" />
    <linearGradient
       inkscape:collect="always"
       xlink:href="#linearGradient3638"
       id="linearGradient3886"
       gradientUnits="userSpaceOnUse"
       x1="146.94057"
       y1="195.38275"
       x2="160.44493"
       y2="139.44722" />
    <linearGradient
       inkscape:collect="always"
       xlink:href="#linearGradient3638"
       id="linearGradient3888"
       gradientUnits="userSpaceOnUse"
       x1="146.94057"
       y1="195.38275"
       x2="160.44493"
       y2="139.44722" />
    <linearGradient
       inkscape:collect="always"
       xlink:href="#linearGradient3638"
       id="linearGradient3890"
       gradientUnits="userSpaceOnUse"
       x1="146.94057"
       y1="195.38275"
       x2="160.44493"
       y2="139.44722" />
    <linearGradient
       inkscape:collect="always"
       xlink:href="#linearGradient3638"
       id="linearGradient3892"
       gradientUnits="userSpaceOnUse"
       x1="146.94057"
       y1="195.38275"
       x2="160.44493"
       y2="139.44722" />
    <linearGradient
       inkscape:collect="always"
       xlink:href="#linearGradient3638"
       id="linearGradient3894"
       gradientUnits="userSpaceOnUse"
       x1="146.94057"
       y1="195.38275"
       x2="160.44493"
       y2="139.44722" />
    <linearGradient
       inkscape:collect="always"
       xlink:href="#linearGradient3638"
       id="linearGradient3896"
       gradientUnits="userSpaceOnUse"
       x1="146.94057"
       y1="195.38275"
       x2="160.44493"
       y2="139.44722" />
    <linearGradient
       inkscape:collect="always"
       xlink:href="#linearGradient3638"
       id="linearGradient3898"
       gradientUnits="userSpaceOnUse"
       x1="146.94057"
       y1="195.38275"
       x2="160.44493"
       y2="139.44722" />
  </defs>
  <sodipodi:namedview
     id="base"
     pagecolor="#ffffff"
     bordercolor="#666666"
     borderopacity="1.0"
     gridtolerance="10000"
     guidetolerance="10"
     objecttolerance="10"
     inkscape:pageopacity="0.0"
     inkscape:pageshadow="2"
     inkscape:zoom="1.4244857"
     inkscape:cx="172.23957"
     inkscape:cy="72.305528"
     inkscape:document-units="px"
     inkscape:current-layer="layer1"
     showgrid="false"
     inkscape:window-width="1280"
     inkscape:window-height="708"
     inkscape:window-x="2051"
     inkscape:window-y="218"
     inkscape:snap-global="false"
     borderlayer="false" />
  <metadata
     id="metadata7">
    <rdf:RDF>
      <cc:Work
         rdf:about="">
        <dc:format>image/svg+xml</dc:format>
        <dc:type
           rdf:resource="http://purl.org/dc/dcmitype/StillImage" />
      </cc:Work>
    </rdf:RDF>
  </metadata>
  <g
     inkscape:label="Layer 1"
     inkscape:groupmode="layer"
     id="layer1"
     transform="translate(-90.34877,-135.40866)">
    <rect
       style="fill:url(#linearGradient3844);fill-opacity:1;stroke:none;stroke-width:3.05299997000000012;stroke-linecap:butt;stroke-linejoin:miter;stroke-miterlimit:4;stroke-dasharray:none;stroke-opacity:1"
       id="rect3836"
       width="108.75172"
       height="2.6875856"
       x="124.50467"
       y="278.86435" />
    <path
       style="fill:url(#linearGradient3880);fill-opacity:1;stroke:none;stroke-width:3.05299997000000012;stroke-linecap:butt;stroke-linejoin:miter;stroke-miterlimit:4;stroke-dasharray:none;stroke-opacity:1"
       d="M 124.98317,135.40866 L 124.98317,281.107 L 125.01025,281.107 L 125.01025,281.14304 L 130.90741,279.65386 L 129.41822,276.35469 L 126.71643,278.83666 L 126.71643,135.40866 L 124.98317,135.40866 z"
       id="rect3437"
       sodipodi:nodetypes="ccccccccc" />
    <path
       id="path2393"
       d="M 208.80789,234.63221 C 215.56223,231.50899 222.60312,229.69993 229.64497,227.931 C 240.39259,225.22264 251.19436,222.81494 262.14006,221.80282 C 269.9155,221.08385 271.81799,221.19403 279.55533,221.06014 C 282.27014,221.14918 284.98945,221.11252 287.69975,221.32728 C 296.6228,222.03432 305.46239,224.04301 314.24012,226.05963 C 321.08018,227.63108 325.21826,228.67772 331.98724,230.34538 C 343.93869,233.24416 355.791,236.76251 367.74796,239.61843 C 378.58792,242.20752 389.56476,243.76923 400.54232,245.10736 C 412.71729,246.44256 424.94034,246.97376 437.15862,246.7957 C 445.38114,246.45183 453.60886,245.5652 461.72216,243.82232 C 465.47307,243.01656 469.26531,241.91814 472.9805,240.89697 C 480.234,238.89418 487.33021,236.16716 494.40729,233.37701 L 488.10048,239.46541 C 481.15533,242.03462 474.19011,244.53056 467.11038,246.46822 C 463.15375,247.53832 459.84202,248.4992 455.84381,249.3189 C 447.73278,250.98179 439.5107,251.77055 431.30259,252.12044 C 419.05634,252.24019 406.79187,251.85666 394.5953,250.39418 C 383.54815,249.04929 372.48142,247.68636 361.58151,244.98981 C 349.82406,242.05374 338.19636,238.38513 326.49602,235.12156 C 309.23773,230.63186 291.82148,226.14435 274.11868,226.00699 C 266.48388,226.12373 264.44652,225.98923 256.76108,226.78822 C 245.76795,227.93108 234.88443,230.34796 224.1014,233.18933 C 221.59619,233.90637 219.07799,234.55595 216.5858,235.34046 C 211.63842,236.89783 206.78587,238.9136 202.04809,241.27117 L 208.80789,234.63221 z"
       style="fill:url(#linearGradient3868);fill-opacity:1" />
    <g
       id="g3305">
      <path
         id="text2383"
         d="M 221.9894,135.52347 L 135.46596,280.93362 L 109.68471,280.93362 L 90.34877,135.52347 L 110.46596,135.52347 L 126.38393,263.25784 L 201.38393,135.52347 L 221.9894,135.52347"
         style="font-size:40px;font-style:normal;font-weight:normal;line-height:125%;fill:url(#linearGradient3303);fill-opacity:1;stroke:none;stroke-width:1px;stroke-linecap:butt;stroke-linejoin:miter;stroke-opacity:1;font-family:Bitstream Vera Sans" />
      <path
         sodipodi:nodetypes="ccscscccccsscsscccscscccscscccccccscsscccccccscsscccsscsccccscssccsscsccccscsccccccccccccc"
         id="text2387"
         d="M 274.3129,169.5989 C 274.45184,168.86009 274.54451,168.09815 274.59092,167.31307 C 274.68353,166.52809 274.72986,165.74305 274.72993,164.95797 C 274.72986,159.32426 273.06173,154.86804 269.72554,151.58932 C 266.43556,148.31072 261.94088,146.67139 256.2415,146.67132 C 249.89329,146.67139 244.28653,148.68015 239.42118,152.6976 C 234.55578,156.66901 230.872,162.32586 228.36982,169.66817 L 274.3129,169.5989 M 285.43377,179.57344 L 225.93714,179.57344 C 225.6591,181.32825 225.47375,182.71361 225.3811,183.7295 C 225.2884,184.74546 225.24206,185.62284 225.24208,186.36167 C 225.24206,192.78049 227.21138,197.74467 231.15004,201.25421 C 235.135,204.76378 240.74175,206.51856 247.97035,206.51855 C 253.53073,206.51856 258.78997,205.89515 263.74808,204.64832 C 268.70607,203.40152 273.31659,201.57747 277.57965,199.17617 L 275.14697,211.78289 C 270.55955,213.63002 265.81001,215.01538 260.89835,215.93895 C 256.03293,216.86251 251.07488,217.3243 246.0242,217.3243 C 235.22767,217.3243 226.91019,214.7614 221.07176,209.63559 C 215.27964,204.46362 212.38357,197.14434 212.38358,187.67775 C 212.38357,179.59656 213.82002,172.09258 216.69291,165.16578 C 219.61214,158.19289 223.87512,151.9819 229.48191,146.53278 C 233.09617,143.11565 237.38233,140.48349 242.34042,138.63627 C 247.34477,136.78921 252.65034,135.86565 258.25715,135.86557 C 267.06111,135.86565 274.05798,138.49781 279.24778,143.76207 C 284.48378,149.02648 287.10182,156.09177 287.1019,164.95797 C 287.10182,167.08223 286.9628,169.36806 286.68486,171.81547 C 286.40676,174.21679 285.98973,176.80278 285.43377,179.57344 M 292.94913,184.56071 L 302.05433,137.7358 L 314.91283,137.7358 L 305.80762,184.07584 C 305.34424,186.3386 304.99671,188.2781 304.76504,189.89432 C 304.57967,191.51059 304.487,192.84976 304.48702,193.91183 C 304.487,197.83703 305.69176,200.88479 308.1013,203.05516 C 310.51079,205.17938 313.91655,206.24149 318.3186,206.24148 C 325.17642,206.24149 331.10754,203.93257 336.11198,199.31471 C 341.11631,194.69689 344.38307,188.4859 345.91224,180.68173 L 354.46141,137.7358 L 367.2504,137.7358 L 352.16773,215.31554 L 339.37874,215.31554 L 341.95043,203.12444 C 338.33609,207.64992 334.02676,211.15948 329.02242,213.65312 C 324.06434,216.10057 318.78193,217.3243 313.17519,217.3243 C 306.36365,217.3243 301.05807,215.47716 297.25846,211.78289 C 293.45882,208.04244 291.55901,202.84738 291.55902,196.19767 C 291.55901,194.81234 291.67485,193.08065 291.90654,191.0026 C 292.13822,188.9246 292.48575,186.77731 292.94913,184.56071 M 434.95744,140.02163 L 432.52475,152.07419 C 429.14209,150.22712 425.57415,148.84177 421.82092,147.91813 C 418.06757,146.99463 414.19844,146.53285 410.21351,146.53278 C 403.49462,146.53285 398.18905,147.68731 394.29678,149.99616 C 390.45079,152.25897 388.52781,155.35292 388.52783,159.27802 C 388.52781,163.84974 393.02249,167.3593 402.01188,169.8067 C 402.7069,169.99146 403.2166,170.12999 403.54099,170.22231 L 407.64182,171.46912 C 416.16776,173.82427 421.84403,176.29481 424.67064,178.88076 C 427.54347,181.46679 428.97991,184.99943 428.97998,189.47871 C 428.97991,197.69848 425.68999,204.39435 419.1102,209.56632 C 412.57665,214.73831 404.00432,217.3243 393.39321,217.3243 C 389.2692,217.3243 384.9367,216.93178 380.3957,216.14675 C 375.85467,215.36171 370.85029,214.13799 365.38253,212.47556 L 367.88472,199.31471 C 372.56475,201.716 377.17527,203.54005 381.7163,204.78686 C 386.2573,206.03368 390.61296,206.65709 394.78332,206.65708 C 401.03877,206.65709 406.11265,205.31792 410.005,202.63956 C 413.94359,199.96122 415.91291,196.56712 415.91296,192.45722 C 415.91291,188.02412 410.76952,184.44529 400.48276,181.72073 L 399.16216,181.3744 L 394.78332,180.26611 C 388.29612,178.55755 383.54659,176.3179 380.53471,173.54716 C 377.5228,170.73032 376.01684,167.15149 376.01685,162.81067 C 376.01684,154.5448 379.12141,147.98746 385.33058,143.13867 C 391.58605,138.29001 400.06569,135.86565 410.76956,135.86557 C 414.98617,135.86565 419.08698,136.21198 423.07202,136.90458 C 427.10327,137.59733 431.06507,138.63635 434.95744,140.02163 M 448.55796,137.7358 L 509.30568,137.7358 L 507.01201,149.37276 L 448.41895,205.1332 L 496.79471,205.1332 L 494.77906,215.31554 L 431.59865,215.31554 L 433.89232,203.67858 L 492.48538,147.91813 L 446.54231,147.91813 L 448.55796,137.7358"
         style="font-size:144px;font-style:oblique;font-variant:normal;font-weight:normal;font-stretch:normal;text-align:start;line-height:125%;writing-mode:lr-tb;text-anchor:start;fill:url(#linearGradient3300);fill-opacity:1;stroke:none;stroke-width:1px;stroke-linecap:butt;stroke-linejoin:miter;stroke-opacity:1;font-family:Bitstream Vera Sans;-inkscape-font-specification:Bitstream Vera Sans Oblique" />
    </g>
    <path
       sodipodi:type="star"
       style="fill:url(#linearGradient3678);fill-opacity:1;stroke:none;stroke-width:2.50000000000000000;stroke-linecap:round;stroke-linejoin:round;stroke-miterlimit:4;stroke-dasharray:none;stroke-opacity:1"
       id="path3407"
       sodipodi:sides="5"
       sodipodi:cx="122.93106"
       sodipodi:cy="147.01106"
       sodipodi:r1="7.6869125"
       sodipodi:r2="3.843456"
       sodipodi:arg1="0.85196633"
       sodipodi:arg2="1.4802849"
       inkscape:flatsided="false"
       inkscape:rounded="0"
       inkscape:randomized="0"
       d="M 127.99293,152.79605 L 123.27846,150.83879 L 118.99341,153.61285 L 119.39803,148.52429 L 115.43559,145.3062 L 120.40013,144.11857 L 122.23626,139.35562 L 124.89989,143.71017 L 129.99712,143.9846 L 126.6788,147.8635 L 127.99293,152.79605 z"
       transform="matrix(0.7517005,0,0,0.6956812,91.285706,161.07607)" />
    <path
       sodipodi:type="star"
       style="fill:url(#linearGradient3676);fill-opacity:1;stroke:none;stroke-width:2.50000000000000000;stroke-linecap:round;stroke-linejoin:round;stroke-miterlimit:4;stroke-dasharray:none;stroke-opacity:1"
       id="path3409"
       sodipodi:sides="5"
       sodipodi:cx="128.71605"
       sodipodi:cy="168.70479"
       sodipodi:r1="9.0607166"
       sodipodi:r2="4.5303583"
       sodipodi:arg1="1.0714496"
       sodipodi:arg2="1.6997681"
       inkscape:flatsided="false"
       inkscape:rounded="0"
       inkscape:randomized="0"
       d="M 133.05479,176.65915 L 128.13338,173.19752 L 122.49175,175.28921 L 124.26315,169.53897 L 120.53047,164.81982 L 126.54668,164.72761 L 129.88139,159.71932 L 131.8282,165.41258 L 137.62184,167.03643 L 132.80884,170.64727 L 133.05479,176.65915 z"
       transform="matrix(0.6615256,0,0,0.6158098,71.167686,160.43057)" />
    <path
       sodipodi:type="star"
       style="fill:url(#linearGradient3882);fill-opacity:1;stroke:none;stroke-width:2.50000000000000000;stroke-linecap:round;stroke-linejoin:round;stroke-miterlimit:4;stroke-dasharray:none;stroke-opacity:1"
       id="path3411"
       sodipodi:sides="5"
       sodipodi:cx="134.50104"
       sodipodi:cy="190.39851"
       sodipodi:r1="6.2205467"
       sodipodi:r2="3.1102734"
       sodipodi:arg1="0.95054684"
       sodipodi:arg2="1.5788654"
       inkscape:flatsided="false"
       inkscape:rounded="0"
       inkscape:randomized="0"
       d="M 138.11666,195.46038 L 134.47594,193.50869 L 130.8042,195.40138 L 131.53533,191.33574 L 128.60065,188.42859 L 132.69323,187.86758 L 134.55123,184.17817 L 136.34945,187.89708 L 140.43245,188.52406 L 137.45123,191.38348 L 138.11666,195.46038 z"
       transform="translate(6.508115,23.863088)" />
    <path
       sodipodi:type="star"
       style="fill:url(#linearGradient3884);fill-opacity:1;stroke:none;stroke-width:2.50000000000000000;stroke-linecap:round;stroke-linejoin:round;stroke-miterlimit:4;stroke-dasharray:none;stroke-opacity:1"
       id="path3413"
       sodipodi:sides="5"
       sodipodi:cx="101.96047"
       sodipodi:cy="180.27477"
       sodipodi:r1="3.8941412"
       sodipodi:r2="1.9470707"
       sodipodi:arg1="1.9513027"
       sodipodi:arg2="2.5796212"
       inkscape:flatsided="false"
       inkscape:rounded="0"
       inkscape:randomized="0"
       d="M 100.51422,183.89038 L 100.31285,181.31227 L 98.074899,180.01659 L 100.4646,179.02839 L 101.0053,176.49958 L 102.6836,178.46696 L 105.25572,178.19975 L 103.90326,180.40385 L 104.95222,182.76752 L 102.43806,182.16236 L 100.51422,183.89038 z"
       transform="translate(36.156194,51.341796)" />
    <path
       sodipodi:type="star"
       style="fill:url(#linearGradient3670);fill-opacity:1;stroke:none;stroke-width:2.50000000000000000;stroke-linecap:round;stroke-linejoin:round;stroke-miterlimit:4;stroke-dasharray:none;stroke-opacity:1"
       id="path3415"
       sodipodi:sides="5"
       sodipodi:cx="87.497993"
       sodipodi:cy="198.35287"
       sodipodi:r1="3.6156194"
       sodipodi:r2="1.8078098"
       sodipodi:arg1="-2.4980915"
       sodipodi:arg2="-1.869773"
       inkscape:flatsided="false"
       inkscape:rounded="0"
       inkscape:randomized="0"
       d="M 84.605498,196.1835 L 86.965517,196.62526 L 88.667358,194.93158 L 88.976506,197.3126 L 91.113196,198.40777 L 88.944241,199.43756 L 88.562947,201.8081 L 86.913311,200.06352 L 84.540968,200.43343 L 85.690392,198.32543 L 84.605498,196.1835 z"
       transform="translate(77.655973,44.955708)" />
    <path
       sodipodi:type="star"
       style="fill:url(#linearGradient3668);fill-opacity:1;stroke:none;stroke-width:2.50000000000000000;stroke-linecap:round;stroke-linejoin:round;stroke-miterlimit:4;stroke-dasharray:none;stroke-opacity:1"
       id="path3417"
       sodipodi:sides="5"
       sodipodi:cx="146.79414"
       sodipodi:cy="147.73421"
       sodipodi:r1="6.8601556"
       sodipodi:r2="3.430078"
       sodipodi:arg1="0.32175055"
       sodipodi:arg2="0.95006909"
       inkscape:flatsided="false"
       inkscape:rounded="0"
       inkscape:randomized="0"
       d="M 153.30226,149.90358 L 148.78917,150.52442 L 146.74207,154.59417 L 144.75699,150.49381 L 140.25384,149.80452 L 143.54009,146.64952 L 142.80409,142.15377 L 146.82018,144.30423 L 150.86846,142.21499 L 150.06429,146.69905 L 153.30226,149.90358 z"
       transform="matrix(0.7847991,0,0,0.7178514,91.247079,157.27567)" />
    <path
       sodipodi:type="star"
       style="fill:url(#linearGradient3666);fill-opacity:1;stroke:none;stroke-width:2.50000000000000000;stroke-linecap:round;stroke-linejoin:round;stroke-miterlimit:4;stroke-dasharray:none;stroke-opacity:1"
       id="path3419"
       sodipodi:sides="5"
       sodipodi:cx="153.30226"
       sodipodi:cy="169.42792"
       sodipodi:r1="6.4678168"
       sodipodi:r2="3.2339084"
       sodipodi:arg1="2.677945"
       sodipodi:arg2="3.3062636"
       inkscape:flatsided="false"
       inkscape:rounded="0"
       inkscape:randomized="0"
       d="M 147.51727,172.32041 L 150.1121,168.89779 L 148.76367,164.81989 L 152.82063,166.23008 L 156.28225,163.68751 L 156.19476,167.98167 L 159.68258,170.48817 L 155.57156,171.73193 L 154.26553,175.8236 L 151.81227,172.29812 L 147.51727,172.32041 z"
       transform="matrix(0.9422943,0,0,0.8195064,44.563199,104.68609)" />
    <path
       sodipodi:type="star"
       style="fill:url(#linearGradient3664);fill-opacity:1;stroke:none;stroke-width:2.50000000000000000;stroke-linecap:round;stroke-linejoin:round;stroke-miterlimit:4;stroke-dasharray:none;stroke-opacity:1"
       id="path3423"
       sodipodi:sides="4"
       sodipodi:cx="180.68758"
       sodipodi:cy="220.90149"
       sodipodi:r1="4.0020599"
       sodipodi:r2="2.0010302"
       sodipodi:arg1="0.51914611"
       sodipodi:arg2="1.3045443"
       inkscape:flatsided="false"
       inkscape:rounded="0"
       inkscape:randomized="0"
       d="M 184.16234,222.88707 L 181.21408,222.83201 L 178.702,224.37625 L 178.75705,221.428 L 177.21282,218.91591 L 180.16107,218.97097 L 182.67315,217.42673 L 182.6181,220.37498 L 184.16234,222.88707 z" />
    <path
       sodipodi:type="star"
       style="fill:url(#linearGradient3662);fill-opacity:1;stroke:none;stroke-width:2.50000000000000000;stroke-linecap:round;stroke-linejoin:round;stroke-miterlimit:4;stroke-dasharray:none;stroke-opacity:1"
       id="path3425"
       sodipodi:sides="4"
       sodipodi:cx="195.08302"
       sodipodi:cy="220.40511"
       sodipodi:r1="4.9140544"
       sodipodi:r2="2.4570272"
       sodipodi:arg1="-2.3561945"
       sodipodi:arg2="-1.5707963"
       inkscape:flatsided="false"
       inkscape:rounded="0"
       inkscape:randomized="0"
       d="M 191.60826,216.93034 L 195.08302,217.94808 L 198.55778,216.93034 L 197.54005,220.40511 L 198.55778,223.87987 L 195.08302,222.86213 L 191.60826,223.87987 L 192.626,220.40511 L 191.60826,216.93034 z" />
    <path
       sodipodi:type="star"
       style="fill:url(#linearGradient3886);fill-opacity:1;stroke:none;stroke-width:3.05299997000000012;stroke-linecap:butt;stroke-linejoin:miter;stroke-miterlimit:4;stroke-dasharray:none;stroke-opacity:1"
       id="path3442"
       sodipodi:sides="5"
       sodipodi:cx="140.47963"
       sodipodi:cy="178.70796"
       sodipodi:r1="4.5765305"
       sodipodi:r2="2.2882655"
       sodipodi:arg1="1.3521274"
       sodipodi:arg2="1.9804459"
       inkscape:flatsided="false"
       inkscape:rounded="0"
       inkscape:randomized="0"
       d="M 141.47242,183.17551 L 139.56824,180.8069 L 136.53753,181.03271 L 138.20179,178.48979 L 137.05049,175.67718 L 139.98324,176.47419 L 142.30241,174.51009 L 142.45068,177.54559 L 145.03531,179.14431 L 142.1942,180.22335 L 141.47242,183.17551 z" />
    <path
       sodipodi:type="star"
       style="fill:url(#linearGradient3888);fill-opacity:1;stroke:none;stroke-width:3.05299997000000012;stroke-linecap:butt;stroke-linejoin:miter;stroke-miterlimit:4;stroke-dasharray:none;stroke-opacity:1"
       id="path3444"
       sodipodi:sides="5"
       sodipodi:cx="148.42194"
       sodipodi:cy="163.81613"
       sodipodi:r1="5.1825099"
       sodipodi:r2="2.5912552"
       sodipodi:arg1="-0.29145679"
       sodipodi:arg2="0.33686174"
       inkscape:flatsided="false"
       inkscape:rounded="0"
       inkscape:randomized="0"
       d="M 153.38588,162.32695 L 150.86755,164.67261 L 151.37218,168.07694 L 148.36311,166.40672 L 145.28134,167.93864 L 145.93996,164.56072 L 143.5307,162.10317 L 146.94682,161.68573 L 148.53958,158.63496 L 149.99223,161.75488 L 153.38588,162.32695 z" />
    <path
       sodipodi:type="star"
       style="fill:url(#linearGradient3890);fill-opacity:1;stroke:none;stroke-width:3.05299997000000012;stroke-linecap:butt;stroke-linejoin:miter;stroke-miterlimit:4;stroke-dasharray:none;stroke-opacity:1"
       id="path3446"
       sodipodi:sides="5"
       sodipodi:cx="166.29214"
       sodipodi:cy="150.41348"
       sodipodi:r1="3.3299153"
       sodipodi:r2="1.6649576"
       sodipodi:arg1="0.46364761"
       sodipodi:arg2="1.0919661"
       inkscape:flatsided="false"
       inkscape:rounded="0"
       inkscape:randomized="0"
       d="M 169.27051,151.90267 L 167.05926,151.89119 L 165.79621,153.70626 L 165.12381,151.59969 L 163.00728,150.95935 L 164.80296,149.66889 L 164.75792,147.45807 L 166.54011,148.76709 L 168.62881,148.04107 L 167.93458,150.14055 L 169.27051,151.90267 z" />
    <path
       sodipodi:type="star"
       style="fill:url(#linearGradient3892);fill-opacity:1;stroke:none;stroke-width:3.05299997000000012;stroke-linecap:butt;stroke-linejoin:miter;stroke-miterlimit:4;stroke-dasharray:none;stroke-opacity:1"
       id="path3448"
       sodipodi:sides="5"
       sodipodi:cx="165.79575"
       sodipodi:cy="171.75844"
       sodipodi:r1="2.8944521"
       sodipodi:r2="1.447226"
       sodipodi:arg1="1.0303768"
       sodipodi:arg2="1.6586954"
       inkscape:flatsided="false"
       inkscape:rounded="0"
       inkscape:randomized="0"
       d="M 167.28493,174.24041 L 165.6687,173.20008 L 163.89543,173.94171 L 164.38541,172.0831 L 163.1321,170.6258 L 165.05115,170.51745 L 166.04984,168.87516 L 166.7459,170.6668 L 168.61642,171.10911 L 167.12757,172.32476 L 167.28493,174.24041 z" />
    <path
       sodipodi:type="star"
       style="fill:url(#linearGradient3894);fill-opacity:1;stroke:none;stroke-width:3.05299997000000012;stroke-linecap:butt;stroke-linejoin:miter;stroke-miterlimit:4;stroke-dasharray:none;stroke-opacity:1"
       id="path3450"
       sodipodi:sides="5"
       sodipodi:cx="157.85342"
       sodipodi:cy="195.58537"
       sodipodi:r1="2.6731658"
       sodipodi:r2="1.336583"
       sodipodi:arg1="-2.7610863"
       sodipodi:arg2="-2.1327677"
       inkscape:flatsided="false"
       inkscape:rounded="0"
       inkscape:randomized="0"
       d="M 155.37145,194.59258 L 157.14122,194.45435 L 158.03065,192.91809 L 158.70901,194.55852 L 160.44493,194.92969 L 159.09441,196.08177 L 159.27784,197.84742 L 157.76481,196.91902 L 156.14225,197.63908 L 156.55767,195.91321 L 155.37145,194.59258 z" />
    <path
       sodipodi:type="star"
       style="fill:url(#linearGradient3896);fill-opacity:1;stroke:none;stroke-width:3.05299997000000012;stroke-linecap:butt;stroke-linejoin:miter;stroke-miterlimit:4;stroke-dasharray:none;stroke-opacity:1"
       id="path3452"
       sodipodi:sides="5"
       sodipodi:cx="182.67316"
       sodipodi:cy="139.4928"
       sodipodi:r1="3.1784754"
       sodipodi:r2="1.5892377"
       sodipodi:arg1="0.67474094"
       sodipodi:arg2="1.3030595"
       inkscape:flatsided="false"
       inkscape:rounded="0"
       inkscape:randomized="0"
       d="M 185.15513,141.47838 L 183.09359,141.02541 L 181.55173,142.46687 L 181.34547,140.36626 L 179.49811,139.3453 L 181.43217,138.50001 L 181.83229,136.42756 L 183.23387,138.00576 L 185.32853,137.74588 L 184.26068,139.56655 L 185.15513,141.47838 z" />
    <path
       sodipodi:type="star"
       style="fill:url(#linearGradient3648);fill-opacity:1;stroke:none;stroke-width:3.05299997000000012;stroke-linecap:butt;stroke-linejoin:miter;stroke-miterlimit:4;stroke-dasharray:none;stroke-opacity:1"
       id="path3454"
       sodipodi:sides="5"
       sodipodi:cx="205.01091"
       sodipodi:cy="180.19714"
       sodipodi:r1="2.2199433"
       sodipodi:r2="1.1099718"
       sodipodi:arg1="2.677945"
       sodipodi:arg2="3.3062636"
       inkscape:flatsided="false"
       inkscape:rounded="0"
       inkscape:randomized="0"
       d="M 203.02533,181.18993 L 203.91595,180.01519 L 203.45313,178.61554 L 204.8456,179.09955 L 206.03373,178.22687 L 206.0037,179.70075 L 207.20082,180.56105 L 205.7898,180.98795 L 205.34153,182.39233 L 204.4995,181.18228 L 203.02533,181.18993 z" />
    <path
       sodipodi:type="star"
       style="fill:url(#linearGradient3646);fill-opacity:1;stroke:none;stroke-width:3.05299997;stroke-linecap:butt;stroke-linejoin:miter;stroke-miterlimit:4;stroke-dasharray:none;stroke-opacity:1"
       id="path3456"
       sodipodi:sides="5"
       sodipodi:cx="200.54337"
       sodipodi:cy="195.58537"
       sodipodi:r1="3.613806"
       sodipodi:r2="1.8069032"
       sodipodi:arg1="1.2924967"
       sodipodi:arg2="1.9208152"
       inkscape:flatsided="false"
       inkscape:rounded="0"
       inkscape:randomized="0"
       d="M 201.53615,199.06013 L 199.92375,197.28272 L 197.54546,197.60333 L 198.73762,195.52059 L 197.69777,193.35778 L 200.04697,193.84799 L 201.7826,192.19069 L 202.04232,194.57639 L 204.15485,195.71493 L 201.96616,196.69917 L 201.53615,199.06013 z"
       transform="translate(-2.1060233,3.5100388)" />
    <path
       sodipodi:type="star"
       style="fill:url(#linearGradient3898);fill-opacity:1;stroke:none;stroke-width:3.05299997000000012;stroke-linecap:butt;stroke-linejoin:miter;stroke-miterlimit:4;stroke-dasharray:none;stroke-opacity:1"
       id="path3458"
       sodipodi:sides="5"
       sodipodi:cx="138.49405"
       sodipodi:cy="143.96034"
       sodipodi:r1="4.8889184"
       sodipodi:r2="2.4444592"
       sodipodi:arg1="1.152572"
       sodipodi:arg2="1.7808905"
       inkscape:flatsided="false"
       inkscape:rounded="0"
       inkscape:randomized="0"
       d="M 140.47963,148.42789 L 137.98425,146.35105 L 134.85873,147.22929 L 136.06281,144.21427 L 134.26172,141.51311 L 137.50126,141.72657 L 139.51364,139.17893 L 140.31171,142.32587 L 143.35652,143.45249 L 140.61021,145.18396 L 140.47963,148.42789 z" />
    <path
       sodipodi:type="star"
       style="fill:url(#linearGradient3872);fill-opacity:1;stroke:none;stroke-width:2.50000000000000000;stroke-linecap:round;stroke-linejoin:round;stroke-miterlimit:4;stroke-dasharray:none;stroke-opacity:1"
       id="path3870"
       sodipodi:sides="5"
       sodipodi:cx="128.71605"
       sodipodi:cy="168.70479"
       sodipodi:r1="9.0607166"
       sodipodi:r2="4.5303583"
       sodipodi:arg1="1.0714496"
       sodipodi:arg2="1.6997681"
       inkscape:flatsided="false"
       inkscape:rounded="0"
       inkscape:randomized="0"
       d="M 133.05479,176.65915 L 128.13338,173.19752 L 122.49175,175.28921 L 124.26315,169.53897 L 120.53047,164.81982 L 126.54668,164.72761 L 129.88139,159.71932 L 131.8282,165.41258 L 137.62184,167.03643 L 132.80884,170.64727 L 133.05479,176.65915 z"
       transform="matrix(0.4561565,0,0,0.4086035,104.33787,187.21167)" />
    <path
       sodipodi:type="star"
       style="fill:url(#linearGradient3876);fill-opacity:1;stroke:none;stroke-width:2.50000000000000000;stroke-linecap:round;stroke-linejoin:round;stroke-miterlimit:4;stroke-dasharray:none;stroke-opacity:1"
       id="path3874"
       sodipodi:sides="5"
       sodipodi:cx="146.79414"
       sodipodi:cy="147.73421"
       sodipodi:r1="6.8601556"
       sodipodi:r2="3.430078"
       sodipodi:arg1="0.32175055"
       sodipodi:arg2="0.95006909"
       inkscape:flatsided="false"
       inkscape:rounded="0"
       inkscape:randomized="0"
       d="M 153.30226,149.90358 L 148.78917,150.52442 L 146.74207,154.59417 L 144.75699,150.49381 L 140.25384,149.80452 L 143.54009,146.64952 L 142.80409,142.15377 L 146.82018,144.30423 L 150.86846,142.21499 L 150.06429,146.69905 L 153.30226,149.90358 z"
       transform="matrix(0.7847991,0,0,0.7178514,86.98695,142.75485)" />
  </g>
</svg>
