<?xml version="1.0" encoding="UTF-8" standalone="no"?>
<svg
   width="16"
   height="16"
   id="svg2"
   sodipodi:version="0.32"
   inkscape:version="1.2.2 (b0a8486541, 2022-12-01)"
   version="1.0"
   sodipodi:docname="settings_axislabel.svg"
   inkscape:output_extension="org.inkscape.output.svg.inkscape"
   xmlns:inkscape="http://www.inkscape.org/namespaces/inkscape"
   xmlns:sodipodi="http://sodipodi.sourceforge.net/DTD/sodipodi-0.dtd"
   xmlns="http://www.w3.org/2000/svg"
   xmlns:svg="http://www.w3.org/2000/svg"
   xmlns:rdf="http://www.w3.org/1999/02/22-rdf-syntax-ns#"
   xmlns:cc="http://creativecommons.org/ns#"
   xmlns:dc="http://purl.org/dc/elements/1.1/">
  <defs
     id="defs4" />
  <sodipodi:namedview
     id="base"
     pagecolor="#ffffff"
     bordercolor="#666666"
     borderopacity="1.0"
     gridtolerance="10000"
     guidetolerance="10"
     objecttolerance="10"
     inkscape:pageopacity="0.0"
     inkscape:pageshadow="2"
     inkscape:zoom="41.188972"
     inkscape:cx="-0.27920095"
     inkscape:cy="8.630951"
     inkscape:document-units="px"
     inkscape:current-layer="text3130"
     showgrid="false"
     inkscape:window-width="1920"
     inkscape:window-height="1012"
     inkscape:window-x="0"
     inkscape:window-y="0"
     showguides="true"
     inkscape:guide-bbox="true"
     inkscape:window-maximized="1"
     inkscape:snap-bbox="true"
     inkscape:document-rotation="0"
     inkscape:showpageshadow="2"
     inkscape:pagecheckerboard="true"
     inkscape:deskcolor="#d1d1d1" />
  <metadata
     id="metadata7">
    <rdf:RDF>
      <cc:Work
         rdf:about="">
        <dc:format>image/svg+xml</dc:format>
        <dc:type
           rdf:resource="http://purl.org/dc/dcmitype/StillImage" />
        <dc:creator>
          <cc:Agent>
            <dc:title>Jeremy Sanders</dc:title>
          </cc:Agent>
        </dc:creator>
        <dc:rights>
          <cc:Agent>
            <dc:title>Copyright (C) Jeremy Sanders</dc:title>
          </cc:Agent>
        </dc:rights>
        <cc:license
           rdf:resource="http://creativecommons.org/licenses/GPL/2.0/" />
      </cc:Work>
    </rdf:RDF>
  </metadata>
  <g
     inkscape:label="Layer 1"
     inkscape:groupmode="layer"
     id="layer1">
    <g
       aria-label="xy"
       id="text3130"
       style="font-style:normal;font-variant:normal;font-weight:normal;font-stretch:normal;font-size:13.3333px;line-height:1.25;font-family:sans-serif;-inkscape-font-specification:'sans-serif, Normal';font-variant-ligatures:normal;font-variant-caps:normal;font-variant-numeric:normal;font-feature-settings:normal;text-align:start;letter-spacing:0px;word-spacing:0px;writing-mode:lr-tb;text-anchor:start;fill:#000000;fill-opacity:1;stroke:none">
      <path
         d="M 4.1881223,3.9748456 Q 4.5487054,4.3678692 4.7326764,4.760893 4.8651356,5.0329864 5.166848,6.1893833 L 5.8144259,5.1917075 Q 6.0719852,4.8289164 6.4399272,4.503916 6.807869,4.1713574 7.087505,4.0504271 q 0.1766121,-0.075582 0.3900185,-0.075582 0.3164301,0 0.500401,0.1738374 0.1913298,0.1738374 0.1913298,0.4232564 0,0.2872095 -0.1103825,0.3930237 -0.2060475,0.1889537 -0.4709657,0.1889537 -0.1545357,0 -0.3311478,-0.068023 -0.3458654,-0.1209302 -0.4636069,-0.1209302 -0.1766121,0 -0.4194539,0.2116281 -0.456248,0.3930241 -1.0891081,1.5191883 l 0.6034248,2.6000034 q 0.1398179,0.5970936 0.2354828,0.7180241 0.095665,0.113372 0.1913298,0.113372 0.1545357,0 0.3605832,-0.1738371 Q 7.0801461,9.6056662 7.3671408,9.0463633 L 7.6247002,9.1824104 Q 7.1610933,10.074272 6.447286,10.663808 q -0.4047361,0.332558 -0.6843721,0.332558 -0.4120951,0 -0.6549367,-0.476163 Q 4.9534416,10.225435 4.4677583,7.9806645 3.3197792,10.028923 2.6280484,10.618459 q -0.4488892,0.377907 -0.8683431,0.377907 -0.2943535,0 -0.5371952,-0.219186 -0.1766121,-0.166279 -0.1766121,-0.44593 0,-0.249419 0.1618944,-0.4156987 0.1618945,-0.1662799 0.3973774,-0.1662799 0.2354828,0 0.5004011,0.2418616 0.1913297,0.173838 0.2943534,0.173838 0.088306,0 0.2281241,-0.120931 Q 2.9739138,9.7568301 3.5699798,8.8045027 4.1660458,7.852176 4.3500168,7.4289196 3.8937687,5.5922895 3.8569746,5.4864754 3.6877212,4.9951957 3.4154442,4.7911256 q -0.2722771,-0.20407 -0.8021135,-0.20407 -0.1692533,0 -0.3900184,0.015117 V 4.330079 Z"
         style="font-style:italic;font-variant:normal;font-weight:normal;font-stretch:normal;font-size:14.6667px;line-height:1.25;font-family:'Times New Roman';-inkscape-font-specification:'Times New Roman, Italic';font-variant-ligatures:normal;font-variant-caps:normal;font-variant-numeric:normal;font-variant-east-asian:normal;font-feature-settings:normal;text-align:start;letter-spacing:0px;word-spacing:0px;writing-mode:lr-tb;text-anchor:start;fill:none;fill-opacity:1;stroke:#ffffff;stroke-width:2.9535;stroke-dasharray:none"
         id="path3132-3" />
      <path
         d="m 10.671264,3.9748456 q 0.2502,0.4383726 0.345866,0.8238382 0.09567,0.3779074 0.191329,1.4965135 l 0.323789,3.7186097 q 0.441531,-0.544187 1.280438,-1.7232583 0.404737,-0.5744194 1.000802,-1.5645369 0.360583,-0.6046519 0.441531,-0.8465127 0.04415,-0.1209304 0.04415,-0.249419 0,-0.083139 -0.05152,-0.1360465 -0.0515,-0.052907 -0.272266,-0.1209305 -0.213407,-0.075582 -0.360584,-0.2645351 -0.139818,-0.196512 -0.139818,-0.4459308 0,-0.3098842 0.176613,-0.498838 0.176611,-0.1889536 0.441529,-0.1889536 0.323789,0 0.551913,0.2796515 0.228124,0.2720933 0.228124,0.7558148 0,0.5970938 -0.397377,1.368025 -0.397378,0.7633731 -1.530638,2.3505844 -1.133262,1.5872117 -2.744848,3.4616327 -1.1111887,1.292443 -1.648384,1.625003 -0.5371953,0.340115 -0.919855,0.340115 -0.228124,0 -0.3973772,-0.181395 -0.1766122,-0.173837 -0.1766122,-0.408141 0,-0.294767 0.2428417,-0.536628 0.2354829,-0.241861 0.5151187,-0.241861 0.1471768,0 0.2428418,0.06802 0.058871,0.0378 0.132459,0.211628 0.06623,0.181396 0.1251003,0.241861 0.036794,0.0378 0.088306,0.0378 0.044154,0 0.1545357,-0.07557 0.4047361,-0.256977 0.9419313,-0.81628 0.7064529,-0.740698 1.0449599,-1.209303 L 10.134069,6.4539184 Q 10.031044,5.2672889 9.8249946,5.0103119 9.6189455,4.7533349 9.1332621,4.7533349 q -0.1545356,0 -0.551913,0.045349 l -0.06623,-0.2796517 z"
         style="font-style:italic;font-variant:normal;font-weight:normal;font-stretch:normal;font-size:14.6667px;line-height:1.25;font-family:'Times New Roman';-inkscape-font-specification:'Times New Roman, Italic';font-variant-ligatures:normal;font-variant-caps:normal;font-variant-numeric:normal;font-variant-east-asian:normal;font-feature-settings:normal;text-align:start;letter-spacing:0px;word-spacing:0px;writing-mode:lr-tb;text-anchor:start;fill:none;fill-opacity:1;stroke:#ffffff;stroke-width:2.9535;stroke-dasharray:none"
         id="path3134-6" />
      <path
         d="M 4.1881223,3.9748456 Q 4.5487054,4.3678692 4.7326764,4.760893 4.8651356,5.0329864 5.166848,6.1893833 L 5.8144259,5.1917075 Q 6.0719852,4.8289164 6.4399272,4.503916 6.807869,4.1713574 7.087505,4.0504271 q 0.1766121,-0.075582 0.3900185,-0.075582 0.3164301,0 0.500401,0.1738374 0.1913298,0.1738374 0.1913298,0.4232564 0,0.2872095 -0.1103825,0.3930237 -0.2060475,0.1889537 -0.4709657,0.1889537 -0.1545357,0 -0.3311478,-0.068023 -0.3458654,-0.1209302 -0.4636069,-0.1209302 -0.1766121,0 -0.4194539,0.2116281 -0.456248,0.3930241 -1.0891081,1.5191883 l 0.6034248,2.6000034 q 0.1398179,0.5970936 0.2354828,0.7180241 0.095665,0.113372 0.1913298,0.113372 0.1545357,0 0.3605832,-0.1738371 Q 7.0801461,9.6056662 7.3671408,9.0463633 L 7.6247002,9.1824104 Q 7.1610933,10.074272 6.447286,10.663808 q -0.4047361,0.332558 -0.6843721,0.332558 -0.4120951,0 -0.6549367,-0.476163 Q 4.9534416,10.225435 4.4677583,7.9806645 3.3197792,10.028923 2.6280484,10.618459 q -0.4488892,0.377907 -0.8683431,0.377907 -0.2943535,0 -0.5371952,-0.219186 -0.1766121,-0.166279 -0.1766121,-0.44593 0,-0.249419 0.1618944,-0.4156987 0.1618945,-0.1662799 0.3973774,-0.1662799 0.2354828,0 0.5004011,0.2418616 0.1913297,0.173838 0.2943534,0.173838 0.088306,0 0.2281241,-0.120931 Q 2.9739138,9.7568301 3.5699798,8.8045027 4.1660458,7.852176 4.3500168,7.4289196 3.8937687,5.5922895 3.8569746,5.4864754 3.6877212,4.9951957 3.4154442,4.7911256 q -0.2722771,-0.20407 -0.8021135,-0.20407 -0.1692533,0 -0.3900184,0.015117 V 4.330079 Z"
         style="font-style:italic;font-variant:normal;font-weight:normal;font-stretch:normal;font-size:14.6667px;font-family:'Times New Roman';-inkscape-font-specification:'Times New Roman, Italic';font-variant-ligatures:normal;font-variant-caps:normal;font-variant-numeric:normal;font-variant-east-asian:normal;fill:#000000;stroke:#000000;stroke-width:0.1969;stroke-dasharray:none"
         id="path3132" />
      <path
         d="m 10.671264,3.9748456 q 0.2502,0.4383726 0.345866,0.8238382 0.09567,0.3779074 0.191329,1.4965135 l 0.323789,3.7186097 q 0.441531,-0.544187 1.280438,-1.7232583 0.404737,-0.5744194 1.000802,-1.5645369 0.360583,-0.6046519 0.441531,-0.8465127 0.04415,-0.1209304 0.04415,-0.249419 0,-0.083139 -0.05152,-0.1360465 -0.0515,-0.052907 -0.272266,-0.1209305 -0.213407,-0.075582 -0.360584,-0.2645351 -0.139818,-0.196512 -0.139818,-0.4459308 0,-0.3098842 0.176613,-0.498838 0.176611,-0.1889536 0.441529,-0.1889536 0.323789,0 0.551913,0.2796515 0.228124,0.2720933 0.228124,0.7558148 0,0.5970938 -0.397377,1.368025 -0.397378,0.7633731 -1.530638,2.3505844 -1.133262,1.5872117 -2.744848,3.4616327 -1.1111887,1.292443 -1.648384,1.625003 -0.5371953,0.340115 -0.919855,0.340115 -0.228124,0 -0.3973772,-0.181395 -0.1766122,-0.173837 -0.1766122,-0.408141 0,-0.294767 0.2428417,-0.536628 0.2354829,-0.241861 0.5151187,-0.241861 0.1471768,0 0.2428418,0.06802 0.058871,0.0378 0.132459,0.211628 0.06623,0.181396 0.1251003,0.241861 0.036794,0.0378 0.088306,0.0378 0.044154,0 0.1545357,-0.07557 0.4047361,-0.256977 0.9419313,-0.81628 0.7064529,-0.740698 1.0449599,-1.209303 L 10.134069,6.4539184 Q 10.031044,5.2672889 9.8249946,5.0103119 9.6189455,4.7533349 9.1332621,4.7533349 q -0.1545356,0 -0.551913,0.045349 l -0.06623,-0.2796517 z"
         style="font-style:italic;font-variant:normal;font-weight:normal;font-stretch:normal;font-size:14.6667px;font-family:'Times New Roman';-inkscape-font-specification:'Times New Roman, Italic';font-variant-ligatures:normal;font-variant-caps:normal;font-variant-numeric:normal;font-variant-east-asian:normal;fill:#000000;stroke:#000000;stroke-width:0.1969;stroke-dasharray:none"
         id="path3134" />
    </g>
  </g>
</svg>
