<?xml version="1.0" encoding="UTF-8" standalone="no"?>
<!-- Created with Inkscape (http://www.inkscape.org/) -->

<svg
   xmlns:dc="http://purl.org/dc/elements/1.1/"
   xmlns:cc="http://creativecommons.org/ns#"
   xmlns:rdf="http://www.w3.org/1999/02/22-rdf-syntax-ns#"
   xmlns:svg="http://www.w3.org/2000/svg"
   xmlns="http://www.w3.org/2000/svg"
   xmlns:sodipodi="http://sodipodi.sourceforge.net/DTD/sodipodi-0.dtd"
   xmlns:inkscape="http://www.inkscape.org/namespaces/inkscape"
   width="16"
   height="16"
   id="svg2"
   version="1.1"
   inkscape:version="0.48.0 r9654"
   sodipodi:docname="settings_subcontourline.svg">
  <defs
     id="defs4" />
  <sodipodi:namedview
     id="base"
     pagecolor="#ffffff"
     bordercolor="#666666"
     borderopacity="1.0"
     inkscape:pageopacity="0.0"
     inkscape:pageshadow="2"
     inkscape:zoom="15.59375"
     inkscape:cx="8"
     inkscape:cy="8.4286235"
     inkscape:document-units="px"
     inkscape:current-layer="layer1"
     showgrid="false"
     inkscape:window-width="1280"
     inkscape:window-height="740"
     inkscape:window-x="-4"
     inkscape:window-y="-3"
     inkscape:window-maximized="1" />
  <metadata
     id="metadata7">
    <rdf:RDF>
      <cc:Work
         rdf:about="">
        <dc:format>image/svg+xml</dc:format>
        <dc:type
           rdf:resource="http://purl.org/dc/dcmitype/StillImage" />
        <dc:title />
      </cc:Work>
    </rdf:RDF>
  </metadata>
  <g
     inkscape:label="Layer 1"
     inkscape:groupmode="layer"
     id="layer1"
     transform="translate(0,-1036.3622)">
    <path
       style="fill:none;stroke:#12196f;stroke-width:0.3125;stroke-miterlimit:4;stroke-opacity:1;stroke-dasharray:0.15625, 0.15625;stroke-dashoffset:0"
       d="m 3.6346532,1028.1136 c -6.4657724,0 -11.7073167,5.2414 -11.7073167,11.7073 0,6.4657 5.2415443,11.7073 11.7073167,11.7073 6.4657728,0 11.7073178,-5.2417 11.7073178,-11.7073 0,-6.4659 -5.241545,-11.7073 -11.7073178,-11.7073 z"
       id="path2840" />
    <path
       style="fill:none;stroke:#12196f;stroke-width:0.3125;stroke-miterlimit:4;stroke-opacity:1;stroke-dasharray:0.15625, 0.15625;stroke-dashoffset:0"
       d="m 3.6094919,1030.0332 c 5.4163489,0 9.8129171,4.3839 9.8129171,9.7879 0,5.4038 -4.3965682,9.7876 -9.8129171,9.7876 -5.4163494,0 -9.7625937,-4.3838 -9.7625937,-9.7876 0,-5.404 4.3462443,-9.7879 9.7625937,-9.7879 z"
       id="path3812" />
    <path
       style="fill:none;stroke:#12196f;stroke-width:0.3125;stroke-miterlimit:4;stroke-opacity:1;stroke-dasharray:0.15625, 0.15625;stroke-dashoffset:0"
       d="m 3.6196877,1033.9992 c 3.221654,0 5.8367391,2.6075 5.8367391,5.8218 0,3.2142 -2.6150851,5.8217 -5.8367391,5.8217 -3.22165398,0 -5.8068076,-2.6075 -5.8068076,-5.8217 0,-3.2143 2.58515362,-5.8218 5.8068076,-5.8218 z"
       id="path3812-2" />
    <path
       style="fill:none;stroke:#12196f;stroke-width:0.3125;stroke-miterlimit:4;stroke-opacity:1;stroke-dasharray:0.15625, 0.15625;stroke-dashoffset:0"
       d="m 3.6146057,1032.0218 c 4.3158416,0 7.8191033,3.4932 7.8191033,7.7992 0,4.3058 -3.5032617,7.799 -7.8191033,7.799 -4.31584298,0 -7.7790067,-3.4932 -7.7790067,-7.799 0,-4.306 3.46316372,-7.7992 7.7790067,-7.7992 z"
       id="path3812-2-3" />
  </g>
</svg>
