<?xml version="1.0" encoding="UTF-8" standalone="no"?>
<svg
   width="16"
   height="16"
   id="svg2"
   sodipodi:version="0.32"
   inkscape:version="1.2.2 (b0a8486541, 2022-12-01)"
   version="1.0"
   sodipodi:docname="settings_axisticklabels.svg"
   inkscape:output_extension="org.inkscape.output.svg.inkscape"
   xmlns:inkscape="http://www.inkscape.org/namespaces/inkscape"
   xmlns:sodipodi="http://sodipodi.sourceforge.net/DTD/sodipodi-0.dtd"
   xmlns="http://www.w3.org/2000/svg"
   xmlns:svg="http://www.w3.org/2000/svg"
   xmlns:rdf="http://www.w3.org/1999/02/22-rdf-syntax-ns#"
   xmlns:cc="http://creativecommons.org/ns#"
   xmlns:dc="http://purl.org/dc/elements/1.1/">
  <defs
     id="defs4" />
  <sodipodi:namedview
     id="base"
     pagecolor="#ffffff"
     bordercolor="#666666"
     borderopacity="1.0"
     gridtolerance="10000"
     guidetolerance="10"
     objecttolerance="10"
     inkscape:pageopacity="0.0"
     inkscape:pageshadow="2"
     inkscape:zoom="41.188972"
     inkscape:cx="-1.4445614"
     inkscape:cy="8.6795077"
     inkscape:document-units="px"
     inkscape:current-layer="layer1"
     showgrid="false"
     inkscape:window-width="1920"
     inkscape:window-height="1012"
     inkscape:window-x="0"
     inkscape:window-y="0"
     showguides="true"
     inkscape:guide-bbox="true"
     inkscape:window-maximized="1"
     inkscape:snap-bbox="true"
     inkscape:document-rotation="0"
     inkscape:showpageshadow="2"
     inkscape:pagecheckerboard="true"
     inkscape:deskcolor="#d1d1d1" />
  <metadata
     id="metadata7">
    <rdf:RDF>
      <cc:Work
         rdf:about="">
        <dc:format>image/svg+xml</dc:format>
        <dc:type
           rdf:resource="http://purl.org/dc/dcmitype/StillImage" />
        <dc:creator>
          <cc:Agent>
            <dc:title>Jeremy Sanders</dc:title>
          </cc:Agent>
        </dc:creator>
        <dc:rights>
          <cc:Agent>
            <dc:title>Copyright (C) Jeremy Sanders</dc:title>
          </cc:Agent>
        </dc:rights>
        <cc:license
           rdf:resource="http://creativecommons.org/licenses/GPL/2.0/" />
      </cc:Work>
    </rdf:RDF>
  </metadata>
  <g
     inkscape:label="Layer 1"
     inkscape:groupmode="layer"
     id="layer1">
    <path
       d="M 1.1536546,4.4993752 3.3642511,3.4304123 h 0.2210596 v 7.6022527 q 0,0.756906 0.060289,0.942812 0.066988,0.185907 0.2679511,0.285499 0.2009634,0.09959 0.8172509,0.112873 V 12.61951 H 1.3144252 v -0.245661 q 0.6430827,-0.01328 0.8306484,-0.106232 0.1875658,-0.09959 0.2612523,-0.258942 0.073686,-0.165988 0.073686,-0.97601 V 6.1725348 q 0,-0.9826493 -0.066988,-1.2615091 Q 2.3661324,4.6985609 2.2388561,4.5989681 2.118278,4.4993749 1.9441099,4.4993749 q -0.2478548,0 -0.6899742,0.2058253 z"
       style="font-style:normal;font-variant:normal;font-weight:normal;font-stretch:normal;font-size:12px;line-height:1.25;font-family:'Times New Roman';-inkscape-font-specification:'Times New Roman, Normal';font-variant-ligatures:normal;font-variant-caps:normal;font-variant-numeric:normal;font-variant-east-asian:normal;font-feature-settings:normal;text-align:start;letter-spacing:0px;word-spacing:0px;writing-mode:lr-tb;text-anchor:start;fill:none;fill-opacity:1;stroke:#ffffff;stroke-width:3;stroke-dasharray:none"
       id="path3177-0" />
    <path
       d="m 6.6803771,11.145537 q 0.3148418,0 0.5292027,0.219104 0.2143608,0.212464 0.2143608,0.517882 0,0.305419 -0.2210592,0.524523 -0.2143609,0.212464 -0.5225043,0.212464 -0.3081435,0 -0.5292039,-0.212464 -0.2143608,-0.219104 -0.2143608,-0.524523 0,-0.312057 0.2143608,-0.524522 0.2210604,-0.212464 0.5292039,-0.212464 z"
       style="font-style:normal;font-variant:normal;font-weight:normal;font-stretch:normal;font-size:12px;line-height:1.25;font-family:'Times New Roman';-inkscape-font-specification:'Times New Roman, Normal';font-variant-ligatures:normal;font-variant-caps:normal;font-variant-numeric:normal;font-variant-east-asian:normal;font-feature-settings:normal;text-align:start;letter-spacing:0px;word-spacing:0px;writing-mode:lr-tb;text-anchor:start;fill:none;fill-opacity:1;stroke:#ffffff;stroke-width:3;stroke-dasharray:none"
       id="path3179-6" />
    <path
       d="M 14.765185,10.886596 14.1288,12.61951 H 8.7697793 v -0.245661 q 2.3646677,-2.137926 3.3292917,-3.4923889 0.964624,-1.3544625 0.964624,-2.4765416 0,-0.8564984 -0.529203,-1.4075787 -0.529203,-0.5510804 -1.26607,-0.5510804 -0.669877,0 -1.205778,0.3917319 Q 9.5334397,5.2230835 9.2788865,5.9733495 H 9.0310316 Q 9.1985006,4.7450379 9.8884755,4.0877253 10.585147,3.4304126 11.623458,3.4304126 q 1.105298,0 1.842163,0.7037893 0.743565,0.7037894 0.743565,1.6598806 0,0.6838707 -0.321541,1.3677414 -0.49571,1.0756027 -1.607707,2.2773561 -1.667995,1.80595 -2.083319,2.177763 h 2.371367 q 0.723468,0 1.011515,-0.05311 0.294746,-0.05311 0.529203,-0.212465 0.234457,-0.165989 0.408626,-0.464766 z"
       style="font-style:normal;font-variant:normal;font-weight:normal;font-stretch:normal;font-size:12px;line-height:1.25;font-family:'Times New Roman';-inkscape-font-specification:'Times New Roman, Normal';font-variant-ligatures:normal;font-variant-caps:normal;font-variant-numeric:normal;font-variant-east-asian:normal;font-feature-settings:normal;text-align:start;letter-spacing:0px;word-spacing:0px;writing-mode:lr-tb;text-anchor:start;fill:none;fill-opacity:1;stroke:#ffffff;stroke-width:3;stroke-dasharray:none"
       id="path3181-2" />
    <path
       d="M 1.1536546,4.4993752 3.3642511,3.4304123 h 0.2210596 v 7.6022527 q 0,0.756906 0.060289,0.942812 0.066988,0.185907 0.2679511,0.285499 0.2009634,0.09959 0.8172509,0.112873 V 12.61951 H 1.3144252 v -0.245661 q 0.6430827,-0.01328 0.8306484,-0.106232 0.1875658,-0.09959 0.2612523,-0.258942 0.073686,-0.165988 0.073686,-0.97601 V 6.1725348 q 0,-0.9826493 -0.066988,-1.2615091 Q 2.3661324,4.6985609 2.2388561,4.5989681 2.118278,4.4993749 1.9441099,4.4993749 q -0.2478548,0 -0.6899742,0.2058253 z"
       style="font-style:normal;font-variant:normal;font-weight:normal;font-stretch:normal;font-size:12px;line-height:1.25;font-family:'Times New Roman';-inkscape-font-specification:'Times New Roman, Normal';font-variant-ligatures:normal;font-variant-caps:normal;font-variant-numeric:normal;font-variant-east-asian:normal;font-feature-settings:normal;text-align:start;letter-spacing:0px;word-spacing:0px;writing-mode:lr-tb;text-anchor:start;fill:#000000;fill-opacity:1;stroke:#000000;stroke-width:0.2;stroke-dasharray:none"
       id="path3177" />
    <path
       d="m 6.6803771,11.145537 q 0.3148418,0 0.5292027,0.219104 0.2143608,0.212464 0.2143608,0.517882 0,0.305419 -0.2210592,0.524523 -0.2143609,0.212464 -0.5225043,0.212464 -0.3081435,0 -0.5292039,-0.212464 -0.2143608,-0.219104 -0.2143608,-0.524523 0,-0.312057 0.2143608,-0.524522 0.2210604,-0.212464 0.5292039,-0.212464 z"
       style="font-style:normal;font-variant:normal;font-weight:normal;font-stretch:normal;font-size:12px;line-height:1.25;font-family:'Times New Roman';-inkscape-font-specification:'Times New Roman, Normal';font-variant-ligatures:normal;font-variant-caps:normal;font-variant-numeric:normal;font-variant-east-asian:normal;font-feature-settings:normal;text-align:start;letter-spacing:0px;word-spacing:0px;writing-mode:lr-tb;text-anchor:start;fill:#000000;fill-opacity:1;stroke:#000000;stroke-width:0.2;stroke-dasharray:none"
       id="path3179" />
    <path
       d="M 14.765185,10.886596 14.1288,12.61951 H 8.7697793 v -0.245661 q 2.3646677,-2.137926 3.3292917,-3.4923889 0.964624,-1.3544625 0.964624,-2.4765416 0,-0.8564984 -0.529203,-1.4075787 -0.529203,-0.5510804 -1.26607,-0.5510804 -0.669877,0 -1.205778,0.3917319 Q 9.5334397,5.2230835 9.2788865,5.9733495 H 9.0310316 Q 9.1985006,4.7450379 9.8884755,4.0877253 10.585147,3.4304126 11.623458,3.4304126 q 1.105298,0 1.842163,0.7037893 0.743565,0.7037894 0.743565,1.6598806 0,0.6838707 -0.321541,1.3677414 -0.49571,1.0756027 -1.607707,2.2773561 -1.667995,1.80595 -2.083319,2.177763 h 2.371367 q 0.723468,0 1.011515,-0.05311 0.294746,-0.05311 0.529203,-0.212465 0.234457,-0.165989 0.408626,-0.464766 z"
       style="font-style:normal;font-variant:normal;font-weight:normal;font-stretch:normal;font-size:12px;line-height:1.25;font-family:'Times New Roman';-inkscape-font-specification:'Times New Roman, Normal';font-variant-ligatures:normal;font-variant-caps:normal;font-variant-numeric:normal;font-variant-east-asian:normal;font-feature-settings:normal;text-align:start;letter-spacing:0px;word-spacing:0px;writing-mode:lr-tb;text-anchor:start;fill:#000000;fill-opacity:1;stroke:#000000;stroke-width:0.2;stroke-dasharray:none"
       id="path3181" />
  </g>
</svg>
