<?xml version="1.0" encoding="UTF-8" standalone="no"?>
<svg
   xmlns:dc="http://purl.org/dc/elements/1.1/"
   xmlns:cc="http://creativecommons.org/ns#"
   xmlns:rdf="http://www.w3.org/1999/02/22-rdf-syntax-ns#"
   xmlns:svg="http://www.w3.org/2000/svg"
   xmlns="http://www.w3.org/2000/svg"
   xmlns:sodipodi="http://sodipodi.sourceforge.net/DTD/sodipodi-0.dtd"
   xmlns:inkscape="http://www.inkscape.org/namespaces/inkscape"
   width="16"
   height="16"
   id="svg2"
   sodipodi:version="0.32"
   inkscape:version="1.0.2 (e86c870879, 2021-01-15)"
   version="1.0"
   sodipodi:docname="settings_axisticklabels.svg"
   inkscape:output_extension="org.inkscape.output.svg.inkscape">
  <defs
     id="defs4" />
  <sodipodi:namedview
     id="base"
     pagecolor="#ffffff"
     bordercolor="#666666"
     borderopacity="1.0"
     gridtolerance="10000"
     guidetolerance="10"
     objecttolerance="10"
     inkscape:pageopacity="0.0"
     inkscape:pageshadow="2"
     inkscape:zoom="20.594486"
     inkscape:cx="-2.7198918"
     inkscape:cy="8.5093071"
     inkscape:document-units="px"
     inkscape:current-layer="layer1"
     showgrid="false"
     inkscape:window-width="1920"
     inkscape:window-height="1011"
     inkscape:window-x="0"
     inkscape:window-y="0"
     showguides="true"
     inkscape:guide-bbox="true"
     inkscape:window-maximized="1"
     inkscape:snap-bbox="true"
     inkscape:document-rotation="0" />
  <metadata
     id="metadata7">
    <rdf:RDF>
      <cc:Work
         rdf:about="">
        <dc:format>image/svg+xml</dc:format>
        <dc:type
           rdf:resource="http://purl.org/dc/dcmitype/StillImage" />
        <dc:creator>
          <cc:Agent>
            <dc:title>Jeremy Sanders</dc:title>
          </cc:Agent>
        </dc:creator>
        <dc:rights>
          <cc:Agent>
            <dc:title>Copyright (C) Jeremy Sanders</dc:title>
          </cc:Agent>
        </dc:rights>
        <cc:license
           rdf:resource="http://creativecommons.org/licenses/GPL/2.0/" />
        <dc:title></dc:title>
      </cc:Work>
    </rdf:RDF>
  </metadata>
  <g
     inkscape:label="Layer 1"
     inkscape:groupmode="layer"
     id="layer1">
    <path
       d="M 2.0625743,4.9695207 3.9961681,4.0261614 h 0.1933593 v 6.7089846 q 0,0.667969 0.052734,0.832031 0.058594,0.164063 0.234375,0.251953 0.1757813,0.08789 0.7148438,0.09961 v 0.216796 H 2.2031993 V 11.91874 q 0.5625,-0.01172 0.7265625,-0.09375 0.1640625,-0.08789 0.2285156,-0.228516 0.064453,-0.146484 0.064453,-0.861328 V 6.4460832 q 0,-0.8671875 -0.058594,-1.1132812 -0.041016,-0.1875 -0.1523437,-0.2753906 -0.1054688,-0.087891 -0.2578125,-0.087891 -0.2167969,0 -0.6035157,0.1816407 z"
       style="font-style:normal;font-variant:normal;font-weight:normal;font-stretch:normal;font-size:12px;line-height:1.25;font-family:'Times New Roman';-inkscape-font-specification:'Times New Roman, Normal';font-variant-ligatures:normal;font-variant-caps:normal;font-variant-numeric:normal;font-variant-east-asian:normal;font-feature-settings:normal;text-align:start;letter-spacing:0px;word-spacing:0px;writing-mode:lr-tb;text-anchor:start;fill:#000000;fill-opacity:1;stroke:none"
       id="path3177" />
    <path
       d="m 6.8967609,10.834755 q 0.27539,0 0.46289,0.193359 0.1875,0.1875 0.1875,0.457031 0,0.269532 -0.193359,0.462891 -0.1875,0.1875 -0.457031,0.1875 -0.269531,0 -0.462891,-0.1875 -0.1875,-0.193359 -0.1875,-0.462891 0,-0.27539 0.1875,-0.46289 0.19336,-0.1875 0.462891,-0.1875 z"
       style="font-style:normal;font-variant:normal;font-weight:normal;font-stretch:normal;font-size:12px;line-height:1.25;font-family:'Times New Roman';-inkscape-font-specification:'Times New Roman, Normal';font-variant-ligatures:normal;font-variant-caps:normal;font-variant-numeric:normal;font-variant-east-asian:normal;font-feature-settings:normal;text-align:start;letter-spacing:0px;word-spacing:0px;writing-mode:lr-tb;text-anchor:start;fill:#000000;fill-opacity:1;stroke:none"
       id="path3179" />
    <path
       d="m 13.968487,10.60624 -0.556641,1.529296 H 8.7243468 V 11.91874 q 2.0683592,-1.886719 2.9121092,-3.0820315 0.84375,-1.1953125 0.84375,-2.1855468 0,-0.7558594 -0.462891,-1.2421875 -0.46289,-0.4863282 -1.107422,-0.4863282 -0.585937,0 -1.0546862,0.3457032 Q 9.3923154,5.6081929 9.1696594,6.2703023 H 8.9528624 Q 9.0993464,5.1863179 9.7028628,4.6062398 10.312237,4.0261617 11.22044,4.0261617 q 0.966797,0 1.611328,0.6210937 0.650391,0.6210938 0.650391,1.4648438 0,0.6035156 -0.28125,1.2070312 -0.433594,0.9492188 -1.40625,2.0097656 -1.458984,1.59375 -1.8222652,1.921875 h 2.0742182 q 0.632813,0 0.884766,-0.04687 0.257812,-0.04687 0.46289,-0.1875 0.205078,-0.146485 0.357422,-0.410156 z"
       style="font-style:normal;font-variant:normal;font-weight:normal;font-stretch:normal;font-size:12px;line-height:1.25;font-family:'Times New Roman';-inkscape-font-specification:'Times New Roman, Normal';font-variant-ligatures:normal;font-variant-caps:normal;font-variant-numeric:normal;font-variant-east-asian:normal;font-feature-settings:normal;text-align:start;letter-spacing:0px;word-spacing:0px;writing-mode:lr-tb;text-anchor:start;fill:#000000;fill-opacity:1;stroke:none"
       id="path3181" />
  </g>
</svg>
