<?xml version="1.0" encoding="UTF-8" standalone="no"?>
<!-- Created with Inkscape (http://www.inkscape.org/) -->

<svg
   xmlns:dc="http://purl.org/dc/elements/1.1/"
   xmlns:cc="http://creativecommons.org/ns#"
   xmlns:rdf="http://www.w3.org/1999/02/22-rdf-syntax-ns#"
   xmlns:svg="http://www.w3.org/2000/svg"
   xmlns="http://www.w3.org/2000/svg"
   xmlns:sodipodi="http://sodipodi.sourceforge.net/DTD/sodipodi-0.dtd"
   xmlns:inkscape="http://www.inkscape.org/namespaces/inkscape"
   width="16"
   height="16"
   id="svg2"
   version="1.1"
   inkscape:version="0.48.5 r10040"
   sodipodi:docname="settings_lighting.svg">
  <defs
     id="defs4" />
  <sodipodi:namedview
     id="base"
     pagecolor="#ffffff"
     bordercolor="#666666"
     borderopacity="1.0"
     inkscape:pageopacity="0.0"
     inkscape:pageshadow="2"
     inkscape:zoom="8"
     inkscape:cx="-15.145753"
     inkscape:cy="1.2904028"
     inkscape:document-units="px"
     inkscape:current-layer="layer1"
     showgrid="false"
     inkscape:window-width="1920"
     inkscape:window-height="1025"
     inkscape:window-x="-2"
     inkscape:window-y="-3"
     inkscape:window-maximized="1" />
  <metadata
     id="metadata7">
    <rdf:RDF>
      <cc:Work
         rdf:about="">
        <dc:format>image/svg+xml</dc:format>
        <dc:type
           rdf:resource="http://purl.org/dc/dcmitype/StillImage" />
        <dc:title />
      </cc:Work>
    </rdf:RDF>
  </metadata>
  <g
     inkscape:label="Layer 1"
     inkscape:groupmode="layer"
     id="layer1"
     transform="translate(0,-1036.3622)">
    <path
       sodipodi:type="star"
       style="fill:#ffcc00;stroke:#ffcc00;stroke-width:1;stroke-miterlimit:4;stroke-dasharray:none"
       id="path3976"
       sodipodi:sides="16"
       sodipodi:cx="-147.25"
       sodipodi:cy="-54"
       sodipodi:r1="16.882407"
       sodipodi:r2="0.68309963"
       sodipodi:arg1="2.350959"
       sodipodi:arg2="2.5473085"
       inkscape:flatsided="false"
       inkscape:rounded="0"
       inkscape:randomized="0"
       d="m -159.125,-42 11.30902,-11.617522 -14.99729,6.15971 14.894,-6.405416 -16.2129,-0.04839 16.21151,-0.218144 -14.96026,-6.249112 15.06096,6.002338 -11.43004,-11.49847 11.61752,11.309019 -6.15971,-14.997289 6.40542,14.894004 0.0484,-16.212908 0.21815,16.211512 6.24911,-14.960257 -6.00234,15.060964 L -135.375,-66 l -11.30902,11.617522 14.99729,-6.15971 -14.894,6.405416 16.2129,0.04839 -16.21151,0.218144 14.96026,6.249112 -15.06096,-6.002338 11.43004,11.49847 -11.61752,-11.309019 6.15971,14.997289 -6.40542,-14.894004 -0.0484,16.212908 -0.21815,-16.211512 -6.24911,14.960257 6.00234,-15.060964 z"
       transform="translate(161.5,1092.1122)"
       inkscape:transform-center-x="-1.076579"
       inkscape:transform-center-y="-0.65245778" />
    <path
       sodipodi:type="arc"
       style="fill:#ffcc00;stroke:none"
       id="path3002-2"
       sodipodi:cx="10.549098"
       sodipodi:cy="6.3486972"
       sodipodi:rx="5.0981965"
       sodipodi:ry="4.5210419"
       d="M 10.549098,10.869739 A 5.0981965,4.5210419 0 0 1 5.4509015,6.348697 l 5.0981965,2e-7 z"
       transform="matrix(2.1576257,0,0,2.4330674,-6.6637496,1020.9819)"
       sodipodi:start="1.5707963"
       sodipodi:end="3.1415927"
       inkscape:transform-center-x="1.0976253"
       inkscape:transform-center-y="-4.5900161" />
    <path
       sodipodi:type="arc"
       style="fill:#ffff00;stroke:none"
       id="path3002"
       sodipodi:cx="10.549098"
       sodipodi:cy="6.3486972"
       sodipodi:rx="5.0981965"
       sodipodi:ry="4.5210419"
       d="M 10.549098,10.869739 A 5.0981965,4.5210419 0 0 1 5.4509015,6.348697 l 5.0981965,2e-7 z"
       transform="matrix(1.9614779,0,0,2.2118794,-4.5945672,1022.3862)"
       sodipodi:start="1.5707963"
       sodipodi:end="3.1415927" />
  </g>
</svg>
