<?xml version="1.0" encoding="UTF-8" standalone="no"?>
<svg
   xmlns:dc="http://purl.org/dc/elements/1.1/"
   xmlns:cc="http://creativecommons.org/ns#"
   xmlns:rdf="http://www.w3.org/1999/02/22-rdf-syntax-ns#"
   xmlns:svg="http://www.w3.org/2000/svg"
   xmlns="http://www.w3.org/2000/svg"
   xmlns:sodipodi="http://sodipodi.sourceforge.net/DTD/sodipodi-0.dtd"
   xmlns:inkscape="http://www.inkscape.org/namespaces/inkscape"
   sodipodi:docname="veusz-edit-custom.svg"
   inkscape:version="0.48.5 r10040"
   sodipodi:version="0.32"
   id="svg1"
   x="0"
   y="0"
   version="1.0"
   _SVGFile__filename="oldscale/filesystems/folder_inbox.svg"
   width="60"
   height="60">
  <sodipodi:namedview
     inkscape:current-layer="svg1"
     inkscape:window-y="0"
     inkscape:window-x="0"
     inkscape:window-height="691"
     inkscape:window-width="1020"
     inkscape:cy="27.67543"
     inkscape:cx="37.376578"
     inkscape:zoom="7.2925045"
     inkscape:pageshadow="2"
     inkscape:pageopacity="0.0"
     borderopacity="1.0"
     bordercolor="#666666"
     pagecolor="#ffffff"
     id="base"
     showgrid="false"
     inkscape:window-maximized="0">
    <inkscape:grid
       type="xygrid"
       id="grid3586"
       empspacing="5"
       visible="true"
       enabled="true"
       snapvisiblegridlinesonly="true" />
  </sodipodi:namedview>
  <defs
     id="defs3" />
  <metadata
     id="metadata18">
    <RDF
       id="RDF19">
      <Work
         id="Work20"
         about="">
        <title
           id="title21">Part of the Flat Icon Collection (Thu Aug 26 14:40:13 2004)</title>
        <description
           id="description23" />
        <subject
           id="subject24">
          <Bag
             id="Bag25">
            <li
               id="li26" />
          </Bag>
        </subject>
        <publisher
           id="publisher27">
          <Agent
             id="Agent28"
             about="">
            <title
               id="title29" />
          </Agent>
        </publisher>
        <creator
           id="creator30">
          <Agent
             id="Agent31"
             about="">
            <title
               id="title32">Danny Allen</title>
          </Agent>
        </creator>
        <rights
           id="rights34">
          <Agent
             id="Agent35"
             about="">
            <title
               id="title36">Danny Allen</title>
          </Agent>
        </rights>
        <date
           id="date38" />
        <format
           id="format39">image/svg+xml</format>
        <type
           resource="http://purl.org/dc/dcmitype/StillImage"
           id="type41" />
        <license
           resource="http://creativecommons.org/licenses/LGPL/2.1/"
           id="license42">
          <date
             id="date43" />
        </license>
        <language
           id="language44">en</language>
      </Work>
    </RDF>
    <rdf:RDF>
      <cc:Work
         rdf:about="">
        <dc:format>image/svg+xml</dc:format>
        <dc:type
           rdf:resource="http://purl.org/dc/dcmitype/StillImage" />
        <dc:title />
      </cc:Work>
    </rdf:RDF>
  </metadata>
  <path
     id="path4416"
     style="font-size:40px;font-style:italic;font-weight:normal;fill:#000000;fill-opacity:1;stroke:none;font-family:Bitstream Vera Sans;-inkscape-font-specification:'Times New Roman, Italic'"
     d="m 18.828397,22.832536 -0.343281,1.258694 -2.784383,0 -2.097824,8.334079 c -0.928132,3.674373 -1.862617,6.515966 -2.803454,8.52479 -1.3349801,2.835235 -2.7716701,4.793202 -4.3100729,5.873904 -1.1696934,0.826408 -2.3393875,1.239615 -3.5090858,1.239623 -0.7628397,-8e-6 -1.4112571,-0.228862 -1.9452541,-0.68656 -0.39412982,-0.31786 -0.59119792,-0.731067 -0.59120472,-1.239623 6.8e-6,-0.406857 0.1652897,-0.762851 0.4958491,-1.067982 0.31785802,-0.292429 0.71199402,-0.438641 1.18240932,-0.438636 0.343285,-5e-6 0.6357085,0.108059 0.8772715,0.324209 0.2288575,0.216134 0.343284,0.464058 0.3432801,0.743774 3.9e-6,0.279703 -0.1334937,0.540342 -0.4004935,0.781915 -0.2034207,0.17799 -0.3051332,0.311488 -0.3051379,0.400494 4.7e-6,0.11442 0.044504,0.203418 0.1334979,0.266995 0.1144311,0.089 0.292428,0.13349 0.5339913,0.133498 0.5467088,-8e-6 1.1251989,-0.171647 1.7354718,-0.51492 0.5975633,-0.343287 1.1315541,-0.858207 1.601974,-1.54476 0.4704209,-0.673852 0.9154133,-1.652834 1.3349782,-2.936953 0.1779962,-0.533993 0.6547736,-2.294891 1.4303336,-5.282699 l 3.3183761,-12.911148 -3.3183761,0 0.266996,-1.258694 c 1.0552661,1.7e-5 1.7926811,-0.06991 2.2122501,-0.209781 0.41956,-0.152553 0.800981,-0.432262 1.144268,-0.83913 0.355987,-0.419547 0.813694,-1.195105 1.37312,-2.326676 0.750123,-1.525668 1.468467,-2.708077 2.155037,-3.547228 0.940831,-1.131528 1.926171,-1.977014 2.956022,-2.536459 1.042541,-0.572107 2.021525,-0.858174 2.936952,-0.858201 0.966254,2.7e-5 1.741813,0.247952 2.326678,0.743774 0.584828,0.483161 0.877252,1.010794 0.87727,1.582903 -1.8e-5,0.445017 -0.146229,0.820082 -0.438634,1.125196 -0.292442,0.305162 -0.667508,0.457729 -1.125197,0.457707 -0.394153,2.2e-5 -0.718361,-0.114403 -0.972627,-0.34328 -0.241583,-0.22883 -0.362367,-0.502183 -0.362352,-0.820059 -1.5e-5,-0.2034 0.08263,-0.451324 0.247925,-0.743774 0.165267,-0.305112 0.247909,-0.508537 0.247925,-0.610275 -1.6e-5,-0.177971 -0.05723,-0.311469 -0.17164,-0.400493 -0.165299,-0.127115 -0.406867,-0.190685 -0.724702,-0.190711 -0.801002,2.6e-5 -1.519346,0.254307 -2.155037,0.762845 -0.851856,0.67387 -1.614699,1.729138 -2.288534,3.165804 -0.343291,0.750154 -0.972637,2.612764 -1.888041,5.587838 l 2.803455,0" />
  <path
     id="path4418"
     style="font-size:36px;font-style:normal;font-variant:normal;font-weight:normal;font-stretch:normal;fill:#000000;fill-opacity:1;stroke:none;font-family:Times New Roman;-inkscape-font-specification:'Times New Roman,'"
     d="m 33.040559,47.579258 0,0.705632 c -1.919835,-0.966278 -3.521808,-2.09783 -4.805921,-3.394659 -1.830833,-1.843545 -3.242095,-4.01765 -4.233789,-6.522323 -0.9917,-2.50467 -1.487548,-5.104696 -1.487547,-7.800087 -1e-6,-3.941351 0.972624,-7.533075 2.917881,-10.775183 1.945247,-3.25478 4.481703,-5.581454 7.609376,-6.980029 l 0,0.800987 c -1.563842,0.864583 -2.847962,2.046991 -3.852366,3.547228 -1.004419,1.500283 -1.75455,3.401035 -2.250392,5.702264 -0.495854,2.301264 -0.743778,4.704222 -0.743774,7.208883 -4e-6,2.720821 0.209778,5.193706 0.629348,7.418665 0.330559,1.754544 0.731053,3.159448 1.20148,4.214718 0.470413,1.067979 1.09976,2.091462 1.888041,3.07045 0.800977,0.978978 1.843531,1.913462 3.127663,2.803454" />
  <path
     id="path4420"
     style="font-size:40px;font-style:italic;font-weight:normal;fill:#000000;fill-opacity:1;stroke:none;font-family:Bitstream Vera Sans;-inkscape-font-specification:'Times New Roman, Italic'"
     d="m 39.387255,22.077282 c 0.622982,0.661148 1.093402,1.32228 1.411262,1.983396 0.228845,0.457722 0.60391,1.659201 1.125196,3.604442 l 1.678258,-2.517388 c 0.444982,-0.610261 0.985329,-1.188751 1.621046,-1.735471 0.63569,-0.559404 1.19511,-0.940826 1.678258,-1.144268 0.305123,-0.127123 0.642046,-0.190694 1.01077,-0.190711 0.546689,1.7e-5 0.978967,0.146229 1.296835,0.438636 0.33055,0.29244 0.495833,0.648434 0.495849,1.067982 -1.6e-5,0.48315 -0.09538,0.813717 -0.286067,0.991698 -0.35601,0.317866 -0.76286,0.476793 -1.220551,0.476778 -0.26701,1.5e-5 -0.553077,-0.0572 -0.8582,-0.17164 -0.597577,-0.20341 -0.998069,-0.305123 -1.201481,-0.305138 -0.305151,1.5e-5 -0.667501,0.178012 -1.087053,0.533992 -0.788285,0.661145 -1.729126,1.93891 -2.822526,3.833295 l 1.563832,6.560464 c 0.241555,1.004416 0.444981,1.608334 0.610276,1.811757 0.16527,0.190713 0.330554,0.286068 0.495849,0.286067 0.266983,10e-7 0.578477,-0.146211 0.934484,-0.438636 0.69926,-0.584845 1.296822,-1.347689 1.792686,-2.288534 l 0.667489,0.343279 c -0.801002,1.500264 -1.818128,2.746243 -3.051379,3.73794 -0.699286,0.559419 -1.290491,0.839129 -1.773615,0.839129 -0.711998,0 -1.277774,-0.400494 -1.697329,-1.201481 -0.267005,-0.495847 -0.820067,-2.631811 -1.659188,-6.407896 -1.983401,3.44552 -3.572659,5.664125 -4.767779,6.655821 -0.77556,0.635704 -1.52569,0.953556 -2.250392,0.953556 -0.508563,0 -0.972627,-0.184354 -1.392192,-0.553063 -0.305137,-0.279709 -0.457704,-0.654773 -0.457707,-1.125196 3e-6,-0.419562 0.139857,-0.769199 0.419565,-1.048911 0.279711,-0.279707 0.62299,-0.419562 1.029841,-0.419565 0.406849,3e-6 0.839128,0.203428 1.296836,0.610276 0.330564,0.292425 0.584846,0.438638 0.762844,0.438636 0.152567,2e-6 0.349636,-0.101713 0.591205,-0.305138 0.597558,-0.483133 1.411259,-1.525686 2.441103,-3.127663 1.029834,-1.601967 1.70368,-2.758948 2.021539,-3.470944 -0.788279,-3.089509 -1.214201,-4.723267 -1.277765,-4.901277 -0.292429,-0.826402 -0.673852,-1.411249 -1.144267,-1.754544 -0.470425,-0.343263 -1.163341,-0.514903 -2.078752,-0.51492 -0.292427,1.7e-5 -0.629349,0.01273 -1.01077,0.03815 l 0,-0.68656 5.09199,-0.896343" />
  <path
     id="path4422"
     style="font-size:36px;font-style:normal;font-variant:normal;font-weight:normal;font-stretch:normal;fill:#000000;fill-opacity:1;stroke:none;font-family:Times New Roman;-inkscape-font-specification:'Times New Roman,'"
     d="m 49.471889,13.613596 0,-0.800987 c 1.932537,0.953582 3.540866,2.078777 4.824992,3.375588 1.818106,1.856277 3.223011,4.03674 4.214718,6.541393 0.991687,2.491975 1.487536,5.092002 1.487547,7.800088 -1.1e-5,3.94137 -0.972637,7.533094 -2.917882,10.775182 -1.932546,3.2548 -4.469002,5.581474 -7.609375,6.98003 l 0,-0.705632 c 1.563829,-0.877279 2.847949,-2.066044 3.852366,-3.566299 1.01712,-1.48755 1.76725,-3.381946 2.250392,-5.683193 0.495841,-2.313959 0.743765,-4.723274 0.743773,-7.227955 -8e-6,-2.708087 -0.20979,-5.180972 -0.629347,-7.418664 -0.317859,-1.754525 -0.718352,-3.15943 -1.201481,-4.214718 -0.470425,-1.055246 -1.099772,-2.072371 -1.88804,-3.051379 -0.788276,-0.978959 -1.83083,-1.913442 -3.127663,-2.803454" />
</svg>
