<?xml version="1.0" encoding="UTF-8" standalone="no"?>
<svg
   sodipodi:docname="veusz-edit-custom.svg"
   inkscape:version="1.2.2 (b0a8486541, 2022-12-01)"
   sodipodi:version="0.32"
   id="svg1"
   x="0"
   y="0"
   version="1.0"
   _SVGFile__filename="oldscale/filesystems/folder_inbox.svg"
   width="60"
   height="60"
   xmlns:inkscape="http://www.inkscape.org/namespaces/inkscape"
   xmlns:sodipodi="http://sodipodi.sourceforge.net/DTD/sodipodi-0.dtd"
   xmlns="http://www.w3.org/2000/svg"
   xmlns:svg="http://www.w3.org/2000/svg"
   xmlns:rdf="http://www.w3.org/1999/02/22-rdf-syntax-ns#"
   xmlns:cc="http://creativecommons.org/ns#"
   xmlns:dc="http://purl.org/dc/elements/1.1/">
  <sodipodi:namedview
     inkscape:current-layer="svg1"
     inkscape:window-y="0"
     inkscape:window-x="0"
     inkscape:window-height="691"
     inkscape:window-width="1020"
     inkscape:cy="27.699674"
     inkscape:cx="27.905365"
     inkscape:zoom="7.2925045"
     inkscape:pageshadow="2"
     inkscape:pageopacity="0.0"
     borderopacity="1.0"
     bordercolor="#666666"
     pagecolor="#ffffff"
     id="base"
     showgrid="false"
     inkscape:window-maximized="0"
     inkscape:showpageshadow="2"
     inkscape:pagecheckerboard="true"
     inkscape:deskcolor="#d1d1d1">
    <inkscape:grid
       type="xygrid"
       id="grid3586"
       empspacing="5"
       visible="true"
       enabled="true"
       snapvisiblegridlinesonly="true" />
  </sodipodi:namedview>
  <defs
     id="defs3" />
  <metadata
     id="metadata18">
    <RDF
       id="RDF19">
      <Work
         id="Work20"
         about="">
        <title
           id="title21">Part of the Flat Icon Collection (Thu Aug 26 14:40:13 2004)</title>
        <description
           id="description23" />
        <subject
           id="subject24">
          <Bag
             id="Bag25">
            <li
               id="li26" />
          </Bag>
        </subject>
        <publisher
           id="publisher27">
          <Agent
             id="Agent28"
             about="">
            <title
               id="title29" />
          </Agent>
        </publisher>
        <creator
           id="creator30">
          <Agent
             id="Agent31"
             about="">
            <title
               id="title32">Danny Allen</title>
          </Agent>
        </creator>
        <rights
           id="rights34">
          <Agent
             id="Agent35"
             about="">
            <title
               id="title36">Danny Allen</title>
          </Agent>
        </rights>
        <date
           id="date38" />
        <format
           id="format39">image/svg+xml</format>
        <type
           resource="http://purl.org/dc/dcmitype/StillImage"
           id="type41" />
        <license
           resource="http://creativecommons.org/licenses/LGPL/2.1/"
           id="license42">
          <date
             id="date43" />
        </license>
        <language
           id="language44">en</language>
      </Work>
    </RDF>
    <rdf:RDF>
      <cc:Work
         rdf:about="">
        <dc:format>image/svg+xml</dc:format>
        <dc:type
           rdf:resource="http://purl.org/dc/dcmitype/StillImage" />
      </cc:Work>
    </rdf:RDF>
  </metadata>
  <path
     id="path4416-6"
     style="font-style:italic;font-weight:normal;font-size:40px;font-family:'Bitstream Vera Sans';-inkscape-font-specification:'Times New Roman, Italic';fill:none;fill-opacity:1;stroke:#ffffff;stroke-width:2.15934;stroke-dasharray:none"
     d="m 20.836936,22.345864 -0.367346,1.371118 h -2.979573 l -2.244885,9.07846 c -0.993196,4.00256 -1.99319,7.097958 -2.999981,9.286206 -1.428563,3.088472 -2.9659657,5.22132 -4.6122123,6.398549 -1.2516911,0.90022 -2.5033829,1.350334 -3.7550792,1.350342 -0.8163161,-8e-6 -1.5101888,-0.249303 -2.0816199,-0.747881 -0.421759,-0.346251 -0.632642,-0.796365 -0.6326492,-1.350344 7.2e-6,-0.443196 0.1768768,-0.830987 0.530609,-1.163371 0.3401404,-0.318549 0.761906,-0.47782 1.2652983,-0.477815 0.3673499,-5e-6 0.6802729,0.117711 0.9387698,0.353168 0.2449009,0.235438 0.3673489,0.505506 0.3673448,0.810205 4.1e-6,0.304686 -0.142852,0.588605 -0.4285689,0.851754 -0.2176809,0.193888 -0.3265236,0.33931 -0.3265286,0.436266 5e-6,0.124639 0.047624,0.221587 0.1428563,0.290842 0.122453,0.09695 0.3129277,0.145413 0.5714251,0.145421 0.5850341,-8e-6 1.2040774,-0.186978 1.8571315,-0.560911 0.6394535,-0.373948 1.2108781,-0.93486 1.7142753,-1.682734 0.5033983,-0.73404 0.9795852,-1.800462 1.4285623,-3.199276 0.190474,-0.581688 0.700674,-2.499865 1.5306007,-5.754538 l 3.550998,-14.064343 h -3.550998 l 0.285712,-1.371118 c 1.129241,1.8e-5 1.91835,-0.07616 2.367331,-0.228518 0.448972,-0.166179 0.857131,-0.47087 1.224484,-0.914079 0.380942,-0.45702 0.870735,-1.30185 1.469378,-2.53449 0.802707,-1.661937 1.571408,-2.949957 2.306109,-3.864058 1.006784,-1.232595 2.061198,-2.153598 3.163244,-2.763011 1.115625,-0.623205 2.163237,-0.934823 3.142838,-0.934853 1.03399,3e-5 1.863917,0.270099 2.489782,0.810206 0.625825,0.526316 0.938749,1.101076 0.938768,1.724285 -1.9e-5,0.484765 -0.156479,0.893329 -0.469383,1.225696 -0.312942,0.332418 -0.714301,0.498612 -1.204075,0.498588 -0.421784,2.4e-5 -0.76872,-0.124621 -1.04081,-0.373941 -0.258519,-0.249269 -0.387769,-0.547037 -0.387753,-0.893305 -1.6e-5,-0.221567 0.08842,-0.491635 0.265305,-0.810207 0.176852,-0.332363 0.265287,-0.553957 0.265305,-0.664783 -1.8e-5,-0.193867 -0.06125,-0.339288 -0.183673,-0.436263 -0.176887,-0.13847 -0.435389,-0.207717 -0.775504,-0.207746 -0.857155,2.9e-5 -1.625856,0.277021 -2.306109,0.830981 -0.911573,0.734059 -1.727893,1.883581 -2.448966,3.448567 -0.367356,0.817156 -1.04082,2.84613 -2.020395,6.086931 h 2.999982" />
  <path
     id="path4418-1"
     style="font-style:normal;font-variant:normal;font-weight:normal;font-stretch:normal;font-size:36px;font-family:'Times New Roman';-inkscape-font-specification:'Times New Roman,';fill:none;fill-opacity:1;stroke:#ffffff;stroke-width:2.15934;stroke-dasharray:none"
     d="m 35.311697,49.302909 v 0.768657 C 33.257279,49.018983 31.543004,47.786363 30.168873,46.373704 28.209695,44.365498 26.6995,41.997206 25.638287,39.268822 24.577067,36.54044 24.046459,33.708185 24.04646,30.772048 c -1e-6,-4.293384 1.040807,-8.205913 3.12243,-11.737598 2.081612,-3.545491 4.795879,-6.079978 8.142807,-7.603471 v 0.872529 c -1.673471,0.941807 -3.047609,2.229824 -4.122424,3.86406 -1.074831,1.634284 -1.877547,3.704808 -2.408148,6.211577 -0.530614,2.506808 -0.795918,5.124393 -0.795914,7.852764 -4e-6,2.963839 0.224484,5.657597 0.673467,8.081284 0.353731,1.911256 0.7823,3.441644 1.285705,4.591167 0.50339,1.163369 1.176855,2.278268 2.020397,3.344697 0.857126,1.066418 1.972765,2.084368 3.346917,3.053852" />
  <path
     id="path4420-2"
     style="font-style:italic;font-weight:normal;font-size:40px;font-family:'Bitstream Vera Sans';-inkscape-font-specification:'Times New Roman, Italic';fill:none;fill-opacity:1;stroke:#ffffff;stroke-width:2.15934;stroke-dasharray:none"
     d="m 40.19569,21.523153 c 0.666654,0.7202 1.170052,1.440383 1.510194,2.160548 0.244887,0.498604 0.646245,1.807397 1.204074,3.926383 l 1.795907,-2.742236 c 0.476176,-0.664767 1.054403,-1.294927 1.734684,-1.890479 0.680254,-0.609369 1.27889,-1.024859 1.795907,-1.246471 0.326513,-0.138478 0.687055,-0.207727 1.081627,-0.207745 0.585013,1.8e-5 1.047594,0.159289 1.387746,0.477813 0.353722,0.318561 0.530591,0.706351 0.530608,1.163373 -1.7e-5,0.526303 -0.102066,0.886395 -0.306121,1.080273 -0.380966,0.346258 -0.816337,0.519379 -1.306113,0.519363 -0.285728,1.6e-5 -0.591849,-0.06231 -0.918361,-0.186971 -0.639469,-0.221577 -1.068036,-0.332375 -1.285707,-0.332392 -0.326543,1.7e-5 -0.714295,0.193912 -1.163258,0.581687 -0.843546,0.720197 -1.850341,2.112089 -3.02039,4.175677 l 1.673459,7.146431 c 0.258489,1.094128 0.476175,1.751986 0.653058,1.973578 0.176855,0.207747 0.353726,0.31162 0.530609,0.311619 0.285699,10e-7 0.619029,-0.159271 0.999992,-0.477815 0.74828,-0.637082 1.387732,-1.468061 1.918357,-2.492941 l 0.714281,0.373941 c -0.857153,1.634264 -1.945582,2.991531 -3.265286,4.071804 -0.748307,0.609385 -1.380956,0.914078 -1.897948,0.914078 -0.761911,0 -1.367349,-0.436265 -1.816315,-1.308795 -0.285723,-0.540135 -0.877555,-2.866878 -1.7755,-6.980235 -2.122441,3.753267 -3.823109,6.170033 -5.10201,7.250304 -0.829927,0.692484 -1.632643,1.038726 -2.408148,1.038726 -0.544214,0 -1.040809,-0.20082 -1.489787,-0.602461 -0.326528,-0.304692 -0.48979,-0.713256 -0.489793,-1.225697 3e-6,-0.457035 0.149662,-0.837901 0.448977,-1.142596 0.29932,-0.304691 0.666663,-0.457037 1.102035,-0.45704 0.43537,3e-6 0.897953,0.221597 1.387747,0.664784 0.353737,0.318544 0.625844,0.477817 0.81632,0.477814 0.163263,3e-6 0.374147,-0.110797 0.632649,-0.332392 0.639449,-0.526286 1.510191,-1.661957 2.612229,-3.407019 1.102027,-1.745051 1.823111,-3.005372 2.163253,-3.780961 -0.843539,-3.365458 -1.299319,-5.145139 -1.367339,-5.339049 -0.312929,-0.900214 -0.72109,-1.537298 -1.224482,-1.911255 -0.503403,-0.373923 -1.244893,-0.560894 -2.224476,-0.560912 -0.312926,1.8e-5 -0.673467,0.01387 -1.081626,0.04155 v -0.747883 l 5.448947,-0.976402" />
  <path
     id="path4422-9"
     style="font-style:normal;font-variant:normal;font-weight:normal;font-stretch:normal;font-size:36px;font-family:'Times New Roman';-inkscape-font-specification:'Times New Roman,';fill:none;fill-opacity:1;stroke:#ffffff;stroke-width:2.15934;stroke-dasharray:none"
     d="m 47.612258,12.303508 v -0.872529 c 2.068012,1.038754 3.789087,2.264449 5.163233,3.677088 1.945559,2.022076 3.44895,4.397293 4.510177,7.125657 1.061207,2.714552 1.591816,5.546807 1.591828,8.496774 -1.2e-5,4.293405 -1.040821,8.205934 -3.122431,11.737598 -2.068022,3.545511 -4.782288,6.079998 -8.142807,7.60347 v -0.768657 c 1.673457,-0.955636 3.047596,-2.250578 4.122424,-3.884833 1.088422,-1.620415 1.891138,-3.684014 2.408149,-6.190803 0.530601,-2.520637 0.795905,-5.145146 0.795913,-7.873541 -8e-6,-2.949967 -0.224497,-5.643724 -0.673466,-8.081282 -0.340142,-1.911236 -0.76871,-3.441624 -1.285706,-4.591168 -0.503403,-1.149498 -1.176869,-2.25747 -2.020395,-3.323921 -0.843537,-1.066398 -1.959175,-2.084347 -3.346919,-3.053853" />
  <path
     id="path4416"
     style="font-style:italic;font-weight:normal;font-size:40px;font-family:'Bitstream Vera Sans';-inkscape-font-specification:'Times New Roman, Italic';fill:#000000;fill-opacity:1;stroke:none;stroke-width:1.07966"
     d="m 20.836936,22.345864 -0.367346,1.371118 h -2.979573 l -2.244885,9.07846 c -0.993196,4.00256 -1.99319,7.097958 -2.999981,9.286206 -1.428563,3.088472 -2.9659657,5.22132 -4.6122123,6.398549 -1.2516911,0.90022 -2.5033829,1.350334 -3.7550792,1.350342 -0.8163161,-8e-6 -1.5101888,-0.249303 -2.0816199,-0.747881 -0.421759,-0.346251 -0.632642,-0.796365 -0.6326492,-1.350344 7.2e-6,-0.443196 0.1768768,-0.830987 0.530609,-1.163371 0.3401404,-0.318549 0.761906,-0.47782 1.2652983,-0.477815 0.3673499,-5e-6 0.6802729,0.117711 0.9387698,0.353168 0.2449009,0.235438 0.3673489,0.505506 0.3673448,0.810205 4.1e-6,0.304686 -0.142852,0.588605 -0.4285689,0.851754 -0.2176809,0.193888 -0.3265236,0.33931 -0.3265286,0.436266 5e-6,0.124639 0.047624,0.221587 0.1428563,0.290842 0.122453,0.09695 0.3129277,0.145413 0.5714251,0.145421 0.5850341,-8e-6 1.2040774,-0.186978 1.8571315,-0.560911 0.6394535,-0.373948 1.2108781,-0.93486 1.7142753,-1.682734 0.5033983,-0.73404 0.9795852,-1.800462 1.4285623,-3.199276 0.190474,-0.581688 0.700674,-2.499865 1.5306007,-5.754538 l 3.550998,-14.064343 h -3.550998 l 0.285712,-1.371118 c 1.129241,1.8e-5 1.91835,-0.07616 2.367331,-0.228518 0.448972,-0.166179 0.857131,-0.47087 1.224484,-0.914079 0.380942,-0.45702 0.870735,-1.30185 1.469378,-2.53449 0.802707,-1.661937 1.571408,-2.949957 2.306109,-3.864058 1.006784,-1.232595 2.061198,-2.153598 3.163244,-2.763011 1.115625,-0.623205 2.163237,-0.934823 3.142838,-0.934853 1.03399,3e-5 1.863917,0.270099 2.489782,0.810206 0.625825,0.526316 0.938749,1.101076 0.938768,1.724285 -1.9e-5,0.484765 -0.156479,0.893329 -0.469383,1.225696 -0.312942,0.332418 -0.714301,0.498612 -1.204075,0.498588 -0.421784,2.4e-5 -0.76872,-0.124621 -1.04081,-0.373941 -0.258519,-0.249269 -0.387769,-0.547037 -0.387753,-0.893305 -1.6e-5,-0.221567 0.08842,-0.491635 0.265305,-0.810207 0.176852,-0.332363 0.265287,-0.553957 0.265305,-0.664783 -1.8e-5,-0.193867 -0.06125,-0.339288 -0.183673,-0.436263 -0.176887,-0.13847 -0.435389,-0.207717 -0.775504,-0.207746 -0.857155,2.9e-5 -1.625856,0.277021 -2.306109,0.830981 -0.911573,0.734059 -1.727893,1.883581 -2.448966,3.448567 -0.367356,0.817156 -1.04082,2.84613 -2.020395,6.086931 h 2.999982" />
  <path
     id="path4418"
     style="font-style:normal;font-variant:normal;font-weight:normal;font-stretch:normal;font-size:36px;font-family:'Times New Roman';-inkscape-font-specification:'Times New Roman,';fill:#000000;fill-opacity:1;stroke:none;stroke-width:1.07966"
     d="m 35.311697,49.302909 v 0.768657 C 33.257279,49.018983 31.543004,47.786363 30.168873,46.373704 28.209695,44.365498 26.6995,41.997206 25.638287,39.268822 24.577067,36.54044 24.046459,33.708185 24.04646,30.772048 c -1e-6,-4.293384 1.040807,-8.205913 3.12243,-11.737598 2.081612,-3.545491 4.795879,-6.079978 8.142807,-7.603471 v 0.872529 c -1.673471,0.941807 -3.047609,2.229824 -4.122424,3.86406 -1.074831,1.634284 -1.877547,3.704808 -2.408148,6.211577 -0.530614,2.506808 -0.795918,5.124393 -0.795914,7.852764 -4e-6,2.963839 0.224484,5.657597 0.673467,8.081284 0.353731,1.911256 0.7823,3.441644 1.285705,4.591167 0.50339,1.163369 1.176855,2.278268 2.020397,3.344697 0.857126,1.066418 1.972765,2.084368 3.346917,3.053852" />
  <path
     id="path4420"
     style="font-style:italic;font-weight:normal;font-size:40px;font-family:'Bitstream Vera Sans';-inkscape-font-specification:'Times New Roman, Italic';fill:#000000;fill-opacity:1;stroke:none;stroke-width:1.07966"
     d="m 40.19569,21.523153 c 0.666654,0.7202 1.170052,1.440383 1.510194,2.160548 0.244887,0.498604 0.646245,1.807397 1.204074,3.926383 l 1.795907,-2.742236 c 0.476176,-0.664767 1.054403,-1.294927 1.734684,-1.890479 0.680254,-0.609369 1.27889,-1.024859 1.795907,-1.246471 0.326513,-0.138478 0.687055,-0.207727 1.081627,-0.207745 0.585013,1.8e-5 1.047594,0.159289 1.387746,0.477813 0.353722,0.318561 0.530591,0.706351 0.530608,1.163373 -1.7e-5,0.526303 -0.102066,0.886395 -0.306121,1.080273 -0.380966,0.346258 -0.816337,0.519379 -1.306113,0.519363 -0.285728,1.6e-5 -0.591849,-0.06231 -0.918361,-0.186971 -0.639469,-0.221577 -1.068036,-0.332375 -1.285707,-0.332392 -0.326543,1.7e-5 -0.714295,0.193912 -1.163258,0.581687 -0.843546,0.720197 -1.850341,2.112089 -3.02039,4.175677 l 1.673459,7.146431 c 0.258489,1.094128 0.476175,1.751986 0.653058,1.973578 0.176855,0.207747 0.353726,0.31162 0.530609,0.311619 0.285699,10e-7 0.619029,-0.159271 0.999992,-0.477815 0.74828,-0.637082 1.387732,-1.468061 1.918357,-2.492941 l 0.714281,0.373941 c -0.857153,1.634264 -1.945582,2.991531 -3.265286,4.071804 -0.748307,0.609385 -1.380956,0.914078 -1.897948,0.914078 -0.761911,0 -1.367349,-0.436265 -1.816315,-1.308795 -0.285723,-0.540135 -0.877555,-2.866878 -1.7755,-6.980235 -2.122441,3.753267 -3.823109,6.170033 -5.10201,7.250304 -0.829927,0.692484 -1.632643,1.038726 -2.408148,1.038726 -0.544214,0 -1.040809,-0.20082 -1.489787,-0.602461 -0.326528,-0.304692 -0.48979,-0.713256 -0.489793,-1.225697 3e-6,-0.457035 0.149662,-0.837901 0.448977,-1.142596 0.29932,-0.304691 0.666663,-0.457037 1.102035,-0.45704 0.43537,3e-6 0.897953,0.221597 1.387747,0.664784 0.353737,0.318544 0.625844,0.477817 0.81632,0.477814 0.163263,3e-6 0.374147,-0.110797 0.632649,-0.332392 0.639449,-0.526286 1.510191,-1.661957 2.612229,-3.407019 1.102027,-1.745051 1.823111,-3.005372 2.163253,-3.780961 -0.843539,-3.365458 -1.299319,-5.145139 -1.367339,-5.339049 -0.312929,-0.900214 -0.72109,-1.537298 -1.224482,-1.911255 -0.503403,-0.373923 -1.244893,-0.560894 -2.224476,-0.560912 -0.312926,1.8e-5 -0.673467,0.01387 -1.081626,0.04155 v -0.747883 l 5.448947,-0.976402" />
  <path
     id="path4422"
     style="font-style:normal;font-variant:normal;font-weight:normal;font-stretch:normal;font-size:36px;font-family:'Times New Roman';-inkscape-font-specification:'Times New Roman,';fill:#000000;fill-opacity:1;stroke:none;stroke-width:1.07966"
     d="m 47.612258,12.303508 v -0.872529 c 2.068012,1.038754 3.789087,2.264449 5.163233,3.677088 1.945559,2.022076 3.44895,4.397293 4.510177,7.125657 1.061207,2.714552 1.591816,5.546807 1.591828,8.496774 -1.2e-5,4.293405 -1.040821,8.205934 -3.122431,11.737598 -2.068022,3.545511 -4.782288,6.079998 -8.142807,7.60347 v -0.768657 c 1.673457,-0.955636 3.047596,-2.250578 4.122424,-3.884833 1.088422,-1.620415 1.891138,-3.684014 2.408149,-6.190803 0.530601,-2.520637 0.795905,-5.145146 0.795913,-7.873541 -8e-6,-2.949967 -0.224497,-5.643724 -0.673466,-8.081282 -0.340142,-1.911236 -0.76871,-3.441624 -1.285706,-4.591168 -0.503403,-1.149498 -1.176869,-2.25747 -2.020395,-3.323921 -0.843537,-1.066398 -1.959175,-2.084347 -3.346919,-3.053853" />
</svg>
