<?xml version="1.0" encoding="UTF-8" standalone="no"?>
<svg
   xmlns:dc="http://purl.org/dc/elements/1.1/"
   xmlns:cc="http://creativecommons.org/ns#"
   xmlns:rdf="http://www.w3.org/1999/02/22-rdf-syntax-ns#"
   xmlns:svg="http://www.w3.org/2000/svg"
   xmlns="http://www.w3.org/2000/svg"
   xmlns:sodipodi="http://sodipodi.sourceforge.net/DTD/sodipodi-0.dtd"
   xmlns:inkscape="http://www.inkscape.org/namespaces/inkscape"
   sodipodi:docname="veusz-edit-prefs.svg"
   inkscape:version="0.48.0 r9654"
   sodipodi:version="0.32"
   id="svg1"
   x="0"
   y="0"
   version="1.0"
   _SVGFile__filename="oldscale/filesystems/folder_inbox.svg"
   width="60"
   height="60">
  <sodipodi:namedview
     inkscape:current-layer="svg1"
     inkscape:window-y="0"
     inkscape:window-x="0"
     inkscape:window-height="691"
     inkscape:window-width="1020"
     inkscape:cy="30.929828"
     inkscape:cx="23.487118"
     inkscape:zoom="7.2925045"
     inkscape:pageshadow="2"
     inkscape:pageopacity="0.0"
     borderopacity="1.0"
     bordercolor="#666666"
     pagecolor="#ffffff"
     id="base"
     showgrid="false"
     inkscape:window-maximized="0">
    <inkscape:grid
       type="xygrid"
       id="grid3586"
       empspacing="5"
       visible="true"
       enabled="true"
       snapvisiblegridlinesonly="true" />
  </sodipodi:namedview>
  <defs
     id="defs3" />
  <metadata
     id="metadata18">
    <RDF
       id="RDF19">
      <Work
         id="Work20"
         about="">
        <title
           id="title21">Part of the Flat Icon Collection (Thu Aug 26 14:40:13 2004)</title>
        <description
           id="description23" />
        <subject
           id="subject24">
          <Bag
             id="Bag25">
            <li
               id="li26" />
          </Bag>
        </subject>
        <publisher
           id="publisher27">
          <Agent
             id="Agent28"
             about="">
            <title
               id="title29" />
          </Agent>
        </publisher>
        <creator
           id="creator30">
          <Agent
             id="Agent31"
             about="">
            <title
               id="title32">Danny Allen</title>
          </Agent>
        </creator>
        <rights
           id="rights34">
          <Agent
             id="Agent35"
             about="">
            <title
               id="title36">Danny Allen</title>
          </Agent>
        </rights>
        <date
           id="date38" />
        <format
           id="format39">image/svg+xml</format>
        <type
           resource="http://purl.org/dc/dcmitype/StillImage"
           id="type41" />
        <license
           resource="http://creativecommons.org/licenses/LGPL/2.1/"
           id="license42">
          <date
             id="date43" />
        </license>
        <language
           id="language44">en</language>
      </Work>
    </RDF>
    <rdf:RDF>
      <cc:Work
         rdf:about="">
        <dc:format>image/svg+xml</dc:format>
        <dc:type
           rdf:resource="http://purl.org/dc/dcmitype/StillImage" />
        <dc:title />
      </cc:Work>
    </rdf:RDF>
  </metadata>
  <path
     sodipodi:type="inkscape:offset"
     inkscape:radius="1.3603579"
     inkscape:original="M 7.59375 5.875 C 6.2104806 6.0359442 4.8443367 6.4117125 3.5625 7 C 4.482393 7.6880764 5.286559 8.574301 6.28125 9.375 C 13.559774 15.234004 13.141234 19.174097 11.09375 21.25 C 9.0462674 23.325905 4.402577 24.939688 -1.125 16.875 C -1.788146 15.907473 -2.643529 15.161963 -3.28125 14.28125 C -5.340572 19.407806 -4.262807 25.591042 -0.09375 29.875 C 3.979358 34.060366 9.8538374 35.221253 14.8125 33.34375 L 41.4375 60.6875 L 45.09375 61.4375 C 48.755374 62.167784 50.179735 59.476287 51.09375 57.34375 C 51.568572 56.235918 50.1875 51.8125 50.1875 51.8125 L 23.0625 23.9375 C 24.225305 19.235645 23.018931 13.932723 19.34375 10.15625 C 16.114252 6.837745 11.743558 5.3921673 7.59375 5.875 z "
     style="fill:none;stroke:#ffffff;stroke-width:2;stroke-linecap:butt;stroke-linejoin:miter;stroke-miterlimit:4;stroke-opacity:1;stroke-dasharray:none"
     id="path3623"
     d="M 7.4375,4.53125 C 5.9149187,4.7084032 4.4152665,5.1004761 3,5.75 A 1.3604939,1.3604939 0 0 0 2.75,8.09375 c 0.7757637,0.5802682 1.5898537,1.4601748 2.6875,2.34375 3.5133112,2.828115 5.006178,5.103803 5.4375,6.65625 0.431322,1.552447 0.0041,2.422904 -0.75,3.1875 -0.7864422,0.797359 -2.0119029,1.514144 -3.625,1.25 C 4.8869029,21.267106 2.6394331,19.94466 0,16.09375 -0.78732294,14.945049 -1.6748038,14.1768 -2.1875,13.46875 a 1.3604939,1.3604939 0 0 0 -2.34375,0.3125 c -2.2615417,5.62997 -1.0748736,12.362402 3.46875,17.03125 4.2032406,4.319085 10.173022,5.616887 15.4375,4 L 40.46875,61.625 a 1.3604939,1.3604939 0 0 0 0.6875,0.40625 l 3.65625,0.75 c 2.178363,0.434458 4.026675,-0.223043 5.21875,-1.3125 1.192075,-1.089457 1.836331,-2.482774 2.3125,-3.59375 0.341905,-0.797717 0.228552,-1.34219 0.15625,-2 -0.0723,-0.65781 -0.193725,-1.378327 -0.34375,-2.03125 C 51.856201,52.537903 51.5,51.40625 51.5,51.40625 A 1.3604939,1.3604939 0 0 0 51.15625,50.875 L 24.46875,23.4375 C 25.421782,18.50009 24.120776,13.131986 20.3125,9.21875 16.792868,5.6021142 12.005835,3.9997214 7.4375,4.53125 z"
     transform="translate(6.719228,-3.4281775)" />
  <path
     style="fill:#ac9393;fill-rule:evenodd;stroke:#000000;stroke-width:2;stroke-linecap:butt;stroke-linejoin:miter;stroke-miterlimit:4;stroke-opacity:1;stroke-dasharray:none"
     d="M 26.13597,6.8428268 C 21.829973,2.4181532 15.483785,1.3426128 10.356438,3.6957629 c 0.919893,0.6880753 1.708921,1.5690705 2.703612,2.3697696 7.278525,5.8590035 6.858662,9.7818705 4.811178,11.8577735 -2.047483,2.075905 -6.68481,3.710859 -12.2123866,-4.353829 C 4.9956947,12.60195 4.1519729,11.83814 3.5142525,10.957427 1.4549299,16.083983 2.5237383,22.271936 6.6927947,26.555894 c 4.0731083,4.185366 9.9425943,5.347153 14.9012573,3.46965 l 26.625361,27.359173 3.669006,0.731758 c 3.661624,0.730284 5.078406,-1.966731 5.992421,-4.099268 0.474822,-1.107832 -0.899998,-5.515541 -0.899998,-5.515541 L 29.838871,20.611645 C 31.001676,15.90979 29.811147,10.619299 26.13597,6.8428268 z"
     id="rect3366"
     sodipodi:nodetypes="ccssscsccssccc" />
  <path
     style="fill:none;stroke:#000000;stroke-width:2;stroke-linecap:butt;stroke-linejoin:miter;stroke-miterlimit:4;stroke-opacity:1;stroke-dasharray:none"
     d="M 49.252412,53.723114 25.902888,29.864677"
     id="path3378"
     sodipodi:nodetypes="cc" />
  <path
     style="fill:none;stroke:#000000;stroke-width:2;stroke-linecap:butt;stroke-linejoin:miter;stroke-miterlimit:4;stroke-opacity:1;stroke-dasharray:none"
     d="M 53.965197,49.623028 30.151879,25.055423"
     id="path3378-7"
     sodipodi:nodetypes="cc" />
</svg>
