<?xml version="1.0" encoding="UTF-8" standalone="no"?>
<svg
   xmlns:dc="http://purl.org/dc/elements/1.1/"
   xmlns:cc="http://creativecommons.org/ns#"
   xmlns:rdf="http://www.w3.org/1999/02/22-rdf-syntax-ns#"
   xmlns:svg="http://www.w3.org/2000/svg"
   xmlns="http://www.w3.org/2000/svg"
   xmlns:sodipodi="http://sodipodi.sourceforge.net/DTD/sodipodi-0.dtd"
   xmlns:inkscape="http://www.inkscape.org/namespaces/inkscape"
   sodipodi:docname="kde-zoom-out.svg"
   inkscape:version="0.48.0 r9654"
   sodipodi:version="0.32"
   id="svg1"
   x="0"
   y="0"
   version="1.0"
   _SVGFile__filename="oldscale/actions/viewmag-.svg"
   width="60"
   height="60">
  <sodipodi:namedview
     inkscape:current-layer="svg1"
     inkscape:window-y="0"
     inkscape:window-x="0"
     inkscape:window-height="691"
     inkscape:window-width="1020"
     inkscape:cy="30.184209"
     inkscape:cx="123.61759"
     inkscape:zoom="2.4559706"
     inkscape:pageshadow="2"
     inkscape:pageopacity="0.0"
     borderopacity="1.0"
     bordercolor="#666666"
     pagecolor="#ffffff"
     id="base" />
  <defs
     id="defs3" />
  <metadata
     id="metadata12">
    <RDF
       id="RDF13">
      <Work
         id="Work14"
         about="">
        <title
           id="title15">Part of the Flat Icon Collection (Thu Aug 26 14:38:01 2004)</title>
        <description
           id="description17" />
        <subject
           id="subject18">
          <Bag
             id="Bag19">
            <li
               id="li20" />
          </Bag>
        </subject>
        <publisher
           id="publisher21">
          <Agent
             id="Agent22"
             about="">
            <title
               id="title23" />
          </Agent>
        </publisher>
        <creator
           id="creator24">
          <Agent
             id="Agent25"
             about="">
            <title
               id="title26">Danny Allen</title>
          </Agent>
        </creator>
        <rights
           id="rights28">
          <Agent
             id="Agent29"
             about="">
            <title
               id="title30">Danny Allen</title>
          </Agent>
        </rights>
        <date
           id="date32" />
        <format
           id="format33">image/svg+xml</format>
        <type
           resource="http://purl.org/dc/dcmitype/StillImage"
           id="type35" />
        <license
           resource="http://creativecommons.org/licenses/LGPL/2.1/"
           id="license36">
          <date
             id="date37" />
        </license>
        <language
           id="language38">en</language>
      </Work>
    </RDF>
    <rdf:RDF>
      <cc:Work
         rdf:about="">
        <dc:format>image/svg+xml</dc:format>
        <dc:type
           rdf:resource="http://purl.org/dc/dcmitype/StillImage" />
      </cc:Work>
    </rdf:RDF>
  </metadata>
  <path
     transform="matrix(1.000310,0.000000,0.000000,1.000310,1.229048e-2,-1.988434e-4)"
     id="path1096"
     d="M 24.656250,4.6875000 C 13.637738,4.6875010 4.7187530,13.637728 4.7187500,24.656250 C 4.7187500,35.674771 13.637741,44.625000 24.656250,44.625000 C 29.180900,44.625000 33.338440,43.040411 36.687500,40.500000 C 45.913240,53.936500 52.386970,56.790399 54.593750,54.656250 C 56.857480,52.447361 53.372770,46.144104 40.687500,36.468750 C 43.138880,33.153546 44.625000,29.092829 44.625000,24.656250 C 44.625000,13.637729 35.674770,4.6875010 24.656250,4.6875000 z "
     style="font-size:12.000000;fill:none;fill-opacity:1.0000000;fill-rule:evenodd;stroke:#ffffff;stroke-width:8.1224833;stroke-linecap:round;stroke-linejoin:round;stroke-miterlimit:4.0000000;stroke-opacity:1.0000000;" />
  <path
     transform="matrix(0.969106,0.000000,0.000000,0.969106,0.687334,0.895520)"
     id="path1201"
     d="M 31.913680,32.618870 C 44.251640,53.717920 52.965610,58.090200 55.644410,55.499570 C 58.416270,52.794860 53.750530,44.426660 33.534360,30.966260 L 31.913680,32.618870 z "
     style="stroke-opacity:1.0000000;stroke-linejoin:round;stroke-linecap:round;stroke-width:3.2246218;stroke:#000000;fill-rule:evenodd;fill-opacity:1.0000000;fill:#a49fcc;font-size:12.000000" />
  <path
     id="path1202"
     d="M 44.658596,24.655790 C 44.658596,35.677723 35.713253,44.623056 24.691320,44.623056 C 13.669396,44.623056 4.7240570,35.677723 4.7240570,24.655790 C 4.7240570,13.633856 13.669396,4.6885224 24.691320,4.6885214 C 35.713253,4.6885224 44.658596,13.633856 44.658596,24.655790 z "
     style="stroke-opacity:1.0000000;stroke-linejoin:round;stroke-linecap:round;stroke-width:3.1250002;stroke:#000000;fill-rule:evenodd;fill-opacity:1.0000000;fill:#a49fcc;font-size:12.000000" />
  <path
     id="path1203"
     d="M 40.409878,24.655797 C 40.409878,33.332429 33.367974,40.374333 24.691342,40.374333 C 16.014700,40.374333 8.9727980,33.332429 8.9727990,24.655797 C 8.9727980,15.979165 16.014700,8.9372590 24.691342,8.9372590 C 33.367974,8.9372590 40.409878,15.979165 40.409878,24.655797 z "
     style="stroke-opacity:1.0000000;stroke-linejoin:round;stroke-linecap:round;stroke-width:2.5000010;stroke:#000000;fill-rule:evenodd;fill-opacity:1.0000000;fill:#c0b8db;font-size:12.000000" />
  <path
     id="path839"
     d="M 20.134094,22.074621 L 29.267494,22.074621 C 30.074304,22.074621 30.698334,22.314141 31.139554,22.793191 C 31.593384,23.259631 31.820304,23.871041 31.820304,24.627431 C 31.820304,25.409031 31.593384,26.039361 31.139554,26.518401 C 30.685724,26.997451 30.061704,27.236971 29.267494,27.236971 L 20.134094,27.236971 C 19.339884,27.236971 18.709564,27.003751 18.243124,26.537311 C 17.789294,26.058271 17.562374,25.421641 17.562374,24.627431 C 17.562374,23.858441 17.789294,23.240721 18.243124,22.774281 C 18.696954,22.307841 19.327284,22.074621 20.134094,22.074621 z "
     style="font-size:12.000000;font-weight:900;fill:#000000;fill-opacity:1.0000000;stroke-width:1.0000000;font-family:VAG Rounded Black SSi" />
</svg>
