<?xml version="1.0" encoding="UTF-8" standalone="no"?>
<svg
   xmlns:dc="http://purl.org/dc/elements/1.1/"
   xmlns:cc="http://creativecommons.org/ns#"
   xmlns:rdf="http://www.w3.org/1999/02/22-rdf-syntax-ns#"
   xmlns:svg="http://www.w3.org/2000/svg"
   xmlns="http://www.w3.org/2000/svg"
   xmlns:sodipodi="http://sodipodi.sourceforge.net/DTD/sodipodi-0.dtd"
   xmlns:inkscape="http://www.inkscape.org/namespaces/inkscape"
   height="60"
   width="60"
   _SVGFile__filename="oldscale/actions/ark_new.svg"
   version="1.0"
   y="0"
   x="0"
   id="svg1"
   sodipodi:version="0.32"
   inkscape:version="0.48.0 r9654"
   sodipodi:docname="kde-dataset-new-veuszedit.svg"
   inkscape:output_extension="org.inkscape.output.svg.inkscape">
  <sodipodi:namedview
     id="base"
     pagecolor="#ffffff"
     bordercolor="#666666"
     borderopacity="1.0"
     inkscape:pageopacity="0.0"
     inkscape:pageshadow="2"
     inkscape:zoom="7.220739"
     inkscape:cx="19.650102"
     inkscape:cy="24.184726"
     inkscape:window-width="1020"
     inkscape:window-height="768"
     inkscape:window-x="0"
     inkscape:window-y="0"
     inkscape:current-layer="svg1"
     showgrid="false" />
  <defs
     id="defs3" />
  <path
     style="font-size:12.000000;fill:none;fill-opacity:1.0000000;fill-rule:evenodd;stroke:#ffffff;stroke-width:8.1250000;stroke-linejoin:round;stroke-opacity:1.0000000;stroke-miterlimit:4.0000000;stroke-dasharray:none;"
     d="M 6.6825810,4.6879174 C 5.5771860,4.6879174 4.6872830,5.5841544 4.6872830,6.6974174 L 4.6872830,53.302583 C 4.6872830,54.415846 5.5771860,55.312083 6.6825810,55.312083 L 53.317412,55.312083 C 54.422807,55.312083 55.312710,54.415846 55.312710,53.302583 L 55.312710,6.6974174 C 55.312710,5.5841544 54.422807,4.6879174 53.317412,4.6879174 L 6.6825810,4.6879174 z "
     id="path1099" />
  <path
     style="font-size:12;fill:#ececec;fill-opacity:1;fill-rule:evenodd;stroke:#000000;stroke-width:3.12499899999999986;stroke-linejoin:round;stroke-opacity:1"
     d="M 6.6825844,4.6879174 C 5.5771893,4.6879174 4.6872864,5.5841544 4.6872864,6.6974174 L 4.6872864,53.302583 C 4.6872864,54.415846 5.5771893,55.312083 6.6825844,55.312083 L 53.317416,55.312083 C 54.422811,55.312083 55.312714,54.415846 55.312714,53.302583 L 55.312714,6.6974174 C 55.312714,5.5841544 54.422811,4.6879174 53.317416,4.6879174 L 6.6825844,4.6879174 z "
     id="rect812" />
  <g
     transform="matrix(0.6490175,0,0,0.5940192,15.653602,11.486975)"
     id="g2087">
    <path
       style="font-size:12px;font-weight:900;fill:#62b01e;fill-opacity:1;stroke:#ffffff;stroke-width:5.32670641;stroke-linecap:round;stroke-linejoin:round;stroke-miterlimit:4;stroke-opacity:1;font-family:VAG Rounded Black SSi"
       d="M 25.256462,25.222705 L 25.256462,14.469368 C 25.256462,12.965076 25.66489,11.742838 26.481735,10.802653 C 27.29858,9.8389672 28.4655,9.3571213 29.982495,9.3571213 C 31.4995,9.3571213 32.66642,9.8389672 33.483266,10.802653 C 34.323446,11.742838 34.743546,12.965076 34.743546,14.469368 L 34.743546,25.222705 L 45.280854,25.222705 C 46.821184,25.222705 48.034784,25.645785 48.921644,26.491945 C 49.831849,27.314604 50.286947,28.478084 50.286947,29.982376 C 50.286947,31.510169 49.831849,32.69715 48.921644,33.543311 C 48.034784,34.389481 46.821184,34.812561 45.280854,34.812561 L 34.743546,34.812561 L 34.743546,45.530641 C 34.743546,47.058434 34.323446,48.292428 33.483266,49.232612 C 32.643085,50.172797 31.476155,50.64288 29.982495,50.64288 C 28.488835,50.64288 27.321915,50.172797 26.481735,49.232612 C 25.66489,48.292428 25.256462,47.058434 25.256462,45.530641 L 25.256462,34.812561 L 14.719154,34.812561 C 13.225494,34.812561 12.011894,34.354224 11.078364,33.437541 C 10.168159,32.497366 9.713059,31.345641 9.713059,29.982376 C 9.713059,28.478084 10.156486,27.314604 11.043356,26.491945 C 11.953551,25.645785 13.178814,25.222705 14.719154,25.222705 L 25.256462,25.222705 z"
       id="path2085" />
    <path
       style="font-size:12px;font-weight:900;fill:#62b01e;fill-opacity:1;stroke-width:1;font-family:VAG Rounded Black SSi"
       d="M 25.256462,25.222705 L 25.256462,14.469368 C 25.256462,12.965076 25.66489,11.742838 26.481735,10.802653 C 27.29858,9.8389672 28.4655,9.3571213 29.982495,9.3571213 C 31.4995,9.3571213 32.66642,9.8389672 33.483266,10.802653 C 34.323446,11.742838 34.743546,12.965076 34.743546,14.469368 L 34.743546,25.222705 L 45.280854,25.222705 C 46.821184,25.222705 48.034784,25.645785 48.921644,26.491945 C 49.831849,27.314604 50.286947,28.478084 50.286947,29.982376 C 50.286947,31.510169 49.831849,32.69715 48.921644,33.543311 C 48.034784,34.389481 46.821184,34.812561 45.280854,34.812561 L 34.743546,34.812561 L 34.743546,45.530641 C 34.743546,47.058434 34.323446,48.292428 33.483266,49.232612 C 32.643085,50.172797 31.476155,50.64288 29.982495,50.64288 C 28.488835,50.64288 27.321915,50.172797 26.481735,49.232612 C 25.66489,48.292428 25.256462,47.058434 25.256462,45.530641 L 25.256462,34.812561 L 14.719154,34.812561 C 13.225494,34.812561 12.011894,34.354224 11.078364,33.437541 C 10.168159,32.497366 9.713059,31.345641 9.713059,29.982376 C 9.713059,28.478084 10.156486,27.314604 11.043356,26.491945 C 11.953551,25.645785 13.178814,25.222705 14.719154,25.222705 L 25.256462,25.222705 z"
       id="path838" />
  </g>
  <metadata
     id="metadata14">
    <RDF
       id="RDF15">
      <Work
         about=""
         id="Work16">
        <title
           id="title17">Part of the Flat Icon Collection (Thu Aug 26 14:38:01 2004)</title>
        <description
           id="description19" />
        <subject
           id="subject20">
          <Bag
             id="Bag21">
            <li
               id="li22" />
          </Bag>
        </subject>
        <publisher
           id="publisher23">
          <Agent
             about=""
             id="Agent24">
            <title
               id="title25" />
          </Agent>
        </publisher>
        <creator
           id="creator26">
          <Agent
             about=""
             id="Agent27">
            <title
               id="title28">Danny Allen</title>
          </Agent>
        </creator>
        <rights
           id="rights30">
          <Agent
             about=""
             id="Agent31">
            <title
               id="title32">Danny Allen</title>
          </Agent>
        </rights>
        <date
           id="date34" />
        <format
           id="format35">image/svg+xml</format>
        <type
           id="type37"
           resource="http://purl.org/dc/dcmitype/StillImage" />
        <license
           id="license38"
           resource="http://creativecommons.org/licenses/LGPL/2.1/">
          <date
             id="date39" />
        </license>
        <language
           id="language40">en</language>
      </Work>
    </RDF>
    <rdf:RDF>
      <cc:Work
         rdf:about="">
        <dc:format>image/svg+xml</dc:format>
        <dc:type
           rdf:resource="http://purl.org/dc/dcmitype/StillImage" />
      </cc:Work>
    </rdf:RDF>
  </metadata>
  <path
     style="font-size:13px;font-style:normal;font-weight:normal;fill:none;fill-opacity:1;stroke:none;stroke-width:1px;stroke-linecap:butt;stroke-linejoin:miter;stroke-opacity:1;font-family:Bitstream Vera Sans"
     d="M 10.677788,16.434118 L 12.772515,16.434118 L 12.772515,9.2041382 L 10.493706,9.661169 L 10.493706,8.4932002 L 12.75982,8.0361692 L 14.042046,8.0361692 L 14.042046,16.434118 L 16.136773,16.434118 L 16.136773,17.51322 L 10.677788,17.51322 L 10.677788,16.434118 M 11.560113,32.684118 L 16.03521,32.684118 L 16.03521,33.76322 L 10.017632,33.76322 L 10.017632,32.684118 C 10.504284,32.180539 11.166556,31.505572 12.004449,30.659216 C 12.846567,29.808634 13.375538,29.26062 13.591363,29.015173 C 14.00184,28.553915 14.287484,28.164593 14.448296,27.847204 C 14.61333,27.525596 14.695849,27.210329 14.695855,26.901403 C 14.695849,26.39783 14.518115,25.987349 14.162652,25.669958 C 13.81141,25.352584 13.352263,25.193892 12.78521,25.193884 C 12.383189,25.193892 11.957896,25.263717 11.509331,25.403357 C 11.064993,25.543013 10.58892,25.754602 10.081109,26.038122 L 10.081109,24.7432 C 10.597383,24.535853 11.079805,24.379277 11.528374,24.273474 C 11.976939,24.167689 12.387421,24.114792 12.75982,24.114782 C 13.741586,24.114792 14.524463,24.360234 15.108453,24.85111 C 15.69243,25.342004 15.984422,25.997928 15.984429,26.818884 C 15.984422,27.208213 15.910366,27.578493 15.762261,27.929724 C 15.618374,28.276734 15.353889,28.687216 14.968804,29.161169 C 14.863004,29.283895 14.526579,29.639363 13.959527,30.227575 C 13.392465,30.811563 12.592661,31.630409 11.560113,32.684118 M 14.340386,44.903357 C 14.953987,45.034546 15.432177,45.307495 15.774956,45.722204 C 16.121955,46.136922 16.295457,46.648965 16.295464,47.258337 C 16.295457,48.19356 15.973843,48.917192 15.33062,49.429235 C 14.687386,49.94128 13.773324,50.197302 12.588433,50.197302 C 12.190643,50.197302 11.780162,50.1571 11.356988,50.076696 C 10.93804,50.000525 10.504284,49.884151 10.055718,49.727575 L 10.055718,48.489782 C 10.411186,48.69714 10.800508,48.853716 11.223687,48.959509 C 11.646861,49.065304 12.089081,49.118201 12.550347,49.1182 C 13.354379,49.118201 13.965869,48.95951 14.38482,48.642126 C 14.807991,48.324745 15.019579,47.863482 15.019585,47.258337 C 15.019579,46.699747 14.822802,46.263875 14.429253,45.95072 C 14.039925,45.633341 13.496143,45.47465 12.797906,45.474646 L 11.693413,45.474646 L 11.693413,44.420935 L 12.848687,44.420935 C 13.479216,44.42094 13.961638,44.296103 14.295953,44.046423 C 14.630257,43.792523 14.797412,43.428591 14.797417,42.954626 C 14.797412,42.46798 14.623909,42.095585 14.27691,41.837439 C 13.934131,41.575077 13.44113,41.443892 12.797906,41.443884 C 12.446665,41.443892 12.070038,41.481978 11.668023,41.558142 C 11.266002,41.634322 10.823783,41.752811 10.341363,41.91361 L 10.341363,40.771032 C 10.828015,40.635625 11.282929,40.534063 11.706109,40.466345 C 12.133515,40.398646 12.535532,40.364792 12.912163,40.364782 C 13.885466,40.364792 14.655647,40.58696 15.22271,41.031286 C 15.789761,41.471399 16.073289,42.068078 16.073296,42.821325 C 16.073289,43.346072 15.923062,43.790407 15.622613,44.154333 C 15.322151,44.514039 14.894742,44.763713 14.340386,44.903357"
     id="path2443" />
  <path
     style="font-size:27.91957092px;font-style:normal;font-variant:normal;font-weight:normal;font-stretch:normal;fill:#000000;fill-opacity:1;stroke:none;stroke-width:1px;stroke-linecap:butt;stroke-linejoin:miter;stroke-opacity:1;font-family:Arial;-inkscape-font-specification:Arial"
     d="M 18.503082,25.484193 L 16.741663,25.484193 L 16.741663,14.260042 C 16.317613,14.664526 15.759831,15.069001 15.068316,15.473463 C 14.383316,15.877947 13.76682,16.181303 13.218826,16.38353 L 13.218826,14.680825 C 14.203913,14.217649 15.06505,13.656605 15.802241,12.997692 C 16.539421,12.338804 17.061322,11.699473 17.367945,11.079702 L 18.503082,11.079702 L 18.503082,25.484193"
     id="text3221" />
  <path
     style="font-size:23.93459129px;font-style:normal;font-variant:normal;font-weight:normal;font-stretch:normal;fill:#000000;fill-opacity:1;stroke:none;stroke-width:1px;stroke-linecap:butt;stroke-linejoin:miter;stroke-opacity:1;font-family:Arial;-inkscape-font-specification:Arial"
     d="M 20.967657,46.649382 L 20.967657,48.349826 L 11.443208,48.349826 C 11.430102,47.923896 11.498906,47.514348 11.649621,47.121181 C 11.892072,46.472459 12.278685,45.833565 12.809461,45.204497 C 13.346785,44.575434 14.120012,43.848078 15.12914,43.022425 C 16.695246,41.738089 17.753517,40.722411 18.303957,39.975388 C 18.854382,39.221829 19.129597,38.510853 19.129606,37.842462 C 19.129597,37.141327 18.877316,36.551578 18.372761,36.073214 C 17.874743,35.588322 17.222744,35.34587 16.41676,35.345857 C 15.564895,35.34587 14.883408,35.601428 14.372296,36.112531 C 13.861177,36.623659 13.602343,37.331356 13.595793,38.235628 L 11.7774,38.048874 C 11.901901,36.692462 12.370424,35.660402 13.182969,34.952691 C 13.995509,34.238453 15.086544,33.881327 16.456076,33.881313 C 17.838704,33.881327 18.933014,34.264665 19.739013,35.031324 C 20.544994,35.798011 20.947989,36.748161 20.947999,37.881778 C 20.947989,38.458432 20.830039,39.025246 20.594149,39.582221 C 20.35824,40.139215 19.965074,40.725687 19.414651,41.34164 C 18.870764,41.957606 17.963206,42.802913 16.691976,43.877561 C 15.630423,44.768741 14.948935,45.374872 14.647513,45.695954 C 14.346082,46.010489 14.097076,46.328298 13.900497,46.649382 L 20.967657,46.649382"
     id="text3225" />
</svg>
