<?xml version="1.0" encoding="UTF-8" standalone="no"?>
<svg
   xmlns:dc="http://purl.org/dc/elements/1.1/"
   xmlns:cc="http://creativecommons.org/ns#"
   xmlns:rdf="http://www.w3.org/1999/02/22-rdf-syntax-ns#"
   xmlns:svg="http://www.w3.org/2000/svg"
   xmlns="http://www.w3.org/2000/svg"
   xmlns:sodipodi="http://sodipodi.sourceforge.net/DTD/sodipodi-0.dtd"
   xmlns:inkscape="http://www.inkscape.org/namespaces/inkscape"
   height="60"
   width="60"
   _SVGFile__filename="oldscale/actions/fileexport.svg"
   version="1.0"
   y="0"
   x="0"
   id="svg1"
   sodipodi:version="0.32"
   inkscape:version="0.48.0 r9654"
   sodipodi:docname="kde-vzdata-import.svg"
   inkscape:output_extension="org.inkscape.output.svg.inkscape">
  <sodipodi:namedview
     id="base"
     pagecolor="#ffffff"
     bordercolor="#666666"
     borderopacity="1.0"
     inkscape:pageopacity="0.0000000"
     inkscape:pageshadow="2"
     inkscape:zoom="7.6723498"
     inkscape:cx="-20.445737"
     inkscape:cy="31.846568"
     inkscape:window-width="1270"
     inkscape:window-height="768"
     inkscape:window-x="0"
     inkscape:window-y="0"
     inkscape:current-layer="svg1"
     showgrid="false" />
  <defs
     id="defs3" />
  <metadata
     id="metadata10">
    <RDF
       id="RDF11">
      <Work
         about=""
         id="Work12">
        <title
           id="title13">Part of the Flat Icon Collection (Thu Aug 26 14:38:01 2004)</title>
        <description
           id="description15" />
        <subject
           id="subject16">
          <Bag
             id="Bag17">
            <li
               id="li18" />
          </Bag>
        </subject>
        <publisher
           id="publisher19">
          <Agent
             about=""
             id="Agent20">
            <title
               id="title21" />
          </Agent>
        </publisher>
        <creator
           id="creator22">
          <Agent
             about=""
             id="Agent23">
            <title
               id="title24">Danny Allen</title>
          </Agent>
        </creator>
        <rights
           id="rights26">
          <Agent
             about=""
             id="Agent27">
            <title
               id="title28">Danny Allen</title>
          </Agent>
        </rights>
        <date
           id="date30" />
        <format
           id="format31">image/svg+xml</format>
        <type
           id="type33"
           resource="http://purl.org/dc/dcmitype/StillImage" />
        <license
           id="license34"
           resource="http://creativecommons.org/licenses/LGPL/2.1/">
          <date
             id="date35" />
        </license>
        <language
           id="language36">en</language>
      </Work>
    </RDF>
    <rdf:RDF>
      <cc:Work
         rdf:about="">
        <dc:format>image/svg+xml</dc:format>
        <dc:type
           rdf:resource="http://purl.org/dc/dcmitype/StillImage" />
      </cc:Work>
    </rdf:RDF>
  </metadata>
  <path
     id="path1140"
     style="font-size:12.000000;fill:none;fill-rule:evenodd;stroke:#ffffff;stroke-width:8.1249990;stroke-linecap:round;stroke-linejoin:round;stroke-miterlimit:4.0000000;stroke-opacity:1.0000000"
     d="M 16.674598,4.6874993 C 15.724566,4.6874993 14.959739,5.4523261 14.959739,6.4023577 L 14.959739,44.852698 C 14.959739,45.802730 15.724566,46.567557 16.674598,46.567557 L 53.597642,46.567557 C 54.547674,46.567557 55.312501,45.802730 55.312501,44.852698 L 55.312501,10.341173 L 49.632032,4.6874993 L 16.674598,4.6874993 z " />
  <path
     d="M 16.677021,4.6875043 C 15.727049,4.6875043 14.962271,5.452283 14.962271,6.4022549 L 14.962271,44.850178 C 14.962271,45.80015 15.727049,46.564929 16.677021,46.564929 L 53.597745,46.564929 C 54.547717,46.564929 55.312496,45.80015 55.312496,44.850178 L 55.312496,10.340823 L 49.632384,4.6875043 L 16.677021,4.6875043 z"
     style="font-size:12px;fill:#afdde9;fill-opacity:1;fill-rule:evenodd;stroke-width:1;stroke-linecap:round;stroke-linejoin:round"
     id="path646" />
  <g
     transform="matrix(-0.827148,0,0,0.827148,57.777331,0.81177)"
     id="g1372">
    <path
       transform="matrix(0.978453,0,0,0.978453,0.43127,0.251887)"
       id="path655"
       d="M 15.91356,4.659213 L 15.91356,17.90113 C 15.91356,19.25417 17.10233,20.34344 18.57897,20.34344 L 36.48718,20.34344 C 37.96382,20.34344 39.15259,19.25417 39.15259,17.90113 L 39.15259,4.659213"
       style="font-size:12px;fill:#babec3;fill-opacity:1;fill-rule:evenodd;stroke:#000000;stroke-width:3.08899069;stroke-linecap:round;stroke-linejoin:round;stroke-opacity:1" />
    <path
       transform="matrix(0.978453,0,0,0.978453,0.43127,0.251887)"
       id="rect656"
       d="M 20.91564,7.980784 C 20.14051,7.980784 19.51649,8.604805 19.51649,9.379934 L 19.51649,15.62272 C 19.51649,16.39785 20.14051,17.02187 20.91564,17.02187 L 24.70442,17.02187 C 25.47955,17.02187 26.10357,16.39785 26.10357,15.62272 L 26.10357,9.379934 C 26.10357,8.604805 25.47955,7.980784 24.70442,7.980784 L 20.91564,7.980784 z"
       style="font-size:12px;fill:#000000;fill-opacity:1;fill-rule:evenodd;stroke-width:1.25;stroke-linecap:round;stroke-linejoin:round" />
  </g>
  <path
     d="M 16.677021,4.6875043 C 15.727049,4.6875043 14.962271,5.452283 14.962271,6.4022549 L 14.962271,44.850178 C 14.962271,45.80015 15.727049,46.564929 16.677021,46.564929 L 53.597745,46.564929 C 54.547717,46.564929 55.312496,45.80015 55.312496,44.850178 L 55.312496,10.340823 L 49.632384,4.6875043 L 16.677021,4.6875043 z"
     style="font-size:12px;fill:none;fill-rule:evenodd;stroke:#000000;stroke-width:3.12499905;stroke-linecap:round;stroke-linejoin:round;stroke-opacity:1"
     id="path659" />
  <path
     sodipodi:nodetypes="ccccccc"
     id="path1789"
     d="M 34.689813,40.111172 C 32.45587,59.834857 12.071275,51.732851 10.969789,51.629259 L 10.969789,57.528249 L 2.3414131,48.987918 L 10.969789,40.4652 L 10.969789,46.293757 C 12.264931,46.445873 27.62283,54.437728 34.689813,40.111172 z"
     style="font-size:12px;fill:none;fill-opacity:1;fill-rule:evenodd;stroke:#ffffff;stroke-width:8.125;stroke-linecap:round;stroke-linejoin:round;stroke-miterlimit:4;stroke-dasharray:none;stroke-opacity:1" />
  <path
     sodipodi:nodetypes="ccccccc"
     id="path993"
     d="M 34.689813,40.111172 C 32.45587,59.834857 12.071275,51.732851 10.969789,51.629259 L 10.969789,57.528249 L 2.341413,48.987918 L 10.969789,40.4652 L 10.969789,46.293757 C 12.264931,46.445873 27.62283,54.437728 34.689813,40.111172 z"
     style="font-size:12px;fill:#ff0000;fill-opacity:1;fill-rule:evenodd;stroke:#ff0000;stroke-width:4.025;stroke-linecap:round;stroke-linejoin:round;stroke-miterlimit:4;stroke-opacity:1;stroke-dasharray:none" />
  <path
     style="font-size:18.68202591px;font-style:normal;font-variant:normal;font-weight:normal;font-stretch:normal;fill:#000000;fill-opacity:1;stroke:none;stroke-width:1px;stroke-linecap:butt;stroke-linejoin:miter;stroke-opacity:1;font-family:Arial;-inkscape-font-specification:Arial"
     d="M 28.568183,34.794689 L 26.926209,34.794689 L 26.926209,24.33166 C 26.530913,24.708716 26.010955,25.085762 25.366332,25.462798 C 24.727783,25.839853 24.153093,26.122638 23.642259,26.311152 L 23.642259,24.72391 C 24.560545,24.292141 25.363288,23.769143 26.050489,23.154911 C 26.73768,22.540703 27.224191,21.944728 27.510022,21.366983 L 28.568183,21.366983 L 28.568183,34.794689 M 46.593419,33.216569 L 46.593419,34.794689 L 37.754121,34.794689 C 37.741958,34.399399 37.805812,34.019313 37.945685,33.654429 C 38.170695,33.052373 38.529497,32.459438 39.022091,31.875623 C 39.520762,31.291813 40.238365,30.616779 41.174902,29.85052 C 42.628349,28.658574 43.610492,27.71596 44.121335,27.022674 C 44.632164,26.323323 44.887582,25.663493 44.88759,25.043182 C 44.887582,24.392484 44.653449,23.84516 44.18519,23.401208 C 43.722997,22.951197 43.1179,22.726185 42.369895,22.726173 C 41.57931,22.726185 40.946846,22.963359 40.472502,23.437696 C 39.998151,23.912055 39.757936,24.568844 39.751857,25.408066 L 38.064272,25.234746 C 38.179817,23.97591 38.614636,23.018092 39.36873,22.36129 C 40.122819,21.698432 41.135369,21.366996 42.406383,21.366983 C 43.68955,21.366996 44.705141,21.722757 45.453159,22.434267 C 46.201161,23.145801 46.575166,24.027601 46.575175,25.079671 C 46.575166,25.614842 46.465701,26.140882 46.24678,26.657791 C 46.027841,27.174717 45.662959,27.719001 45.15213,28.290644 C 44.647368,28.8623 43.805096,29.646799 42.625313,30.644141 C 41.640124,31.471214 41.00766,32.033741 40.72792,32.331727 C 40.448173,32.623636 40.21708,32.918583 40.034642,33.216569 L 46.593419,33.216569"
     id="text2410" />
</svg>
