<?xml version="1.0" standalone="no"?>
<!DOCTYPE svg PUBLIC "-//W3C//DTD SVG 1.1//EN" 
  "http://www.w3.org/Graphics/SVG/1.1/DTD/svg11.dtd">
<svg width="533.49px" height="533.49px" version="1.1"
     xmlns="http://www.w3.org/2000/svg"
     xmlns:xlink="http://www.w3.org/1999/xlink">
<desc>Veusz output document</desc>
<g stroke-linejoin="bevel" stroke-linecap="square" stroke="#000000" fill-rule="evenodd">
<g clip-path="url(#c0)">
<g stroke-width="0.62" fill="#ffffff">
<path d="m42.68,3.56l487.25,0l0,487.25l-487.25,0l0,-487.25"/>
</g>
<g stroke-width="0.62" stroke-dasharray="0.625,1.25" transform="translate(286.31, 57.15)" fill="#aaff7f">
<path d="m-121.81,-24.36l243.63,0l0,48.73l-243.63,0l0,-48.73"/>
</g>
<g stroke="#0000ff" stroke-width="0.62" transform="matrix(-0.00822667 0.999966 -0.999966 -0.00822667 240.25 101.01)" fill="#000000">
<path d="M0,0l97.45,0"/>
</g>
<g stroke="#0000ff" stroke-width="0.62" transform="matrix(-0.00822667 0.999966 -0.999966 -0.00822667 239.45 198.45)" fill="#000000">
<path d="m6.25,0c0,3.45,-2.8,6.25,-6.25,6.25c-3.45,0,-6.25,-2.8,-6.25,-6.25c0,-3.45,2.8,-6.25,6.25,-6.25c3.45,0,6.25,2.8,6.25,6.25"/>
</g>
<g stroke="#0000ff" stroke-width="0.62" transform="matrix(0.00822667 -0.999966 -0.999966 -0.00822667 240.25 101.01)" fill="#000000">
<path d="m0,0l11.25,6.25l-2.5,-6.25l2.5,-6.25l-11.25,6.25"/>
</g>
</g>
<g clip-path="url(#c1)">
<g stroke="none" stroke-width="1" fill="#008000">
<polygon points="42.68,490.81 42.68,328.39 52.42,328.26 62.17,327.87 71.91,327.22 81.66,326.31 91.4,325.14 101.15,323.71 110.89,322.03 120.64,320.08 130.38,317.87 140.13,315.4 149.87,312.67 159.62,309.68 169.37,306.43 179.11,302.93 188.86,299.16 198.6,295.13 208.35,290.84 218.09,286.29 227.84,281.49 237.58,276.42 247.33,271.09 257.07,265.5 266.82,259.66 276.56,253.55 286.31,247.18 296.05,240.56 305.8,233.67 315.54,226.52 325.29,219.12 335.03,211.45 344.78,203.53 354.52,195.34 364.27,186.89 374.01,178.19 383.76,169.22 393.5,160 403.25,150.51 412.99,140.77 422.74,130.76 432.48,120.5 442.23,109.97 451.97,99.19 461.72,88.14 471.46,76.84 481.21,65.28 490.95,53.45 500.7,41.37 510.44,29.02 520.19,16.42 529.93,3.56 529.93,490.81"/>
</g>
</g>
<g clip-path="url(#c0)">
<g stroke-width="1" fill="none">
<path d="m205.22,37.88l0,8.7l-0.69,0c-0.22,-1.67,-0.62,-2.99,-1.2,-3.98c-0.58,-0.99,-1.4,-1.78,-2.46,-2.36c-1.06,-0.58,-2.16,-0.88,-3.3,-0.88c-1.29,0,-2.36,0.39,-3.2,1.18c-0.84,0.79,-1.26,1.68,-1.26,2.68c0,0.77,0.27,1.47,0.8,2.09c0.77,0.93,2.59,2.17,5.47,3.72c2.35,1.26,3.96,2.23,4.82,2.9c0.86,0.67,1.52,1.47,1.98,2.38c0.46,0.92,0.7,1.88,0.7,2.88c0,1.91,-0.74,3.55,-2.22,4.93c-1.48,1.38,-3.38,2.07,-5.7,2.07c-0.73,0,-1.42,-0.06,-2.06,-0.17c-0.39,-0.06,-1.18,-0.29,-2.38,-0.68c-1.2,-0.39,-1.97,-0.59,-2.29,-0.59c-0.31,0,-0.56,0.09,-0.73,0.28c-0.18,0.19,-0.31,0.57,-0.41,1.16l-0.69,0l0,-8.62l0.69,0c0.32,1.8,0.76,3.15,1.3,4.05c0.55,0.9,1.38,1.64,2.5,2.23c1.12,0.59,2.35,0.89,3.68,0.89c1.54,0,2.76,-0.41,3.66,-1.23c0.9,-0.82,1.35,-1.78,1.35,-2.88c0,-0.62,-0.17,-1.25,-0.52,-1.88c-0.34,-0.63,-0.88,-1.22,-1.59,-1.76c-0.48,-0.38,-1.79,-1.16,-3.95,-2.37c-2.15,-1.2,-3.68,-2.16,-4.59,-2.88c-0.91,-0.72,-1.6,-1.51,-2.07,-2.38c-0.47,-0.86,-0.7,-1.82,-0.7,-2.86c0,-1.81,0.69,-3.37,2.08,-4.67c1.39,-1.3,3.15,-1.95,5.28,-1.95c1.34,0,2.76,0.33,4.25,0.98c0.7,0.31,1.19,0.47,1.47,0.47c0.32,0,0.59,-0.1,0.79,-0.29c0.2,-0.19,0.37,-0.58,0.49,-1.16l0.69,0m13.08,8.23c2.57,0,4.64,0.98,6.2,2.94c1.32,1.67,1.98,3.58,1.98,5.75c0,1.52,-0.36,3.06,-1.09,4.62c-0.73,1.56,-1.73,2.73,-3.02,3.52c-1.28,0.79,-2.71,1.19,-4.28,1.19c-2.56,0,-4.6,-1.02,-6.11,-3.06c-1.27,-1.72,-1.91,-3.65,-1.91,-5.78c0,-1.56,0.39,-3.11,1.16,-4.66c0.77,-1.54,1.79,-2.68,3.05,-3.41c1.27,-0.73,2.6,-1.1,4.01,-1.1m-0.58,1.2c-0.66,0,-1.32,0.2,-1.98,0.59c-0.66,0.39,-1.2,1.08,-1.6,2.05c-0.41,0.98,-0.61,2.23,-0.61,3.77c0,2.48,0.49,4.61,1.48,6.41c0.98,1.79,2.28,2.69,3.88,2.69c1.2,0,2.19,-0.49,2.97,-1.48c0.78,-0.99,1.17,-2.69,1.17,-5.11c0,-3.01,-0.65,-5.39,-1.95,-7.12c-0.88,-1.19,-1.99,-1.78,-3.36,-1.78m15.31,2.42c1.24,-1.24,1.97,-1.95,2.19,-2.14c0.56,-0.47,1.16,-0.83,1.8,-1.09c0.64,-0.26,1.28,-0.39,1.91,-0.39c1.06,0,1.98,0.31,2.74,0.93c0.77,0.62,1.28,1.52,1.54,2.7c1.27,-1.49,2.35,-2.47,3.23,-2.93c0.88,-0.46,1.78,-0.7,2.71,-0.7c0.91,0,1.71,0.23,2.41,0.7c0.7,0.46,1.25,1.22,1.66,2.27c0.27,0.72,0.41,1.84,0.41,3.38l0,7.31c0,1.06,0.08,1.79,0.25,2.19c0.11,0.27,0.34,0.5,0.68,0.7c0.34,0.19,0.88,0.29,1.63,0.29l0,0.67l-8.39,0l0,-0.67l0.36,0c0.73,0,1.3,-0.14,1.7,-0.42c0.28,-0.2,0.48,-0.52,0.61,-0.95c0.05,-0.21,0.08,-0.81,0.08,-1.8l0,-7.31c0,-1.39,-0.17,-2.36,-0.5,-2.92c-0.48,-0.79,-1.25,-1.19,-2.31,-1.19c-0.66,0,-1.32,0.16,-1.98,0.49c-0.66,0.33,-1.47,0.93,-2.41,1.82l-0.03,0.2l0.03,0.8l0,8.11c0,1.17,0.07,1.89,0.2,2.17c0.13,0.28,0.38,0.52,0.73,0.71c0.36,0.19,0.97,0.29,1.84,0.29l0,0.67l-8.59,0l0,-0.67c0.95,0,1.6,-0.11,1.95,-0.34c0.35,-0.22,0.59,-0.55,0.73,-0.99c0.06,-0.21,0.09,-0.82,0.09,-1.84l0,-7.31c0,-1.39,-0.2,-2.38,-0.61,-2.98c-0.54,-0.79,-1.3,-1.19,-2.28,-1.19c-0.67,0,-1.33,0.18,-1.98,0.55c-1.03,0.54,-1.82,1.15,-2.38,1.83l0,9.11c0,1.11,0.08,1.84,0.23,2.17c0.16,0.33,0.39,0.58,0.69,0.75c0.3,0.17,0.92,0.25,1.84,0.25l0,0.67l-8.41,0l0,-0.67c0.78,0,1.33,-0.08,1.63,-0.25c0.31,-0.17,0.54,-0.43,0.7,-0.8c0.16,-0.36,0.24,-1.07,0.24,-2.12l0,-6.48c0,-1.88,-0.06,-3.08,-0.17,-3.62c-0.08,-0.41,-0.22,-0.69,-0.41,-0.84c-0.19,-0.16,-0.44,-0.23,-0.75,-0.23c-0.35,0,-0.77,0.09,-1.25,0.28l-0.28,-0.67l5.12,-2.08l0.8,0l0,3.62m26.81,3.28c-0.01,2.52,0.6,4.5,1.83,5.94c1.24,1.44,2.7,2.16,4.38,2.16c1.1,0,2.07,-0.31,2.89,-0.92c0.82,-0.61,1.52,-1.66,2.08,-3.14l0.58,0.36c-0.26,1.7,-1.02,3.24,-2.27,4.63c-1.25,1.39,-2.82,2.09,-4.7,2.09c-2.04,0,-3.79,-0.79,-5.24,-2.38c-1.45,-1.59,-2.18,-3.73,-2.18,-6.41c0,-2.91,0.74,-5.17,2.23,-6.8c1.49,-1.62,3.36,-2.44,5.62,-2.44c1.9,0,3.46,0.63,4.69,1.88c1.23,1.26,1.84,2.93,1.84,5.04l-11.75,0m0,-1.08l7.86,0c-0.06,-1.08,-0.19,-1.85,-0.39,-2.3c-0.3,-0.7,-0.76,-1.24,-1.38,-1.64c-0.61,-0.4,-1.26,-0.59,-1.92,-0.59c-1.02,0,-1.94,0.4,-2.75,1.2c-0.81,0.8,-1.29,1.91,-1.42,3.34m35.12,-5.83l0,5.8l-0.61,0c-0.47,-1.82,-1.07,-3.06,-1.81,-3.72c-0.74,-0.66,-1.68,-0.98,-2.81,-0.98c-0.86,0,-1.56,0.23,-2.09,0.69c-0.53,0.46,-0.8,0.97,-0.8,1.53c0,0.69,0.2,1.28,0.59,1.78c0.39,0.5,1.17,1.04,2.34,1.61l2.7,1.31c2.51,1.23,3.77,2.84,3.77,4.84c0,1.55,-0.58,2.8,-1.75,3.74c-1.17,0.94,-2.47,1.41,-3.92,1.41c-1.04,0,-2.23,-0.18,-3.56,-0.55c-0.42,-0.12,-0.76,-0.19,-1.02,-0.19c-0.28,0,-0.5,0.16,-0.66,0.48l-0.61,0l0,-6.08l0.61,0c0.34,1.74,1.01,3.05,1.98,3.92c0.98,0.88,2.07,1.31,3.28,1.31c0.85,0,1.55,-0.25,2.09,-0.75c0.54,-0.5,0.8,-1.1,0.8,-1.81c0,-0.85,-0.3,-1.57,-0.9,-2.15c-0.6,-0.58,-1.79,-1.31,-3.59,-2.2c-1.79,-0.89,-2.97,-1.7,-3.53,-2.41c-0.55,-0.71,-0.83,-1.6,-0.83,-2.67c0,-1.4,0.48,-2.57,1.44,-3.51c0.96,-0.94,2.2,-1.41,3.72,-1.41c0.67,0,1.47,0.14,2.42,0.42c0.64,0.19,1.06,0.28,1.27,0.28c0.2,0,0.35,-0.04,0.47,-0.12c0.11,-0.08,0.24,-0.28,0.39,-0.58l0.61,0m9,-8.89l0,12.44c1.38,-1.51,2.47,-2.48,3.27,-2.91c0.81,-0.43,1.61,-0.64,2.41,-0.64c0.96,0,1.78,0.27,2.48,0.8c0.69,0.53,1.21,1.37,1.55,2.52c0.23,0.79,0.34,2.23,0.34,4.33l0,6.02c0,1.07,0.09,1.81,0.27,2.2c0.12,0.3,0.34,0.54,0.63,0.71c0.3,0.17,0.84,0.26,1.63,0.26l0,0.67l-8.36,0l0,-0.67l0.39,0c0.79,0,1.34,-0.12,1.66,-0.36c0.31,-0.24,0.53,-0.59,0.64,-1.06c0.04,-0.2,0.06,-0.78,0.06,-1.75l0,-6.02c0,-1.85,-0.1,-3.07,-0.29,-3.65c-0.19,-0.58,-0.5,-1.01,-0.92,-1.3c-0.42,-0.29,-0.93,-0.44,-1.52,-0.44c-0.6,0,-1.23,0.16,-1.89,0.48c-0.66,0.32,-1.44,0.97,-2.36,1.94l0,8.98c0,1.17,0.07,1.89,0.2,2.17c0.13,0.28,0.37,0.52,0.73,0.71c0.35,0.19,0.96,0.29,1.83,0.29l0,0.67l-8.42,0l0,-0.67c0.76,0,1.35,-0.11,1.78,-0.34c0.25,-0.12,0.45,-0.36,0.59,-0.71c0.15,-0.35,0.22,-1.05,0.22,-2.12l0,-15.38c0,-1.95,-0.04,-3.14,-0.13,-3.59c-0.09,-0.44,-0.23,-0.74,-0.42,-0.91c-0.19,-0.16,-0.45,-0.24,-0.77,-0.24c-0.26,0,-0.68,0.1,-1.27,0.3l-0.27,-0.66l5.09,-2.08l0.84,0m23.64,23.94c-1.74,1.35,-2.83,2.14,-3.28,2.34c-0.67,0.31,-1.38,0.47,-2.12,0.47c-1.18,0,-2.15,-0.4,-2.91,-1.21c-0.76,-0.81,-1.14,-1.87,-1.14,-3.18c0,-0.82,0.18,-1.54,0.55,-2.14c0.51,-0.84,1.39,-1.64,2.65,-2.38c1.26,-0.74,3.34,-1.65,6.26,-2.71l0,-0.67c0,-1.69,-0.27,-2.85,-0.8,-3.48c-0.54,-0.63,-1.32,-0.95,-2.35,-0.95c-0.77,0,-1.39,0.21,-1.84,0.62c-0.47,0.42,-0.7,0.9,-0.7,1.45l0.03,1.06c0,0.57,-0.15,1.01,-0.44,1.32c-0.29,0.31,-0.67,0.46,-1.14,0.46c-0.46,0,-0.83,-0.16,-1.12,-0.48c-0.29,-0.32,-0.44,-0.76,-0.44,-1.32c0,-1.06,0.54,-2.04,1.63,-2.93c1.09,-0.89,2.62,-1.34,4.59,-1.34c1.51,0,2.75,0.26,3.72,0.77c0.73,0.39,1.27,0.98,1.61,1.8c0.22,0.53,0.33,1.62,0.33,3.27l0,5.77c0,1.62,0.03,2.62,0.09,2.98c0.06,0.36,0.16,0.61,0.3,0.73c0.14,0.12,0.3,0.19,0.49,0.19c0.2,0,0.38,-0.05,0.53,-0.14c0.25,-0.16,0.75,-0.6,1.5,-1.34l0,1.03c-1.39,1.85,-2.71,2.78,-3.97,2.78c-0.61,0,-1.1,-0.21,-1.45,-0.62c-0.35,-0.42,-0.54,-1.14,-0.56,-2.16m0,-1.2l0,-6.47c-1.86,0.74,-3.07,1.27,-3.61,1.58c-0.98,0.54,-1.68,1.11,-2.1,1.7c-0.42,0.59,-0.63,1.24,-0.63,1.94c0,0.9,0.27,1.64,0.8,2.23c0.53,0.59,1.15,0.88,1.84,0.88c0.94,0,2.17,-0.62,3.7,-1.86m6.16,-11.66l5.23,-2.11l0.7,0l0,3.97c0.88,-1.5,1.76,-2.55,2.64,-3.15c0.89,-0.6,1.82,-0.9,2.8,-0.9c1.7,0,3.12,0.67,4.27,2c1.4,1.64,2.09,3.77,2.09,6.39c0,2.93,-0.84,5.35,-2.53,7.27c-1.39,1.57,-3.12,2.36,-5.22,2.36c-0.92,0,-1.71,-0.13,-2.38,-0.39c-0.5,-0.19,-1.06,-0.56,-1.67,-1.11l0,5.17c0,1.17,0.07,1.91,0.21,2.23c0.14,0.32,0.39,0.57,0.74,0.75c0.35,0.18,0.99,0.27,1.92,0.27l0,0.69l-8.91,0l0,-0.69l0.45,0c0.69,0.01,1.27,-0.12,1.75,-0.39c0.24,-0.14,0.42,-0.35,0.55,-0.66c0.13,-0.3,0.2,-1.07,0.2,-2.31l0,-16.06c0,-1.1,-0.05,-1.8,-0.15,-2.1c-0.1,-0.3,-0.26,-0.52,-0.48,-0.66c-0.22,-0.15,-0.52,-0.22,-0.89,-0.22c-0.29,0,-0.67,0.08,-1.12,0.25l-0.22,-0.59m5.94,2.95l0,6.34c0,1.38,0.05,2.28,0.16,2.72c0.18,0.71,0.6,1.34,1.27,1.88c0.67,0.55,1.52,0.82,2.55,0.82c1.24,0,2.24,-0.48,3,-1.45c1.01,-1.26,1.52,-3.03,1.52,-5.31c0,-2.6,-0.57,-4.6,-1.72,-6c-0.79,-0.97,-1.73,-1.45,-2.81,-1.45c-0.59,0,-1.18,0.15,-1.77,0.45c-0.45,0.22,-1.18,0.89,-2.2,2m17.14,1.77c-0.01,2.52,0.6,4.5,1.83,5.94c1.24,1.44,2.7,2.16,4.38,2.16c1.1,0,2.07,-0.31,2.89,-0.92c0.82,-0.61,1.52,-1.66,2.08,-3.14l0.58,0.36c-0.26,1.7,-1.02,3.24,-2.27,4.63c-1.25,1.39,-2.82,2.09,-4.7,2.09c-2.04,0,-3.79,-0.79,-5.24,-2.38c-1.45,-1.59,-2.18,-3.73,-2.18,-6.41c0,-2.91,0.74,-5.17,2.23,-6.8c1.49,-1.62,3.36,-2.44,5.62,-2.44c1.9,0,3.46,0.63,4.69,1.88c1.23,1.26,1.84,2.93,1.84,5.04l-11.75,0m0,-1.08l7.86,0c-0.06,-1.08,-0.19,-1.85,-0.39,-2.3c-0.3,-0.7,-0.76,-1.24,-1.38,-1.64c-0.61,-0.4,-1.26,-0.59,-1.92,-0.59c-1.02,0,-1.94,0.4,-2.75,1.2c-0.81,0.8,-1.29,1.91,-1.42,3.34m25.12,-5.83l0,5.8l-0.61,0c-0.47,-1.82,-1.07,-3.06,-1.81,-3.72c-0.74,-0.66,-1.68,-0.98,-2.81,-0.98c-0.86,0,-1.56,0.23,-2.09,0.69c-0.53,0.46,-0.8,0.97,-0.8,1.53c0,0.69,0.2,1.28,0.59,1.78c0.39,0.5,1.17,1.04,2.34,1.61l2.7,1.31c2.51,1.23,3.77,2.84,3.77,4.84c0,1.55,-0.58,2.8,-1.75,3.74c-1.17,0.94,-2.47,1.41,-3.92,1.41c-1.04,0,-2.23,-0.18,-3.56,-0.55c-0.42,-0.12,-0.76,-0.19,-1.02,-0.19c-0.28,0,-0.5,0.16,-0.66,0.48l-0.61,0l0,-6.08l0.61,0c0.34,1.74,1.01,3.05,1.98,3.92c0.98,0.88,2.07,1.31,3.28,1.31c0.85,0,1.55,-0.25,2.09,-0.75c0.54,-0.5,0.8,-1.1,0.8,-1.81c0,-0.85,-0.3,-1.57,-0.9,-2.15c-0.6,-0.58,-1.79,-1.31,-3.59,-2.2c-1.79,-0.89,-2.97,-1.7,-3.53,-2.41c-0.55,-0.71,-0.83,-1.6,-0.83,-2.67c0,-1.4,0.48,-2.57,1.44,-3.51c0.96,-0.94,2.2,-1.41,3.72,-1.41c0.67,0,1.47,0.14,2.42,0.42c0.64,0.19,1.06,0.28,1.27,0.28c0.2,0,0.35,-0.04,0.47,-0.12c0.11,-0.08,0.24,-0.28,0.39,-0.58l0.61,0" fill="#000000" stroke="none" fill-opacity="1"/>
<path d="m181.11,324.53l2.06,0l-1.25,5.66c-0.24,1.07,-0.41,1.73,-0.5,1.98c0.32,1.49,0.8,2.23,1.42,2.23c0.73,0,1.1,-0.5,1.12,-1.5l0.44,0c-0.02,0.94,-0.19,1.7,-0.52,2.28c-0.32,0.58,-0.74,0.88,-1.27,0.88c-0.43,0,-0.75,-0.17,-0.96,-0.52c-0.21,-0.35,-0.44,-1.07,-0.68,-2.15c-0.84,1.78,-2.23,2.67,-4.16,2.67c-1.31,0,-2.35,-0.51,-3.12,-1.53c-0.77,-1.02,-1.16,-2.48,-1.16,-4.39c0,-1.88,0.42,-3.33,1.27,-4.38c0.84,-1.04,1.86,-1.56,3.06,-1.56c0.83,0,1.52,0.3,2.05,0.89c0.54,0.59,1.01,1.56,1.43,2.91l0.75,-3.47m-1.08,4.8c-0.39,-1.31,-0.81,-2.34,-1.28,-3.08c-0.47,-0.74,-1.04,-1.11,-1.7,-1.11c-1.49,0,-2.23,1.74,-2.23,5.23c0,3.3,0.71,4.95,2.14,4.95c1.24,0,2.16,-1.46,2.75,-4.38l0.33,-1.62" fill="#000000" stroke="none" fill-opacity="1"/>
</g>
</g>
<g clip-path="url(#c1)">
<g stroke-width="0.62" fill="none">
<polyline fill="none" points="91.4,442.08 140.13,425.84 286.31,328.39 286.31,247.18"/>
</g>
<g stroke-width="0.62" transform="translate(91.4, 442.08)" fill="#ff0000">
<path d="m0,8.84l8.84,-8.84l-8.84,-8.84l-8.84,8.84l8.84,8.84m0,-4.42l4.42,-4.42l-4.42,-4.42l-4.42,4.42l4.42,4.42"/>
</g>
<g stroke-width="0.62" transform="translate(140.13, 425.84)" fill="#ff0000">
<path d="m0,8.84l8.84,-8.84l-8.84,-8.84l-8.84,8.84l8.84,8.84m0,-4.42l4.42,-4.42l-4.42,-4.42l-4.42,4.42l4.42,4.42"/>
</g>
<g stroke-width="0.62" transform="translate(286.31, 328.39)" fill="#ff0000">
<path d="m0,8.84l8.84,-8.84l-8.84,-8.84l-8.84,8.84l8.84,8.84m0,-4.42l4.42,-4.42l-4.42,-4.42l-4.42,4.42l4.42,4.42"/>
</g>
<g stroke-width="0.62" transform="translate(286.31, 247.18)" fill="#ff0000">
<path d="m0,8.84l8.84,-8.84l-8.84,-8.84l-8.84,8.84l8.84,8.84m0,-4.42l4.42,-4.42l-4.42,-4.42l-4.42,4.42l4.42,4.42"/>
</g>
</g>
<g clip-path="url(#c0)">
<g fill-opacity="0.5" stroke-width="0.62" transform="translate(409.88, 143.07)" fill="#0000ff">
<ellipse cx="0" cy="0" rx="24.36" ry="24.36"/>
</g>
<g stroke-width="0.62" transform="matrix(0.707107 -0.707107 0.707107 0.707107 123.81 405.78)" fill="#000000">
<path d="M0,0l161.1,0"/>
</g>
<g stroke-width="0.62" transform="matrix(0.707107 -0.707107 0.707107 0.707107 237.73 291.87)" fill="#000000">
<path d="m0,0l-11.25,6.25l2.5,-6.25l-2.5,-6.25l11.25,6.25"/>
</g>
<g stroke-width="0.62" transform="matrix(-0.707107 0.707107 0.707107 0.707107 123.81 405.78)" fill="#000000">
<path d="m0,0l-11.25,6.25l2.5,-6.25l-2.5,-6.25l11.25,6.25"/>
</g>
<g fill-opacity="0.5" stroke-width="0.62" transform="matrix(0.707107 0.707107 -0.707107 0.707107 91.4 442.08)" fill="#ffffff">
<path d="m-24.36,-24.36l48.73,0l0,48.73l-48.73,0l0,-48.73"/>
</g>
<g fill-opacity="0.5" stroke-width="0.62" transform="matrix(0.707107 0.707107 -0.707107 0.707107 286.31 247.18)" fill="#ffffff">
<path d="m-48.73,-48.73l97.45,0l0,97.45l-97.45,0l0,-97.45"/>
</g>
<g stroke-width="0.62" stroke-linecap="butt" fill="none">
<path d="M42.68,490.81l0,-487.25"/>
<path d="M42.68,490.81l3.75,0M42.68,474.57l3.75,0M42.68,458.33l3.75,0M42.68,442.08l3.75,0M42.68,425.84l3.75,0M42.68,409.6l3.75,0M42.68,393.36l3.75,0M42.68,377.12l3.75,0M42.68,360.88l3.75,0M42.68,344.63l3.75,0M42.68,328.39l3.75,0M42.68,312.15l3.75,0M42.68,295.91l3.75,0M42.68,279.67l3.75,0M42.68,263.43l3.75,0M42.68,247.18l3.75,0M42.68,230.94l3.75,0M42.68,214.7l3.75,0M42.68,198.46l3.75,0M42.68,182.22l3.75,0M42.68,165.97l3.75,0M42.68,149.73l3.75,0M42.68,133.49l3.75,0M42.68,117.25l3.75,0M42.68,101.01l3.75,0M42.68,84.77l3.75,0M42.68,68.52l3.75,0M42.68,52.28l3.75,0M42.68,36.04l3.75,0M42.68,19.8l3.75,0M42.68,3.56l3.75,0"/>
<path d="M42.68,490.81l7.5,0M42.68,409.6l7.5,0M42.68,328.39l7.5,0M42.68,247.18l7.5,0M42.68,165.97l7.5,0M42.68,84.77l7.5,0M42.68,3.56l7.5,0"/>
<path d="M529.93,490.81l0,-487.25"/>
<path d="M529.93,490.81l-3.75,0M529.93,474.57l-3.75,0M529.93,458.33l-3.75,0M529.93,442.08l-3.75,0M529.93,425.84l-3.75,0M529.93,409.6l-3.75,0M529.93,393.36l-3.75,0M529.93,377.12l-3.75,0M529.93,360.88l-3.75,0M529.93,344.63l-3.75,0M529.93,328.39l-3.75,0M529.93,312.15l-3.75,0M529.93,295.91l-3.75,0M529.93,279.67l-3.75,0M529.93,263.43l-3.75,0M529.93,247.18l-3.75,0M529.93,230.94l-3.75,0M529.93,214.7l-3.75,0M529.93,198.46l-3.75,0M529.93,182.22l-3.75,0M529.93,165.97l-3.75,0M529.93,149.73l-3.75,0M529.93,133.49l-3.75,0M529.93,117.25l-3.75,0M529.93,101.01l-3.75,0M529.93,84.77l-3.75,0M529.93,68.52l-3.75,0M529.93,52.28l-3.75,0M529.93,36.04l-3.75,0M529.93,19.8l-3.75,0M529.93,3.56l-3.75,0"/>
<path d="M529.93,490.81l-7.5,0M529.93,409.6l-7.5,0M529.93,328.39l-7.5,0M529.93,247.18l-7.5,0M529.93,165.97l-7.5,0M529.93,84.77l-7.5,0M529.93,3.56l-7.5,0"/>
</g>
<g stroke-width="1" fill="none">
<path d="m30.33,484.91c0,-1.35,0.2,-2.52,0.61,-3.51c0.41,-0.98,0.95,-1.72,1.64,-2.2c0.52,-0.39,1.06,-0.58,1.62,-0.58c0.92,0,1.74,0.47,2.47,1.41c0.91,1.16,1.36,2.72,1.36,4.69c0,1.39,-0.2,2.56,-0.6,3.53c-0.4,0.97,-0.91,1.67,-1.52,2.11c-0.61,0.44,-1.21,0.66,-1.78,0.66c-1.14,0,-2.08,-0.67,-2.84,-2.02c-0.64,-1.14,-0.95,-2.5,-0.95,-4.09m1.72,0.22c0,1.65,0.2,2.98,0.61,4.02c0.33,0.88,0.83,1.31,1.48,1.31c0.32,0,0.65,-0.14,0.99,-0.43c0.34,-0.29,0.6,-0.76,0.77,-1.43c0.27,-1,0.41,-2.42,0.41,-4.25c0,-1.36,-0.14,-2.5,-0.42,-3.41c-0.22,-0.68,-0.49,-1.16,-0.83,-1.44c-0.24,-0.19,-0.53,-0.28,-0.86,-0.28c-0.41,0,-0.76,0.18,-1.06,0.53c-0.43,0.49,-0.72,1.26,-0.87,2.3c-0.15,1.04,-0.23,2.07,-0.23,3.08" fill="#000000" stroke="none" fill-opacity="1"/>
<path d="m7.33,409.38c0,-1.35,0.2,-2.52,0.61,-3.51c0.41,-0.98,0.95,-1.72,1.64,-2.2c0.52,-0.39,1.06,-0.58,1.62,-0.58c0.92,0,1.74,0.47,2.47,1.41c0.91,1.16,1.36,2.72,1.36,4.69c0,1.39,-0.2,2.56,-0.6,3.53c-0.4,0.97,-0.91,1.67,-1.52,2.11c-0.61,0.44,-1.21,0.66,-1.78,0.66c-1.14,0,-2.08,-0.67,-2.84,-2.02c-0.64,-1.14,-0.95,-2.5,-0.95,-4.09m1.72,0.22c0,1.65,0.2,2.98,0.61,4.02c0.33,0.88,0.83,1.31,1.48,1.31c0.32,0,0.65,-0.14,0.99,-0.43c0.34,-0.29,0.6,-0.76,0.77,-1.43c0.27,-1,0.41,-2.42,0.41,-4.25c0,-1.36,-0.14,-2.5,-0.42,-3.41c-0.22,-0.68,-0.49,-1.16,-0.83,-1.44c-0.24,-0.19,-0.53,-0.28,-0.86,-0.28c-0.41,0,-0.76,0.18,-1.06,0.53c-0.43,0.49,-0.72,1.26,-0.87,2.3c-0.15,1.04,-0.23,2.07,-0.23,3.08m8.88,3.97c0.27,0,0.5,0.09,0.69,0.28c0.19,0.19,0.28,0.42,0.28,0.69c0,0.27,-0.09,0.5,-0.28,0.7c-0.19,0.19,-0.42,0.29,-0.69,0.29c-0.27,0,-0.5,-0.1,-0.69,-0.29c-0.19,-0.19,-0.28,-0.42,-0.28,-0.7c0,-0.27,0.09,-0.5,0.28,-0.69c0.19,-0.19,0.42,-0.28,0.69,-0.28m11,-0.59l-0.83,2.3l-7.03,0l0,-0.33c2.06,-1.89,3.52,-3.42,4.36,-4.62c0.84,-1.19,1.27,-2.29,1.27,-3.29c0,-0.75,-0.23,-1.37,-0.7,-1.85c-0.46,-0.48,-1.01,-0.73,-1.65,-0.73c-0.59,0,-1.12,0.17,-1.59,0.51c-0.46,0.34,-0.8,0.84,-1.02,1.51l-0.33,0c0.15,-1.08,0.52,-1.92,1.12,-2.5c0.6,-0.58,1.36,-0.88,2.27,-0.88c0.97,0,1.78,0.31,2.43,0.94c0.65,0.62,0.98,1.36,0.98,2.2c0,0.6,-0.14,1.21,-0.42,1.81c-0.44,0.95,-1.14,1.95,-2.11,3.02c-1.47,1.59,-2.38,2.55,-2.73,2.88l3.11,0c0.62,0,1.07,-0.02,1.32,-0.07c0.26,-0.05,0.49,-0.14,0.7,-0.29c0.21,-0.15,0.39,-0.35,0.53,-0.61l0.33,0m8.56,-9.62l-0.69,1.5l-3.58,0l-0.78,1.59c1.55,0.23,2.78,0.81,3.69,1.73c0.78,0.8,1.17,1.74,1.17,2.81c0,0.62,-0.13,1.21,-0.38,1.74c-0.26,0.54,-0.58,0.99,-0.96,1.37c-0.39,0.38,-0.82,0.68,-1.3,0.91c-0.68,0.32,-1.37,0.48,-2.08,0.48c-0.71,0,-1.23,-0.12,-1.55,-0.37c-0.33,-0.24,-0.49,-0.51,-0.49,-0.8c0,-0.17,0.07,-0.31,0.2,-0.44c0.14,-0.12,0.31,-0.19,0.52,-0.19c0.15,0,0.28,0.02,0.39,0.07c0.11,0.05,0.31,0.16,0.59,0.35c0.44,0.31,0.88,0.47,1.33,0.47c0.69,0,1.29,-0.26,1.81,-0.78c0.52,-0.52,0.78,-1.15,0.78,-1.89c0,-0.73,-0.23,-1.4,-0.7,-2.02c-0.46,-0.62,-1.1,-1.1,-1.91,-1.45c-0.65,-0.26,-1.52,-0.41,-2.62,-0.45l2.3,-4.64l4.27,0" fill="#000000" stroke="none" fill-opacity="1"/>
<path d="m16.33,328.16c0,-1.35,0.2,-2.52,0.61,-3.51c0.41,-0.98,0.95,-1.72,1.64,-2.2c0.52,-0.39,1.06,-0.58,1.62,-0.58c0.92,0,1.74,0.47,2.47,1.41c0.91,1.16,1.36,2.72,1.36,4.69c0,1.39,-0.2,2.56,-0.6,3.53c-0.4,0.97,-0.91,1.67,-1.52,2.11c-0.61,0.44,-1.21,0.66,-1.78,0.66c-1.14,0,-2.08,-0.67,-2.84,-2.02c-0.64,-1.14,-0.95,-2.5,-0.95,-4.09m1.72,0.22c0,1.65,0.2,2.98,0.61,4.02c0.33,0.88,0.83,1.31,1.48,1.31c0.32,0,0.65,-0.14,0.99,-0.43c0.34,-0.29,0.6,-0.76,0.77,-1.43c0.27,-1,0.41,-2.42,0.41,-4.25c0,-1.36,-0.14,-2.5,-0.42,-3.41c-0.22,-0.68,-0.49,-1.16,-0.83,-1.44c-0.24,-0.19,-0.53,-0.28,-0.86,-0.28c-0.41,0,-0.76,0.18,-1.06,0.53c-0.43,0.49,-0.72,1.26,-0.87,2.3c-0.15,1.04,-0.23,2.07,-0.23,3.08m8.88,3.97c0.27,0,0.5,0.09,0.69,0.28c0.19,0.19,0.28,0.42,0.28,0.69c0,0.27,-0.09,0.5,-0.28,0.7c-0.19,0.19,-0.42,0.29,-0.69,0.29c-0.27,0,-0.5,-0.1,-0.69,-0.29c-0.19,-0.19,-0.28,-0.42,-0.28,-0.7c0,-0.27,0.09,-0.5,0.28,-0.69c0.19,-0.19,0.42,-0.28,0.69,-0.28m10.56,-10.22l-0.69,1.5l-3.58,0l-0.78,1.59c1.55,0.23,2.78,0.81,3.69,1.73c0.78,0.8,1.17,1.74,1.17,2.81c0,0.62,-0.13,1.21,-0.38,1.74c-0.26,0.54,-0.58,0.99,-0.96,1.37c-0.39,0.38,-0.82,0.68,-1.3,0.91c-0.68,0.32,-1.37,0.48,-2.08,0.48c-0.71,0,-1.23,-0.12,-1.55,-0.37c-0.33,-0.24,-0.49,-0.51,-0.49,-0.8c0,-0.17,0.07,-0.31,0.2,-0.44c0.14,-0.12,0.31,-0.19,0.52,-0.19c0.15,0,0.28,0.02,0.39,0.07c0.11,0.05,0.31,0.16,0.59,0.35c0.44,0.31,0.88,0.47,1.33,0.47c0.69,0,1.29,-0.26,1.81,-0.78c0.52,-0.52,0.78,-1.15,0.78,-1.89c0,-0.73,-0.23,-1.4,-0.7,-2.02c-0.46,-0.62,-1.1,-1.1,-1.91,-1.45c-0.65,-0.26,-1.52,-0.41,-2.62,-0.45l2.3,-4.64l4.27,0" fill="#000000" stroke="none" fill-opacity="1"/>
<path d="m7.33,246.95c0,-1.35,0.2,-2.52,0.61,-3.51c0.41,-0.98,0.95,-1.72,1.64,-2.2c0.52,-0.39,1.06,-0.58,1.62,-0.58c0.92,0,1.74,0.47,2.47,1.41c0.91,1.16,1.36,2.72,1.36,4.69c0,1.39,-0.2,2.56,-0.6,3.53c-0.4,0.97,-0.91,1.67,-1.52,2.11c-0.61,0.44,-1.21,0.66,-1.78,0.66c-1.14,0,-2.08,-0.67,-2.84,-2.02c-0.64,-1.14,-0.95,-2.5,-0.95,-4.09m1.72,0.22c0,1.65,0.2,2.98,0.61,4.02c0.33,0.88,0.83,1.31,1.48,1.31c0.32,0,0.65,-0.14,0.99,-0.43c0.34,-0.29,0.6,-0.76,0.77,-1.43c0.27,-1,0.41,-2.42,0.41,-4.25c0,-1.36,-0.14,-2.5,-0.42,-3.41c-0.22,-0.68,-0.49,-1.16,-0.83,-1.44c-0.24,-0.19,-0.53,-0.28,-0.86,-0.28c-0.41,0,-0.76,0.18,-1.06,0.53c-0.43,0.49,-0.72,1.26,-0.87,2.3c-0.15,1.04,-0.23,2.07,-0.23,3.08m8.88,3.97c0.27,0,0.5,0.09,0.69,0.28c0.19,0.19,0.28,0.42,0.28,0.69c0,0.27,-0.09,0.5,-0.28,0.7c-0.19,0.19,-0.42,0.29,-0.69,0.29c-0.27,0,-0.5,-0.1,-0.69,-0.29c-0.19,-0.19,-0.28,-0.42,-0.28,-0.7c0,-0.27,0.09,-0.5,0.28,-0.69c0.19,-0.19,0.42,-0.28,0.69,-0.28m4.56,-10.22l6.39,0l0,0.34l-3.97,11.83l-0.98,0l3.55,-10.73l-3.27,0c-0.67,0,-1.14,0.08,-1.42,0.23c-0.49,0.27,-0.89,0.69,-1.19,1.25l-0.25,-0.09l1.14,-2.83m15,0l-0.69,1.5l-3.58,0l-0.78,1.59c1.55,0.23,2.78,0.81,3.69,1.73c0.78,0.8,1.17,1.74,1.17,2.81c0,0.62,-0.13,1.21,-0.38,1.74c-0.26,0.54,-0.58,0.99,-0.96,1.37c-0.39,0.38,-0.82,0.68,-1.3,0.91c-0.68,0.32,-1.37,0.48,-2.08,0.48c-0.71,0,-1.23,-0.12,-1.55,-0.37c-0.33,-0.24,-0.49,-0.51,-0.49,-0.8c0,-0.17,0.07,-0.31,0.2,-0.44c0.14,-0.12,0.31,-0.19,0.52,-0.19c0.15,0,0.28,0.02,0.39,0.07c0.11,0.05,0.31,0.16,0.59,0.35c0.44,0.31,0.88,0.47,1.33,0.47c0.69,0,1.29,-0.26,1.81,-0.78c0.52,-0.52,0.78,-1.15,0.78,-1.89c0,-0.73,-0.23,-1.4,-0.7,-2.02c-0.46,-0.62,-1.1,-1.1,-1.91,-1.45c-0.65,-0.26,-1.52,-0.41,-2.62,-0.45l2.3,-4.64l4.27,0" fill="#000000" stroke="none" fill-opacity="1"/>
<path d="m31.78,160.89l2.91,-1.42l0.28,0l0,10.08c0,0.67,0.03,1.08,0.09,1.24c0.06,0.16,0.17,0.29,0.35,0.38c0.18,0.09,0.53,0.14,1.06,0.15l0,0.33l-4.47,0l0,-0.33c0.56,-0.01,0.92,-0.06,1.09,-0.14c0.16,-0.08,0.27,-0.2,0.34,-0.34c0.06,-0.15,0.09,-0.57,0.09,-1.28l0,-6.44c0,-0.86,-0.03,-1.42,-0.08,-1.67c-0.04,-0.19,-0.12,-0.33,-0.23,-0.41c-0.11,-0.09,-0.24,-0.13,-0.4,-0.13c-0.21,0,-0.51,0.09,-0.91,0.27l-0.12,-0.27" fill="#000000" stroke="none" fill-opacity="1"/>
<path d="m8.78,79.67l2.91,-1.42l0.28,0l0,10.08c0,0.67,0.03,1.08,0.09,1.24c0.06,0.16,0.17,0.29,0.35,0.38c0.18,0.09,0.53,0.14,1.06,0.15l0,0.33l-4.47,0l0,-0.33c0.56,-0.01,0.92,-0.06,1.09,-0.14c0.16,-0.08,0.27,-0.2,0.34,-0.34c0.06,-0.15,0.09,-0.57,0.09,-1.28l0,-6.44c0,-0.86,-0.03,-1.42,-0.08,-1.67c-0.04,-0.19,-0.12,-0.33,-0.23,-0.41c-0.11,-0.09,-0.24,-0.13,-0.4,-0.13c-0.21,0,-0.51,0.09,-0.91,0.27l-0.12,-0.27m9.14,9.05c0.27,0,0.5,0.09,0.69,0.28c0.19,0.19,0.28,0.42,0.28,0.69c0,0.27,-0.09,0.5,-0.28,0.7c-0.19,0.19,-0.42,0.29,-0.69,0.29c-0.27,0,-0.5,-0.1,-0.69,-0.29c-0.19,-0.19,-0.28,-0.42,-0.28,-0.7c0,-0.27,0.09,-0.5,0.28,-0.69c0.19,-0.19,0.42,-0.28,0.69,-0.28m11,-0.59l-0.83,2.3l-7.03,0l0,-0.33c2.06,-1.89,3.52,-3.42,4.36,-4.62c0.84,-1.19,1.27,-2.29,1.27,-3.29c0,-0.75,-0.23,-1.37,-0.7,-1.85c-0.46,-0.48,-1.01,-0.73,-1.65,-0.73c-0.59,0,-1.12,0.17,-1.59,0.51c-0.46,0.34,-0.8,0.84,-1.02,1.51l-0.33,0c0.15,-1.08,0.52,-1.92,1.12,-2.5c0.6,-0.58,1.36,-0.88,2.27,-0.88c0.97,0,1.78,0.31,2.43,0.94c0.65,0.62,0.98,1.36,0.98,2.2c0,0.6,-0.14,1.21,-0.42,1.81c-0.44,0.95,-1.14,1.95,-2.11,3.02c-1.47,1.59,-2.38,2.55,-2.73,2.88l3.11,0c0.62,0,1.07,-0.02,1.32,-0.07c0.26,-0.05,0.49,-0.14,0.7,-0.29c0.21,-0.15,0.39,-0.35,0.53,-0.61l0.33,0m8.56,-9.62l-0.69,1.5l-3.58,0l-0.78,1.59c1.55,0.23,2.78,0.81,3.69,1.73c0.78,0.8,1.17,1.74,1.17,2.81c0,0.62,-0.13,1.21,-0.38,1.74c-0.26,0.54,-0.58,0.99,-0.96,1.37c-0.39,0.38,-0.82,0.68,-1.3,0.91c-0.68,0.32,-1.37,0.48,-2.08,0.48c-0.71,0,-1.23,-0.12,-1.55,-0.37c-0.33,-0.24,-0.49,-0.51,-0.49,-0.8c0,-0.17,0.07,-0.31,0.2,-0.44c0.14,-0.12,0.31,-0.19,0.52,-0.19c0.15,0,0.28,0.02,0.39,0.07c0.11,0.05,0.31,0.16,0.59,0.35c0.44,0.31,0.88,0.47,1.33,0.47c0.69,0,1.29,-0.26,1.81,-0.78c0.52,-0.52,0.78,-1.15,0.78,-1.89c0,-0.73,-0.23,-1.4,-0.7,-2.02c-0.46,-0.62,-1.1,-1.1,-1.91,-1.45c-0.65,-0.26,-1.52,-0.41,-2.62,-0.45l2.3,-4.64l4.27,0" fill="#000000" stroke="none" fill-opacity="1"/>
<path d="m17.78,4.12l2.91,-1.42l0.28,0l0,10.08c0,0.67,0.03,1.08,0.09,1.24c0.06,0.16,0.17,0.29,0.35,0.38c0.18,0.09,0.53,0.14,1.06,0.15l0,0.33l-4.47,0l0,-0.33c0.56,-0.01,0.92,-0.06,1.09,-0.14c0.16,-0.08,0.27,-0.2,0.34,-0.34c0.06,-0.15,0.09,-0.57,0.09,-1.28l0,-6.44c0,-0.86,-0.03,-1.42,-0.08,-1.67c-0.04,-0.19,-0.12,-0.33,-0.23,-0.41c-0.11,-0.09,-0.24,-0.13,-0.4,-0.13c-0.21,0,-0.51,0.09,-0.91,0.27l-0.12,-0.27m9.14,9.05c0.27,0,0.5,0.09,0.69,0.28c0.19,0.19,0.28,0.42,0.28,0.69c0,0.27,-0.09,0.5,-0.28,0.7c-0.19,0.19,-0.42,0.29,-0.69,0.29c-0.27,0,-0.5,-0.1,-0.69,-0.29c-0.19,-0.19,-0.28,-0.42,-0.28,-0.7c0,-0.27,0.09,-0.5,0.28,-0.69c0.19,-0.19,0.42,-0.28,0.69,-0.28m10.56,-10.22l-0.69,1.5l-3.58,0l-0.78,1.59c1.55,0.23,2.78,0.81,3.69,1.73c0.78,0.8,1.17,1.74,1.17,2.81c0,0.62,-0.13,1.21,-0.38,1.74c-0.26,0.54,-0.58,0.99,-0.96,1.37c-0.39,0.38,-0.82,0.68,-1.3,0.91c-0.68,0.32,-1.37,0.48,-2.08,0.48c-0.71,0,-1.23,-0.12,-1.55,-0.37c-0.33,-0.24,-0.49,-0.51,-0.49,-0.8c0,-0.17,0.07,-0.31,0.2,-0.44c0.14,-0.12,0.31,-0.19,0.52,-0.19c0.15,0,0.28,0.02,0.39,0.07c0.11,0.05,0.31,0.16,0.59,0.35c0.44,0.31,0.88,0.47,1.33,0.47c0.69,0,1.29,-0.26,1.81,-0.78c0.52,-0.52,0.78,-1.15,0.78,-1.89c0,-0.73,-0.23,-1.4,-0.7,-2.02c-0.46,-0.62,-1.1,-1.1,-1.91,-1.45c-0.65,-0.26,-1.52,-0.41,-2.62,-0.45l2.3,-4.64l4.27,0" fill="#000000" stroke="none" fill-opacity="1"/>
</g>
<g stroke-width="0.62" stroke-linecap="butt" fill="none">
<path d="M42.68,490.81l487.25,0"/>
<path d="M42.68,490.81l0,-3.75M67.04,490.81l0,-3.75M91.4,490.81l0,-3.75M115.77,490.81l0,-3.75M140.13,490.81l0,-3.75M164.49,490.81l0,-3.75M188.86,490.81l0,-3.75M213.22,490.81l0,-3.75M237.58,490.81l0,-3.75M261.94,490.81l0,-3.75M286.31,490.81l0,-3.75M310.67,490.81l0,-3.75M335.03,490.81l0,-3.75M359.39,490.81l0,-3.75M383.76,490.81l0,-3.75M408.12,490.81l0,-3.75M432.48,490.81l0,-3.75M456.84,490.81l0,-3.75M481.21,490.81l0,-3.75M505.57,490.81l0,-3.75M529.93,490.81l0,-3.75"/>
<path d="M42.68,490.81l0,-7.5M140.13,490.81l0,-7.5M237.58,490.81l0,-7.5M335.03,490.81l0,-7.5M432.48,490.81l0,-7.5M529.93,490.81l0,-7.5"/>
<path d="M42.68,3.56l487.25,0"/>
<path d="M42.68,3.56l0,3.75M67.04,3.56l0,3.75M91.4,3.56l0,3.75M115.77,3.56l0,3.75M140.13,3.56l0,3.75M164.49,3.56l0,3.75M188.86,3.56l0,3.75M213.22,3.56l0,3.75M237.58,3.56l0,3.75M261.94,3.56l0,3.75M286.31,3.56l0,3.75M310.67,3.56l0,3.75M335.03,3.56l0,3.75M359.39,3.56l0,3.75M383.76,3.56l0,3.75M408.12,3.56l0,3.75M432.48,3.56l0,3.75M456.84,3.56l0,3.75M481.21,3.56l0,3.75M505.57,3.56l0,3.75M529.93,3.56l0,3.75"/>
<path d="M42.68,3.56l0,7.5M140.13,3.56l0,7.5M237.58,3.56l0,7.5M335.03,3.56l0,7.5M432.48,3.56l0,7.5M529.93,3.56l0,7.5"/>
</g>
<g stroke-width="1" fill="none">
<path d="m43.33,505.91c0,-1.35,0.2,-2.52,0.61,-3.51c0.41,-0.98,0.95,-1.72,1.64,-2.2c0.52,-0.39,1.06,-0.58,1.62,-0.58c0.92,0,1.74,0.47,2.47,1.41c0.91,1.16,1.36,2.72,1.36,4.69c0,1.39,-0.2,2.56,-0.6,3.53c-0.4,0.97,-0.91,1.67,-1.52,2.11c-0.61,0.44,-1.21,0.66,-1.78,0.66c-1.14,0,-2.08,-0.67,-2.84,-2.02c-0.64,-1.14,-0.95,-2.5,-0.95,-4.09m1.72,0.22c0,1.65,0.2,2.98,0.61,4.02c0.33,0.88,0.83,1.31,1.48,1.31c0.32,0,0.65,-0.14,0.99,-0.43c0.34,-0.29,0.6,-0.76,0.77,-1.43c0.27,-1,0.41,-2.42,0.41,-4.25c0,-1.36,-0.14,-2.5,-0.42,-3.41c-0.22,-0.68,-0.49,-1.16,-0.83,-1.44c-0.24,-0.19,-0.53,-0.28,-0.86,-0.28c-0.41,0,-0.76,0.18,-1.06,0.53c-0.43,0.49,-0.72,1.26,-0.87,2.3c-0.15,1.04,-0.23,2.07,-0.23,3.08" fill="#000000" stroke="none" fill-opacity="1"/>
<path d="m129.28,505.91c0,-1.35,0.2,-2.52,0.61,-3.51c0.41,-0.98,0.95,-1.72,1.64,-2.2c0.52,-0.39,1.06,-0.58,1.62,-0.58c0.92,0,1.74,0.47,2.47,1.41c0.91,1.16,1.36,2.72,1.36,4.69c0,1.39,-0.2,2.56,-0.6,3.53c-0.4,0.97,-0.91,1.67,-1.52,2.11c-0.61,0.44,-1.21,0.66,-1.78,0.66c-1.14,0,-2.08,-0.67,-2.84,-2.02c-0.64,-1.14,-0.95,-2.5,-0.95,-4.09m1.72,0.22c0,1.65,0.2,2.98,0.61,4.02c0.33,0.88,0.83,1.31,1.48,1.31c0.32,0,0.65,-0.14,0.99,-0.43c0.34,-0.29,0.6,-0.76,0.77,-1.43c0.27,-1,0.41,-2.42,0.41,-4.25c0,-1.36,-0.14,-2.5,-0.42,-3.41c-0.22,-0.68,-0.49,-1.16,-0.83,-1.44c-0.24,-0.19,-0.53,-0.28,-0.86,-0.28c-0.41,0,-0.76,0.18,-1.06,0.53c-0.43,0.49,-0.72,1.26,-0.87,2.3c-0.15,1.04,-0.23,2.07,-0.23,3.08m8.88,3.97c0.27,0,0.5,0.09,0.69,0.28c0.19,0.19,0.28,0.42,0.28,0.69c0,0.27,-0.09,0.5,-0.28,0.7c-0.19,0.19,-0.42,0.29,-0.69,0.29c-0.27,0,-0.5,-0.1,-0.69,-0.29c-0.19,-0.19,-0.28,-0.42,-0.28,-0.7c0,-0.27,0.09,-0.5,0.28,-0.69c0.19,-0.19,0.42,-0.28,0.69,-0.28m11,-0.59l-0.83,2.3l-7.03,0l0,-0.33c2.06,-1.89,3.52,-3.42,4.36,-4.62c0.84,-1.19,1.27,-2.29,1.27,-3.29c0,-0.75,-0.23,-1.37,-0.7,-1.85c-0.46,-0.48,-1.01,-0.73,-1.65,-0.73c-0.59,0,-1.12,0.17,-1.59,0.51c-0.46,0.34,-0.8,0.84,-1.02,1.51l-0.33,0c0.15,-1.08,0.52,-1.92,1.12,-2.5c0.6,-0.58,1.36,-0.88,2.27,-0.88c0.97,0,1.78,0.31,2.43,0.94c0.65,0.62,0.98,1.36,0.98,2.2c0,0.6,-0.14,1.21,-0.42,1.81c-0.44,0.95,-1.14,1.95,-2.11,3.02c-1.47,1.59,-2.38,2.55,-2.73,2.88l3.11,0c0.62,0,1.07,-0.02,1.32,-0.07c0.26,-0.05,0.49,-0.14,0.7,-0.29c0.21,-0.15,0.39,-0.35,0.53,-0.61l0.33,0" fill="#000000" stroke="none" fill-opacity="1"/>
<path d="m226.73,505.91c0,-1.35,0.2,-2.52,0.61,-3.51c0.41,-0.98,0.95,-1.72,1.64,-2.2c0.52,-0.39,1.06,-0.58,1.62,-0.58c0.92,0,1.74,0.47,2.47,1.41c0.91,1.16,1.36,2.72,1.36,4.69c0,1.39,-0.2,2.56,-0.6,3.53c-0.4,0.97,-0.91,1.67,-1.52,2.11c-0.61,0.44,-1.21,0.66,-1.78,0.66c-1.14,0,-2.08,-0.67,-2.84,-2.02c-0.64,-1.14,-0.95,-2.5,-0.95,-4.09m1.72,0.22c0,1.65,0.2,2.98,0.61,4.02c0.33,0.88,0.83,1.31,1.48,1.31c0.32,0,0.65,-0.14,0.99,-0.43c0.34,-0.29,0.6,-0.76,0.77,-1.43c0.27,-1,0.41,-2.42,0.41,-4.25c0,-1.36,-0.14,-2.5,-0.42,-3.41c-0.22,-0.68,-0.49,-1.16,-0.83,-1.44c-0.24,-0.19,-0.53,-0.28,-0.86,-0.28c-0.41,0,-0.76,0.18,-1.06,0.53c-0.43,0.49,-0.72,1.26,-0.87,2.3c-0.15,1.04,-0.23,2.07,-0.23,3.08m8.88,3.97c0.27,0,0.5,0.09,0.69,0.28c0.19,0.19,0.28,0.42,0.28,0.69c0,0.27,-0.09,0.5,-0.28,0.7c-0.19,0.19,-0.42,0.29,-0.69,0.29c-0.27,0,-0.5,-0.1,-0.69,-0.29c-0.19,-0.19,-0.28,-0.42,-0.28,-0.7c0,-0.27,0.09,-0.5,0.28,-0.69c0.19,-0.19,0.42,-0.28,0.69,-0.28m11.12,-2.69l0,1.25l-1.59,0l0,3.14l-1.45,0l0,-3.14l-5.05,0l0,-1.12l5.53,-7.91l0.97,0l0,7.78l1.59,0m-3.05,0l0,-5.92l-4.19,5.92l4.19,0" fill="#000000" stroke="none" fill-opacity="1"/>
<path d="m324.17,505.91c0,-1.35,0.2,-2.52,0.61,-3.51c0.41,-0.98,0.95,-1.72,1.64,-2.2c0.52,-0.39,1.06,-0.58,1.62,-0.58c0.92,0,1.74,0.47,2.47,1.41c0.91,1.16,1.36,2.72,1.36,4.69c0,1.39,-0.2,2.56,-0.6,3.53c-0.4,0.97,-0.91,1.67,-1.52,2.11c-0.61,0.44,-1.21,0.66,-1.78,0.66c-1.14,0,-2.08,-0.67,-2.84,-2.02c-0.64,-1.14,-0.95,-2.5,-0.95,-4.09m1.72,0.22c0,1.65,0.2,2.98,0.61,4.02c0.33,0.88,0.83,1.31,1.48,1.31c0.32,0,0.65,-0.14,0.99,-0.43c0.34,-0.29,0.6,-0.76,0.77,-1.43c0.27,-1,0.41,-2.42,0.41,-4.25c0,-1.36,-0.14,-2.5,-0.42,-3.41c-0.22,-0.68,-0.49,-1.16,-0.83,-1.44c-0.24,-0.19,-0.53,-0.28,-0.86,-0.28c-0.41,0,-0.76,0.18,-1.06,0.53c-0.43,0.49,-0.72,1.26,-0.87,2.3c-0.15,1.04,-0.23,2.07,-0.23,3.08m8.88,3.97c0.27,0,0.5,0.09,0.69,0.28c0.19,0.19,0.28,0.42,0.28,0.69c0,0.27,-0.09,0.5,-0.28,0.7c-0.19,0.19,-0.42,0.29,-0.69,0.29c-0.27,0,-0.5,-0.1,-0.69,-0.29c-0.19,-0.19,-0.28,-0.42,-0.28,-0.7c0,-0.27,0.09,-0.5,0.28,-0.69c0.19,-0.19,0.42,-0.28,0.69,-0.28m10.81,-10.47l0,0.33c-0.77,0.08,-1.4,0.24,-1.89,0.47c-0.49,0.23,-0.97,0.58,-1.45,1.05c-0.47,0.47,-0.87,1,-1.19,1.59c-0.32,0.58,-0.58,1.28,-0.79,2.08c0.84,-0.58,1.69,-0.88,2.55,-0.88c0.81,0,1.52,0.33,2.12,0.98c0.6,0.66,0.9,1.5,0.9,2.53c0,1,-0.3,1.91,-0.91,2.73c-0.73,1,-1.69,1.5,-2.89,1.5c-0.81,0,-1.51,-0.27,-2.08,-0.81c-1.1,-1.05,-1.66,-2.41,-1.66,-4.08c0,-1.07,0.21,-2.09,0.64,-3.05c0.43,-0.96,1.04,-1.81,1.83,-2.55c0.79,-0.74,1.55,-1.25,2.28,-1.51c0.73,-0.26,1.41,-0.39,2.03,-0.39l0.5,0m-5.45,6.16c-0.11,0.79,-0.17,1.43,-0.17,1.92c0,0.56,0.1,1.17,0.31,1.83c0.21,0.66,0.52,1.18,0.94,1.58c0.29,0.27,0.65,0.41,1.08,0.41c0.51,0,0.97,-0.24,1.37,-0.72c0.4,-0.48,0.6,-1.17,0.6,-2.06c0,-1,-0.2,-1.87,-0.59,-2.6c-0.4,-0.73,-0.96,-1.1,-1.69,-1.1c-0.23,0,-0.47,0.05,-0.73,0.14c-0.26,0.09,-0.63,0.3,-1.12,0.61" fill="#000000" stroke="none" fill-opacity="1"/>
<path d="m421.62,505.91c0,-1.35,0.2,-2.52,0.61,-3.51c0.41,-0.98,0.95,-1.72,1.64,-2.2c0.52,-0.39,1.06,-0.58,1.62,-0.58c0.92,0,1.74,0.47,2.47,1.41c0.91,1.16,1.36,2.72,1.36,4.69c0,1.39,-0.2,2.56,-0.6,3.53c-0.4,0.97,-0.91,1.67,-1.52,2.11c-0.61,0.44,-1.21,0.66,-1.78,0.66c-1.14,0,-2.08,-0.67,-2.84,-2.02c-0.64,-1.14,-0.95,-2.5,-0.95,-4.09m1.72,0.22c0,1.65,0.2,2.98,0.61,4.02c0.33,0.88,0.83,1.31,1.48,1.31c0.32,0,0.65,-0.14,0.99,-0.43c0.34,-0.29,0.6,-0.76,0.77,-1.43c0.27,-1,0.41,-2.42,0.41,-4.25c0,-1.36,-0.14,-2.5,-0.42,-3.41c-0.22,-0.68,-0.49,-1.16,-0.83,-1.44c-0.24,-0.19,-0.53,-0.28,-0.86,-0.28c-0.41,0,-0.76,0.18,-1.06,0.53c-0.43,0.49,-0.72,1.26,-0.87,2.3c-0.15,1.04,-0.23,2.07,-0.23,3.08m8.88,3.97c0.27,0,0.5,0.09,0.69,0.28c0.19,0.19,0.28,0.42,0.28,0.69c0,0.27,-0.09,0.5,-0.28,0.7c-0.19,0.19,-0.42,0.29,-0.69,0.29c-0.27,0,-0.5,-0.1,-0.69,-0.29c-0.19,-0.19,-0.28,-0.42,-0.28,-0.7c0,-0.27,0.09,-0.5,0.28,-0.69c0.19,-0.19,0.42,-0.28,0.69,-0.28m6.2,-4.3c-0.94,-0.77,-1.54,-1.39,-1.82,-1.86c-0.28,-0.47,-0.41,-0.96,-0.41,-1.47c0,-0.77,0.3,-1.44,0.9,-2c0.6,-0.56,1.39,-0.84,2.38,-0.84c0.96,0,1.73,0.26,2.32,0.79c0.59,0.53,0.88,1.12,0.88,1.79c0,0.44,-0.16,0.89,-0.48,1.35c-0.32,0.46,-0.98,1.01,-1.98,1.65c1.03,0.79,1.71,1.42,2.05,1.88c0.45,0.59,0.67,1.22,0.67,1.89c0,0.83,-0.32,1.55,-0.96,2.15c-0.64,0.6,-1.48,0.9,-2.52,0.9c-1.12,0,-2.01,-0.36,-2.64,-1.08c-0.5,-0.56,-0.75,-1.18,-0.75,-1.86c0,-0.52,0.18,-1.04,0.53,-1.56c0.35,-0.52,0.96,-1.09,1.83,-1.72m1.38,-0.94c0.71,-0.64,1.16,-1.14,1.34,-1.5c0.19,-0.36,0.28,-0.78,0.28,-1.25c0,-0.61,-0.17,-1.1,-0.52,-1.45c-0.34,-0.35,-0.82,-0.52,-1.42,-0.52c-0.59,0,-1.08,0.17,-1.45,0.52c-0.38,0.34,-0.56,0.75,-0.56,1.22c0,0.3,0.08,0.61,0.23,0.91c0.16,0.31,0.38,0.6,0.66,0.87l1.44,1.2m-0.95,1.27c-0.49,0.42,-0.85,0.86,-1.09,1.34c-0.23,0.48,-0.35,1,-0.35,1.56c0,0.76,0.21,1.37,0.62,1.82c0.41,0.45,0.93,0.68,1.57,0.68c0.64,0,1.14,-0.18,1.52,-0.54c0.38,-0.36,0.57,-0.79,0.57,-1.29c0,-0.43,-0.11,-0.81,-0.33,-1.14c-0.42,-0.62,-1.26,-1.44,-2.52,-2.44" fill="#000000" stroke="none" fill-opacity="1"/>
<path d="m523.03,501.05l2.91,-1.42l0.28,0l0,10.08c0,0.67,0.03,1.08,0.09,1.24c0.06,0.16,0.17,0.29,0.35,0.38c0.18,0.09,0.53,0.14,1.06,0.15l0,0.33l-4.47,0l0,-0.33c0.56,-0.01,0.92,-0.06,1.09,-0.14c0.16,-0.08,0.27,-0.2,0.34,-0.34c0.06,-0.15,0.09,-0.57,0.09,-1.28l0,-6.44c0,-0.86,-0.03,-1.42,-0.08,-1.67c-0.04,-0.19,-0.12,-0.33,-0.23,-0.41c-0.11,-0.09,-0.24,-0.13,-0.4,-0.13c-0.21,0,-0.51,0.09,-0.91,0.27l-0.12,-0.27" fill="#000000" stroke="none" fill-opacity="1"/>
</g>
</g>
</g>
<defs>
<clipPath id="c0"><path d="m0,0l533.49,0l0,533.49l-533.49,0l0,-533.49"/></clipPath>
<clipPath id="c1"><path d="m42.68,3.56l487.25,0l0,487.25l-487.25,0l0,-487.25"/></clipPath>
</defs>
</svg>
