<?xml version="1.0" encoding="UTF-8" standalone="no"?>
<!-- Created with Inkscape (http://www.inkscape.org/) -->

<svg
   xmlns:dc="http://purl.org/dc/elements/1.1/"
   xmlns:cc="http://creativecommons.org/ns#"
   xmlns:rdf="http://www.w3.org/1999/02/22-rdf-syntax-ns#"
   xmlns:svg="http://www.w3.org/2000/svg"
   xmlns="http://www.w3.org/2000/svg"
   xmlns:sodipodi="http://sodipodi.sourceforge.net/DTD/sodipodi-0.dtd"
   xmlns:inkscape="http://www.inkscape.org/namespaces/inkscape"
   width="16"
   height="16"
   id="svg2"
   sodipodi:version="0.32"
   inkscape:version="0.48.5 r10040"
   version="1.0"
   sodipodi:docname="button_fit.svg"
   inkscape:output_extension="org.inkscape.output.svg.inkscape">
  <defs
     id="defs4" />
  <sodipodi:namedview
     id="base"
     pagecolor="#ffffff"
     bordercolor="#666666"
     borderopacity="1.0"
     gridtolerance="10000"
     guidetolerance="10"
     objecttolerance="10"
     inkscape:pageopacity="0.0"
     inkscape:pageshadow="2"
     inkscape:zoom="20.594486"
     inkscape:cx="9.1426776"
     inkscape:cy="8.4607504"
     inkscape:document-units="px"
     inkscape:current-layer="layer1"
     showgrid="false"
     inkscape:window-width="1023"
     inkscape:window-height="668"
     inkscape:window-x="247"
     inkscape:window-y="31"
     showguides="true"
     inkscape:guide-bbox="true" />
  <metadata
     id="metadata7">
    <rdf:RDF>
      <cc:Work
         rdf:about="">
        <dc:format>image/svg+xml</dc:format>
        <dc:type
           rdf:resource="http://purl.org/dc/dcmitype/StillImage" />
        <dc:creator>
          <cc:Agent>
            <dc:title>Jeremy Sanders</dc:title>
          </cc:Agent>
        </dc:creator>
        <dc:rights>
          <cc:Agent>
            <dc:title>Copyright (C) Jeremy Sanders</dc:title>
          </cc:Agent>
        </dc:rights>
        <cc:license
           rdf:resource="http://creativecommons.org/licenses/GPL/2.0/" />
      </cc:Work>
    </rdf:RDF>
  </metadata>
  <g
     inkscape:label="Layer 1"
     inkscape:groupmode="layer"
     id="layer1">
    <path
       sodipodi:type="arc"
       style="fill:#eb20ff;fill-opacity:1;fill-rule:evenodd;stroke:none;stroke-width:0.50000000000000000;stroke-linecap:butt;stroke-linejoin:miter;stroke-miterlimit:4;stroke-dasharray:none;stroke-opacity:1"
       id="path4202"
       sodipodi:cx="6.1459227"
       sodipodi:cy="6.0772533"
       sodipodi:rx="0.44635195"
       sodipodi:ry="0.44635195"
       d="M 6.5922746,6.0772533 A 0.44635195,0.44635195 0 1 1 5.6995707,6.0772533 A 0.44635195,0.44635195 0 1 1 6.5922746,6.0772533 z"
       transform="matrix(1.5384615,0,0,1.5384615,5.5463967e-2,-6.2594916)" />
    <path
       sodipodi:type="arc"
       style="fill:#eb20ff;fill-opacity:1;fill-rule:evenodd;stroke:none;stroke-width:0.5;stroke-linecap:butt;stroke-linejoin:miter;stroke-miterlimit:4;stroke-dasharray:none;stroke-opacity:1"
       id="path4204"
       sodipodi:cx="6.1459227"
       sodipodi:cy="6.0772533"
       sodipodi:rx="0.44635195"
       sodipodi:ry="0.44635195"
       d="M 6.5922746,6.0772533 A 0.44635195,0.44635195 0 1 1 5.6995707,6.0772533 A 0.44635195,0.44635195 0 1 1 6.5922746,6.0772533 z"
       transform="matrix(1.5384615,0,0,1.5384615,2.138103,-2.358121)" />
    <path
       sodipodi:type="arc"
       style="fill:#eb20ff;fill-opacity:1;fill-rule:evenodd;stroke:none;stroke-width:0.5;stroke-linecap:butt;stroke-linejoin:miter;stroke-miterlimit:4;stroke-dasharray:none;stroke-opacity:1"
       id="path4206"
       sodipodi:cx="6.1459227"
       sodipodi:cy="6.0772533"
       sodipodi:rx="0.44635195"
       sodipodi:ry="0.44635195"
       d="M 6.5922746,6.0772533 A 0.44635195,0.44635195 0 1 1 5.6995707,6.0772533 A 0.44635195,0.44635195 0 1 1 6.5922746,6.0772533 z"
       transform="matrix(1.5384615,0,0,1.5384615,-2.5117307,-4.1238346)" />
    <path
       sodipodi:type="arc"
       style="fill:#eb20ff;fill-opacity:1;fill-rule:evenodd;stroke:none;stroke-width:0.5;stroke-linecap:butt;stroke-linejoin:miter;stroke-miterlimit:4;stroke-dasharray:none;stroke-opacity:1"
       id="path4208"
       sodipodi:cx="6.1459227"
       sodipodi:cy="6.0772533"
       sodipodi:rx="0.44635195"
       sodipodi:ry="0.44635195"
       d="M 6.5922746,6.0772533 A 0.44635195,0.44635195 0 1 1 5.6995707,6.0772533 A 0.44635195,0.44635195 0 1 1 6.5922746,6.0772533 z"
       transform="matrix(1.5384615,0,0,1.5384615,-1.0609209,0.5828869)" />
    <path
       sodipodi:type="arc"
       style="fill:#eb20ff;fill-opacity:1;fill-rule:evenodd;stroke:none;stroke-width:0.5;stroke-linecap:butt;stroke-linejoin:miter;stroke-miterlimit:4;stroke-dasharray:none;stroke-opacity:1"
       id="path4210"
       sodipodi:cx="6.1459227"
       sodipodi:cy="6.0772533"
       sodipodi:rx="0.44635195"
       sodipodi:ry="0.44635195"
       d="M 6.5922746,6.0772533 A 0.44635195,0.44635195 0 1 1 5.6995707,6.0772533 A 0.44635195,0.44635195 0 1 1 6.5922746,6.0772533 z"
       transform="matrix(1.5384615,0,0,1.5384615,-4.1569405,-1.9184973)" />
    <path
       sodipodi:type="arc"
       style="fill:#eb20ff;fill-opacity:1;fill-rule:evenodd;stroke:none;stroke-width:0.5;stroke-linecap:butt;stroke-linejoin:miter;stroke-miterlimit:4;stroke-dasharray:none;stroke-opacity:1"
       id="path4212"
       sodipodi:cx="6.1459227"
       sodipodi:cy="6.0772533"
       sodipodi:rx="0.44635195"
       sodipodi:ry="0.44635195"
       d="M 6.5922746,6.0772533 A 0.44635195,0.44635195 0 1 1 5.6995707,6.0772533 A 0.44635195,0.44635195 0 1 1 6.5922746,6.0772533 z"
       transform="matrix(1.5384615,0,0,1.5384615,-4.0019288,2.9009888)" />
    <path
       sodipodi:type="arc"
       style="fill:#eb20ff;fill-opacity:1;fill-rule:evenodd;stroke:none;stroke-width:0.50000000000000000;stroke-linecap:butt;stroke-linejoin:miter;stroke-miterlimit:4;stroke-dasharray:none;stroke-opacity:1"
       id="path4214"
       sodipodi:cx="6.1459227"
       sodipodi:cy="6.0772533"
       sodipodi:rx="0.44635195"
       sodipodi:ry="0.44635195"
       d="M 6.5922746,6.0772533 A 0.44635195,0.44635195 0 1 1 5.6995707,6.0772533 A 0.44635195,0.44635195 0 1 1 6.5922746,6.0772533 z"
       transform="matrix(1.5384615,0,0,1.5384615,3.5576101,-5.8818092)" />
    <path
       sodipodi:type="arc"
       style="fill:#eb20ff;fill-opacity:1;fill-rule:evenodd;stroke:none;stroke-width:0.5;stroke-linecap:butt;stroke-linejoin:miter;stroke-miterlimit:4;stroke-dasharray:none;stroke-opacity:1"
       id="path4216"
       sodipodi:cx="6.1459227"
       sodipodi:cy="6.0772533"
       sodipodi:rx="0.44635195"
       sodipodi:ry="0.44635195"
       d="M 6.5922746,6.0772533 A 0.44635195,0.44635195 0 1 1 5.6995707,6.0772533 A 0.44635195,0.44635195 0 1 1 6.5922746,6.0772533 z"
       transform="matrix(1.5384615,0,0,1.5384615,-6.5485922,1.6277437)" />
    <path
       style="fill:none;fill-rule:evenodd;stroke:#187e29;stroke-width:1px;stroke-linecap:butt;stroke-linejoin:miter;stroke-opacity:1"
       d="M 1.0987124,14.986619 L 13.184549,1.9914163 L 13.184549,1.9914163 L 13.184549,1.9914163"
       id="path4200"
       sodipodi:nodetypes="cccc" />
    <path
       style="fill:none;fill-rule:evenodd;stroke:#000000;stroke-width:1px;stroke-linecap:butt;stroke-linejoin:miter;stroke-opacity:1"
       d="M 1.1168038,0.65608633 L 1.1168038,14.98031 L 15.004017,14.98031"
       id="path3530"
       sodipodi:nodetypes="ccc" />
  </g>
</svg>
