<?xml version="1.0" encoding="UTF-8" standalone="no"?>
<svg
   xmlns:dc="http://purl.org/dc/elements/1.1/"
   xmlns:cc="http://creativecommons.org/ns#"
   xmlns:rdf="http://www.w3.org/1999/02/22-rdf-syntax-ns#"
   xmlns:svg="http://www.w3.org/2000/svg"
   xmlns="http://www.w3.org/2000/svg"
   xmlns:sodipodi="http://sodipodi.sourceforge.net/DTD/sodipodi-0.dtd"
   xmlns:inkscape="http://www.inkscape.org/namespaces/inkscape"
   height="60"
   width="60"
   _SVGFile__filename="oldscale/actions/copy.svg"
   version="1.0"
   y="0"
   x="0"
   id="svg1"
   sodipodi:version="0.32"
   inkscape:version="0.48.5 r10040"
   sodipodi:docname="kde-edit-copy.svg">
  <sodipodi:namedview
     id="base"
     pagecolor="#ffffff"
     bordercolor="#666666"
     borderopacity="1.0"
     inkscape:pageopacity="0.0"
     inkscape:pageshadow="2"
     inkscape:zoom="4.9119411"
     inkscape:cx="60.290892"
     inkscape:cy="24.030856"
     inkscape:window-width="1020"
     inkscape:window-height="691"
     inkscape:window-x="0"
     inkscape:window-y="0"
     inkscape:current-layer="svg1" />
  <defs
     id="defs3" />
  <metadata
     id="metadata7">
    <RDF
       id="RDF8">
      <Work
         about=""
         id="Work9">
        <title
           id="title10">Part of the Flat Icon Collection (Thu Aug 26 14:38:01 2004)</title>
        <description
           id="description12" />
        <subject
           id="subject13">
          <Bag
             id="Bag14">
            <li
               id="li15" />
          </Bag>
        </subject>
        <publisher
           id="publisher16">
          <Agent
             about=""
             id="Agent17">
            <title
               id="title18" />
          </Agent>
        </publisher>
        <creator
           id="creator19">
          <Agent
             about=""
             id="Agent20">
            <title
               id="title21">Danny Allen</title>
          </Agent>
        </creator>
        <rights
           id="rights23">
          <Agent
             about=""
             id="Agent24">
            <title
               id="title25">Danny Allen</title>
          </Agent>
        </rights>
        <date
           id="date27" />
        <format
           id="format28">image/svg+xml</format>
        <type
           id="type30"
           resource="http://purl.org/dc/dcmitype/StillImage" />
        <license
           id="license31"
           resource="http://creativecommons.org/licenses/LGPL/2.1/">
          <date
             id="date32" />
        </license>
        <language
           id="language33">en</language>
      </Work>
    </RDF>
    <rdf:RDF>
      <cc:Work
         rdf:about="">
        <dc:format>image/svg+xml</dc:format>
        <dc:type
           rdf:resource="http://purl.org/dc/dcmitype/StillImage" />
      </cc:Work>
    </rdf:RDF>
  </metadata>
  <path
     style="fill:none;fill-opacity:1.0000000;fill-rule:evenodd;stroke:#ffffff;stroke-width:8.3605329;stroke-linejoin:round;stroke-opacity:1.0000000;font-size:12.000000;stroke-miterlimit:4.0000000;stroke-dasharray:none;"
     d="M 7.5129960,4.5766750 C 6.1421170,4.5766750 5.0384850,5.6803070 5.0384850,7.0511860 L 5.0384850,38.614970 C 5.0384850,39.985850 6.1421170,41.089480 7.5129960,41.089480 L 37.295670,41.089480 C 38.666550,41.089480 39.770180,39.985850 39.770180,38.614970 L 39.770180,7.0511860 C 39.770180,5.6803070 38.666550,4.5766750 37.295670,4.5766750 L 7.5129960,4.5766750 z "
     id="path1716"
     transform="matrix(0.971828,0.000000,0.000000,0.971828,0.870372,0.237333)" />
  <path
     style="font-size:12.000000;stroke-opacity:1.0000000;stroke-linejoin:round;stroke-width:3.2155893;stroke:#000000;fill-rule:evenodd;fill-opacity:1.0000000;fill:#c5d8ef"
     d="M 7.5129960,4.5766750 C 6.1421170,4.5766750 5.0384850,5.6803070 5.0384850,7.0511860 L 5.0384850,38.614970 C 5.0384850,39.985850 6.1421170,41.089480 7.5129960,41.089480 L 37.295670,41.089480 C 38.666550,41.089480 39.770180,39.985850 39.770180,38.614970 L 39.770180,7.0511860 C 39.770180,5.6803070 38.666550,4.5766750 37.295670,4.5766750 L 7.5129960,4.5766750 z "
     id="rect1101"
     transform="matrix(0.971828,0.000000,0.000000,0.971828,0.870372,0.237333)" />
  <path
     style="fill:none;fill-opacity:1.0000000;fill-rule:evenodd;stroke:#ffffff;stroke-width:8.3605329;stroke-linejoin:round;stroke-opacity:1.0000000;font-size:12.000000;stroke-miterlimit:4.0000000;stroke-dasharray:none;"
     d="M 22.652450,20.161410 C 21.281570,20.161410 20.177940,21.265040 20.177940,22.635920 L 20.177940,54.199710 C 20.177940,55.570590 21.281570,56.674220 22.652450,56.674220 L 52.435120,56.674220 C 53.806000,56.674220 54.909630,55.570590 54.909630,54.199710 L 54.909630,22.635920 C 54.909630,21.265040 53.806000,20.161410 52.435120,20.161410 L 22.652450,20.161410 z "
     id="path1094"
     transform="matrix(0.971828,0.000000,0.000000,0.971828,0.870372,0.237333)" />
  <path
     style="font-size:12.000000;stroke-opacity:1.0000000;stroke-linejoin:round;stroke-width:3.2155893;stroke:#000000;fill-rule:evenodd;fill-opacity:1.0000000;fill:#5e8fcb"
     d="M 22.652450,20.161410 C 21.281570,20.161410 20.177940,21.265040 20.177940,22.635920 L 20.177940,54.199710 C 20.177940,55.570590 21.281570,56.674220 22.652450,56.674220 L 52.435120,56.674220 C 53.806000,56.674220 54.909630,55.570590 54.909630,54.199710 L 54.909630,22.635920 C 54.909630,21.265040 53.806000,20.161410 52.435120,20.161410 L 22.652450,20.161410 z "
     id="rect1111"
     transform="matrix(0.971828,0.000000,0.000000,0.971828,0.870372,0.237333)" />
  <path
     style="font-size:12.000000;fill:none;fill-opacity:1.0000000;fill-rule:evenodd;stroke:#ffffff;stroke-width:8.1250000;stroke-linecap:round;stroke-linejoin:round;stroke-miterlimit:4.0000000;stroke-opacity:1.0000000"
     d="M 12.456661,21.599251 C 14.781759,42.127825 32.606795,40.749355 33.753222,40.641541 L 33.753222,46.781249 L 42.733710,37.892414 L 33.753222,29.021899 L 33.753222,35.088302 C 32.405238,35.246632 19.812038,36.510446 12.456661,21.599251 z "
     id="path1718" />
  <path
     style="font-size:12.000000;fill:#62b01e;fill-opacity:1.0000000;fill-rule:evenodd;stroke:#62b01e;stroke-width:3.1250000;stroke-linecap:round;stroke-linejoin:round;stroke-miterlimit:4.0000000;stroke-opacity:1.0000000"
     d="M 12.456661,21.599251 C 14.781759,42.127825 32.606795,40.749355 33.753222,40.641541 L 33.753222,46.781249 L 42.733710,37.892414 L 33.753222,29.021899 L 33.753222,35.088302 C 32.405238,35.246632 19.812038,36.510446 12.456661,21.599251 z "
     id="path1574" />
</svg>
