<?xml version="1.0" encoding="UTF-8" standalone="no"?>
<!-- Created with Inkscape (http://www.inkscape.org/) -->

<svg
   width="31.905052"
   height="31.905052"
   id="svg2"
   sodipodi:version="0.32"
   inkscape:version="1.1.2 (0a00cf5339, 2022-02-04)"
   version="1.0"
   sodipodi:docname="veusz-arrow-ns.svg"
   inkscape:output_extension="org.inkscape.output.svg.inkscape"
   xmlns:inkscape="http://www.inkscape.org/namespaces/inkscape"
   xmlns:sodipodi="http://sodipodi.sourceforge.net/DTD/sodipodi-0.dtd"
   xmlns="http://www.w3.org/2000/svg"
   xmlns:svg="http://www.w3.org/2000/svg"
   xmlns:rdf="http://www.w3.org/1999/02/22-rdf-syntax-ns#"
   xmlns:cc="http://creativecommons.org/ns#"
   xmlns:dc="http://purl.org/dc/elements/1.1/">
  <defs
     id="defs15">
    <marker
       style="overflow:visible"
       id="Arrow2Send"
       refX="0"
       refY="0"
       orient="auto"
       inkscape:stockid="Arrow2Send"
       inkscape:isstock="true">
      <path
         transform="matrix(-0.3,0,0,-0.3,0.69,0)"
         d="M 8.7185878,4.0337352 -2.2072895,0.01601326 8.7185884,-4.0017078 c -1.7454984,2.3720609 -1.7354408,5.6174519 -6e-7,8.035443 z"
         style="fill:context-stroke;fill-rule:evenodd;stroke:context-stroke;stroke-width:0.625;stroke-linejoin:round"
         id="path1407" />
    </marker>
    <marker
       style="overflow:visible"
       id="Arrow2Sstart"
       refX="0"
       refY="0"
       orient="auto"
       inkscape:stockid="Arrow2Sstart"
       inkscape:isstock="true">
      <path
         transform="matrix(0.3,0,0,0.3,-0.69,0)"
         d="M 8.7185878,4.0337352 -2.2072895,0.01601326 8.7185884,-4.0017078 c -1.7454984,2.3720609 -1.7354408,5.6174519 -6e-7,8.035443 z"
         style="fill:context-stroke;fill-rule:evenodd;stroke:context-stroke;stroke-width:0.625;stroke-linejoin:round"
         id="path1404" />
    </marker>
    <marker
       style="overflow:visible"
       id="Arrow2Sstart-3"
       refX="0"
       refY="0"
       orient="auto"
       inkscape:stockid="Arrow2Sstart"
       inkscape:isstock="true">
      <path
         transform="matrix(0.3,0,0,0.3,-0.69,0)"
         d="M 8.7185878,4.0337352 -2.2072895,0.01601326 8.7185884,-4.0017078 c -1.7454984,2.3720609 -1.7354408,5.6174519 -6e-7,8.035443 z"
         style="fill:context-stroke;fill-rule:evenodd;stroke:context-stroke;stroke-width:0.625;stroke-linejoin:round"
         id="path1404-6" />
    </marker>
    <marker
       style="overflow:visible"
       id="Arrow2Send-7"
       refX="0"
       refY="0"
       orient="auto"
       inkscape:stockid="Arrow2Send"
       inkscape:isstock="true">
      <path
         transform="matrix(-0.3,0,0,-0.3,0.69,0)"
         d="M 8.7185878,4.0337352 -2.2072895,0.01601326 8.7185884,-4.0017078 c -1.7454984,2.3720609 -1.7354408,5.6174519 -6e-7,8.035443 z"
         style="fill:context-stroke;fill-rule:evenodd;stroke:context-stroke;stroke-width:0.625;stroke-linejoin:round"
         id="path1407-5" />
    </marker>
    <marker
       style="overflow:visible"
       id="Arrow2Sstart-5"
       refX="0"
       refY="0"
       orient="auto"
       inkscape:stockid="Arrow2Sstart"
       inkscape:isstock="true">
      <path
         transform="matrix(0.3,0,0,0.3,-0.69,0)"
         d="M 8.7185878,4.0337352 -2.2072895,0.01601326 8.7185884,-4.0017078 c -1.7454984,2.3720609 -1.7354408,5.6174519 -6e-7,8.035443 z"
         style="fill:context-stroke;fill-rule:evenodd;stroke:context-stroke;stroke-width:0.625;stroke-linejoin:round"
         id="path1404-62" />
    </marker>
    <marker
       style="overflow:visible"
       id="Arrow2Send-9"
       refX="0"
       refY="0"
       orient="auto"
       inkscape:stockid="Arrow2Send"
       inkscape:isstock="true">
      <path
         transform="matrix(-0.3,0,0,-0.3,0.69,0)"
         d="M 8.7185878,4.0337352 -2.2072895,0.01601326 8.7185884,-4.0017078 c -1.7454984,2.3720609 -1.7354408,5.6174519 -6e-7,8.035443 z"
         style="fill:context-stroke;fill-rule:evenodd;stroke:context-stroke;stroke-width:0.625;stroke-linejoin:round"
         id="path1407-1" />
    </marker>
    <marker
       style="overflow:visible"
       id="Arrow2Sstart-3-2"
       refX="0"
       refY="0"
       orient="auto"
       inkscape:stockid="Arrow2Sstart"
       inkscape:isstock="true">
      <path
         transform="matrix(0.3,0,0,0.3,-0.69,0)"
         d="M 8.7185878,4.0337352 -2.2072895,0.01601326 8.7185884,-4.0017078 c -1.7454984,2.3720609 -1.7354408,5.6174519 -6e-7,8.035443 z"
         style="fill:context-stroke;fill-rule:evenodd;stroke:context-stroke;stroke-width:0.625;stroke-linejoin:round"
         id="path1404-6-7" />
    </marker>
    <marker
       style="overflow:visible"
       id="Arrow2Send-7-0"
       refX="0"
       refY="0"
       orient="auto"
       inkscape:stockid="Arrow2Send"
       inkscape:isstock="true">
      <path
         transform="matrix(-0.3,0,0,-0.3,0.69,0)"
         d="M 8.7185878,4.0337352 -2.2072895,0.01601326 8.7185884,-4.0017078 c -1.7454984,2.3720609 -1.7354408,5.6174519 -6e-7,8.035443 z"
         style="fill:context-stroke;fill-rule:evenodd;stroke:context-stroke;stroke-width:0.625;stroke-linejoin:round"
         id="path1407-5-9" />
    </marker>
  </defs>
  <sodipodi:namedview
     id="base"
     pagecolor="#ffffff"
     bordercolor="#666666"
     borderopacity="1.0"
     gridtolerance="10000"
     guidetolerance="10"
     objecttolerance="10"
     inkscape:pageopacity="0.0"
     inkscape:pageshadow="2"
     inkscape:zoom="17.766058"
     inkscape:cx="13.593336"
     inkscape:cy="19.081329"
     inkscape:document-units="px"
     inkscape:current-layer="layer1"
     showgrid="false"
     inkscape:window-width="1920"
     inkscape:window-height="1011"
     inkscape:window-x="0"
     inkscape:window-y="0"
     showguides="true"
     inkscape:guide-bbox="true"
     inkscape:window-maximized="1"
     inkscape:pagecheckerboard="0"
     fit-margin-top="0"
     fit-margin-left="0"
     fit-margin-right="0"
     fit-margin-bottom="0" />
  <metadata
     id="metadata7">
    <rdf:RDF>
      <cc:Work
         rdf:about="">
        <dc:format>image/svg+xml</dc:format>
        <dc:type
           rdf:resource="http://purl.org/dc/dcmitype/StillImage" />
        <dc:creator>
          <cc:Agent>
            <dc:title>Jeremy Sanders</dc:title>
          </cc:Agent>
        </dc:creator>
        <dc:rights>
          <cc:Agent>
            <dc:title>Copyright (C) Jeremy Sanders</dc:title>
          </cc:Agent>
        </dc:rights>
        <cc:license
           rdf:resource="http://creativecommons.org/licenses/GPL/2.0/" />
      </cc:Work>
    </rdf:RDF>
  </metadata>
  <g
     inkscape:label="Layer 1"
     inkscape:groupmode="layer"
     id="layer1"
     transform="translate(7.9502745,7.9221801)">
    <g
       id="path557-6">
      <path
         style="color:#000000;fill:#cccccc;-inkscape-stroke:none"
         d="M 6.4023437,-3.2949219 V 19.355469 H 9.6015625 V -3.2949219 Z"
         id="path3506" />
      <g
         id="g3488">
        <g
           id="path3498">
          <path
             style="color:#000000;fill:#cccccc;fill-rule:evenodd;stroke-width:0.6;stroke-linejoin:round;-inkscape-stroke:none"
             d="M 11.874638,13.194081 8.0176248,23.682923 4.1606126,13.19408 c 2.2771785,1.675679 5.3927539,1.666023 7.7140254,1e-6 z"
             id="path3502" />
          <path
             style="color:#000000;fill:#cccccc;fill-rule:evenodd;stroke-linejoin:round;-inkscape-stroke:none"
             d="m 11.941406,12.902344 a 0.30003001,0.30003001 0 0 0 -0.242187,0.04883 c -2.2184095,1.592196 -5.1898048,1.599885 -7.3613284,0.002 a 0.30003001,0.30003001 0 0 0 -0.4589843,0.34375 l 3.8574218,10.490234 a 0.30003001,0.30003001 0 0 0 0.5625,0 L 12.15625,13.296875 a 0.30003001,0.30003001 0 0 0 -0.214844,-0.394531 z m -0.607422,0.894531 -3.3164059,9.017578 -3.3125,-9.009765 c 2.0624223,1.158679 4.5414211,1.150661 6.6289059,-0.0078 z"
             id="path3504" />
        </g>
        <g
           id="path3490">
          <path
             style="color:#000000;fill:#cccccc;fill-rule:evenodd;stroke-width:0.6;stroke-linejoin:round;-inkscape-stroke:none"
             d="M 4.1298663,2.8666119 7.9868794,-7.6222305 11.843892,2.8666125 C 9.5667131,1.190934 6.4511377,1.2005893 4.1298663,2.8666119 Z"
             id="path3494" />
          <path
             style="color:#000000;fill:#cccccc;fill-rule:evenodd;stroke-linejoin:round;-inkscape-stroke:none"
             d="m 7.9863281,-7.921875 a 0.30003001,0.30003001 0 0 0 -0.28125,0.1953125 L 3.8476563,2.7636719 A 0.30003001,0.30003001 0 0 0 4.3046875,3.109375 C 6.5230966,1.5171787 9.4944916,1.5094903 11.666016,3.1074219 A 0.30003001,0.30003001 0 0 0 12.125,2.7636719 L 8.2675781,-7.7265625 a 0.30003001,0.30003001 0 0 0 -0.28125,-0.1953125 z m 0,1.1679688 3.3124999,9.0097656 C 9.2372703,1.0979321 6.758728,1.1046278 4.671875,2.2617188 Z"
             id="path3496" />
        </g>
      </g>
    </g>
    <path
       id="rect2220-6"
       style="stroke:#cccccc;stroke-width:3.2;stroke-linecap:square;stroke-miterlimit:4;stroke-dasharray:none;stroke-dashoffset:10"
       d="M 5.1708573,5.1989517 H 10.833647 V 10.861741 H 5.1708573 Z" />
    <g
       id="path557">
      <path
         style="color:#000000;fill:#000000;-inkscape-stroke:none"
         d="M 7.0585937,-2.6308594 V 18.570312 H 8.9453125 V -2.6308594 Z"
         id="path3419" />
      <g
         id="g3401">
        <g
           id="path3411">
          <path
             style="color:#000000;fill:#000000;fill-rule:evenodd;stroke-width:0.353925;stroke-linejoin:round;-inkscape-stroke:none"
             d="m 10.286476,14.934937 -2.2751559,6.187106 -2.275155,-6.187106 c 1.3432506,0.988441 3.1810505,0.982745 4.5503109,0 z"
             id="path3415" />
          <path
             style="color:#000000;fill:#000000;fill-rule:evenodd;stroke-linejoin:round;-inkscape-stroke:none"
             d="m 10.326172,14.761719 a 0.17698019,0.17698019 0 0 0 -0.142578,0.0293 c -1.3085848,0.939196 -3.0608697,0.944533 -4.3417971,0.002 a 0.17698019,0.17698019 0 0 0 -0.2714844,0.203125 l 2.2753906,6.1875 a 0.17698019,0.17698019 0 0 0 0.3320313,0 l 2.2753906,-6.1875 A 0.17698019,0.17698019 0 0 0 10.326172,14.761719 Z M 10,15.205078 8.0117188,20.609375 6.0253906,15.207031 C 7.265079,15.926126 8.7443219,15.922643 10,15.205078 Z"
             id="path3417" />
        </g>
        <g
           id="path3403">
          <path
             style="color:#000000;fill:#000000;fill-rule:evenodd;stroke-width:0.353925;stroke-linejoin:round;-inkscape-stroke:none"
             d="M 5.7180286,1.0043715 7.9931841,-5.1827341 10.268339,1.0043718 C 8.9250885,0.01593103 7.0872886,0.02162645 5.7180286,1.0043715 Z"
             id="path3407" />
          <path
             style="color:#000000;fill:#000000;fill-rule:evenodd;stroke-linejoin:round;-inkscape-stroke:none"
             d="M 7.9941406,-5.359375 A 0.17698019,0.17698019 0 0 0 7.8261719,-5.2441406 L 5.5527344,0.94335938 A 0.17698019,0.17698019 0 0 0 5.8203125,1.1484375 C 7.1288966,0.20924072 8.8831352,0.20390457 10.164063,1.1464844 A 0.17698019,0.17698019 0 0 0 10.433594,0.94335938 L 8.1601563,-5.2441406 A 0.17698019,0.17698019 0 0 0 7.9941406,-5.359375 Z m -0.00195,0.6933594 1.9863281,5.39843747 C 8.7388746,0.0134886 7.261444,0.01686296 6.0058594,0.734375 Z"
             id="path3409" />
        </g>
      </g>
    </g>
    <path
       id="rect2220"
       style="stroke-width:2.83139;stroke-linecap:square;stroke-dashoffset:10"
       d="M 5.1708573,5.1989517 H 10.833647 V 10.861741 H 5.1708573 Z" />
  </g>
</svg>
